G04 #@! TF.GenerationSoftware,KiCad,Pcbnew,(2017-06-02 revision ac9a64a)-master*
G04 #@! TF.CreationDate,2017-06-11T20:54:29+02:00*
G04 #@! TF.ProjectId,torchctrl,746F7263686374726C2E6B696361645F,rev?*
G04 #@! TF.FileFunction,Legend,Top*
G04 #@! TF.FilePolarity,Positive*
%FSLAX46Y46*%
G04 Gerber Fmt 4.6, Leading zero omitted, Abs format (unit mm)*
G04 Created by KiCad (PCBNEW (2017-06-02 revision ac9a64a)-master) date Sun Jun 11 20:54:29 2017*
%MOMM*%
%LPD*%
G01*
G04 APERTURE LIST*
%ADD10C,0.100000*%
%ADD11C,0.300000*%
%ADD12C,0.120000*%
%ADD13C,0.254000*%
%ADD14C,0.127000*%
%ADD15C,0.150000*%
%ADD16C,0.381000*%
%ADD17C,0.304800*%
%ADD18C,0.299720*%
%ADD19C,0.010000*%
%ADD20C,0.040640*%
%ADD21C,0.099060*%
%ADD22C,0.203200*%
%ADD23C,0.200000*%
G04 APERTURE END LIST*
D10*
D11*
X123830471Y-99688157D02*
X122330471Y-99688157D01*
X123830471Y-99045300D02*
X123044757Y-99045300D01*
X122901900Y-99116728D01*
X122830471Y-99259585D01*
X122830471Y-99473871D01*
X122901900Y-99616728D01*
X122973328Y-99688157D01*
X122830471Y-98545300D02*
X122830471Y-97973871D01*
X122330471Y-98331014D02*
X123616185Y-98331014D01*
X123759042Y-98259585D01*
X123830471Y-98116728D01*
X123830471Y-97973871D01*
X122830471Y-97688157D02*
X122830471Y-97116728D01*
X122330471Y-97473871D02*
X123616185Y-97473871D01*
X123759042Y-97402442D01*
X123830471Y-97259585D01*
X123830471Y-97116728D01*
X122830471Y-96616728D02*
X124330471Y-96616728D01*
X122901900Y-96616728D02*
X122830471Y-96473871D01*
X122830471Y-96188157D01*
X122901900Y-96045300D01*
X122973328Y-95973871D01*
X123116185Y-95902442D01*
X123544757Y-95902442D01*
X123687614Y-95973871D01*
X123759042Y-96045300D01*
X123830471Y-96188157D01*
X123830471Y-96473871D01*
X123759042Y-96616728D01*
X123687614Y-95259585D02*
X123759042Y-95188157D01*
X123830471Y-95259585D01*
X123759042Y-95331014D01*
X123687614Y-95259585D01*
X123830471Y-95259585D01*
X122901900Y-95259585D02*
X122973328Y-95188157D01*
X123044757Y-95259585D01*
X122973328Y-95331014D01*
X122901900Y-95259585D01*
X123044757Y-95259585D01*
X122259042Y-93473871D02*
X124187614Y-94759585D01*
X122259042Y-91902442D02*
X124187614Y-93188157D01*
X123830471Y-91188157D02*
X123759042Y-91331014D01*
X123687614Y-91402442D01*
X123544757Y-91473871D01*
X123116185Y-91473871D01*
X122973328Y-91402442D01*
X122901900Y-91331014D01*
X122830471Y-91188157D01*
X122830471Y-90973871D01*
X122901900Y-90831014D01*
X122973328Y-90759585D01*
X123116185Y-90688157D01*
X123544757Y-90688157D01*
X123687614Y-90759585D01*
X123759042Y-90831014D01*
X123830471Y-90973871D01*
X123830471Y-91188157D01*
X122830471Y-90045300D02*
X124330471Y-90045300D01*
X122901900Y-90045300D02*
X122830471Y-89902442D01*
X122830471Y-89616728D01*
X122901900Y-89473871D01*
X122973328Y-89402442D01*
X123116185Y-89331014D01*
X123544757Y-89331014D01*
X123687614Y-89402442D01*
X123759042Y-89473871D01*
X123830471Y-89616728D01*
X123830471Y-89902442D01*
X123759042Y-90045300D01*
X123759042Y-88116728D02*
X123830471Y-88259585D01*
X123830471Y-88545300D01*
X123759042Y-88688157D01*
X123616185Y-88759585D01*
X123044757Y-88759585D01*
X122901900Y-88688157D01*
X122830471Y-88545300D01*
X122830471Y-88259585D01*
X122901900Y-88116728D01*
X123044757Y-88045300D01*
X123187614Y-88045300D01*
X123330471Y-88759585D01*
X122830471Y-87402442D02*
X123830471Y-87402442D01*
X122973328Y-87402442D02*
X122901900Y-87331014D01*
X122830471Y-87188157D01*
X122830471Y-86973871D01*
X122901900Y-86831014D01*
X123044757Y-86759585D01*
X123830471Y-86759585D01*
X123759042Y-86116728D02*
X123830471Y-85973871D01*
X123830471Y-85688157D01*
X123759042Y-85545300D01*
X123616185Y-85473871D01*
X123544757Y-85473871D01*
X123401900Y-85545300D01*
X123330471Y-85688157D01*
X123330471Y-85902442D01*
X123259042Y-86045300D01*
X123116185Y-86116728D01*
X123044757Y-86116728D01*
X122901900Y-86045300D01*
X122830471Y-85902442D01*
X122830471Y-85688157D01*
X122901900Y-85545300D01*
X123830471Y-84616728D02*
X123759042Y-84759585D01*
X123687614Y-84831014D01*
X123544757Y-84902442D01*
X123116185Y-84902442D01*
X122973328Y-84831014D01*
X122901900Y-84759585D01*
X122830471Y-84616728D01*
X122830471Y-84402442D01*
X122901900Y-84259585D01*
X122973328Y-84188157D01*
X123116185Y-84116728D01*
X123544757Y-84116728D01*
X123687614Y-84188157D01*
X123759042Y-84259585D01*
X123830471Y-84402442D01*
X123830471Y-84616728D01*
X122830471Y-82831014D02*
X123830471Y-82831014D01*
X122830471Y-83473871D02*
X123616185Y-83473871D01*
X123759042Y-83402442D01*
X123830471Y-83259585D01*
X123830471Y-83045300D01*
X123759042Y-82902442D01*
X123687614Y-82831014D01*
X123830471Y-82116728D02*
X122830471Y-82116728D01*
X123116185Y-82116728D02*
X122973328Y-82045300D01*
X122901900Y-81973871D01*
X122830471Y-81831014D01*
X122830471Y-81688157D01*
X123759042Y-80545300D02*
X123830471Y-80688157D01*
X123830471Y-80973871D01*
X123759042Y-81116728D01*
X123687614Y-81188157D01*
X123544757Y-81259585D01*
X123116185Y-81259585D01*
X122973328Y-81188157D01*
X122901900Y-81116728D01*
X122830471Y-80973871D01*
X122830471Y-80688157D01*
X122901900Y-80545300D01*
X123759042Y-79331014D02*
X123830471Y-79473871D01*
X123830471Y-79759585D01*
X123759042Y-79902442D01*
X123616185Y-79973871D01*
X123044757Y-79973871D01*
X122901900Y-79902442D01*
X122830471Y-79759585D01*
X122830471Y-79473871D01*
X122901900Y-79331014D01*
X123044757Y-79259585D01*
X123187614Y-79259585D01*
X123330471Y-79973871D01*
X123759042Y-78045300D02*
X123830471Y-78188157D01*
X123830471Y-78473871D01*
X123759042Y-78616728D01*
X123616185Y-78688157D01*
X123044757Y-78688157D01*
X122901900Y-78616728D01*
X122830471Y-78473871D01*
X122830471Y-78188157D01*
X122901900Y-78045300D01*
X123044757Y-77973871D01*
X123187614Y-77973871D01*
X123330471Y-78688157D01*
X123759042Y-76688157D02*
X123830471Y-76831014D01*
X123830471Y-77116728D01*
X123759042Y-77259585D01*
X123687614Y-77331014D01*
X123544757Y-77402442D01*
X123116185Y-77402442D01*
X122973328Y-77331014D01*
X122901900Y-77259585D01*
X122830471Y-77116728D01*
X122830471Y-76831014D01*
X122901900Y-76688157D01*
X123830471Y-75831014D02*
X123759042Y-75973871D01*
X123687614Y-76045300D01*
X123544757Y-76116728D01*
X123116185Y-76116728D01*
X122973328Y-76045300D01*
X122901900Y-75973871D01*
X122830471Y-75831014D01*
X122830471Y-75616728D01*
X122901900Y-75473871D01*
X122973328Y-75402442D01*
X123116185Y-75331014D01*
X123544757Y-75331014D01*
X123687614Y-75402442D01*
X123759042Y-75473871D01*
X123830471Y-75616728D01*
X123830471Y-75831014D01*
X123830471Y-74473871D02*
X123759042Y-74616728D01*
X123616185Y-74688157D01*
X122330471Y-74688157D01*
X123830471Y-73688157D02*
X123759042Y-73831014D01*
X123687614Y-73902442D01*
X123544757Y-73973871D01*
X123116185Y-73973871D01*
X122973328Y-73902442D01*
X122901900Y-73831014D01*
X122830471Y-73688157D01*
X122830471Y-73473871D01*
X122901900Y-73331014D01*
X122973328Y-73259585D01*
X123116185Y-73188157D01*
X123544757Y-73188157D01*
X123687614Y-73259585D01*
X123759042Y-73331014D01*
X123830471Y-73473871D01*
X123830471Y-73688157D01*
X122830471Y-71902442D02*
X124044757Y-71902442D01*
X124187614Y-71973871D01*
X124259042Y-72045300D01*
X124330471Y-72188157D01*
X124330471Y-72402442D01*
X124259042Y-72545300D01*
X123759042Y-71902442D02*
X123830471Y-72045300D01*
X123830471Y-72331014D01*
X123759042Y-72473871D01*
X123687614Y-72545300D01*
X123544757Y-72616728D01*
X123116185Y-72616728D01*
X122973328Y-72545300D01*
X122901900Y-72473871D01*
X122830471Y-72331014D01*
X122830471Y-72045300D01*
X122901900Y-71902442D01*
X122830471Y-71331014D02*
X123830471Y-70973871D01*
X122830471Y-70616728D02*
X123830471Y-70973871D01*
X124187614Y-71116728D01*
X124259042Y-71188157D01*
X124330471Y-71331014D01*
X123687614Y-70045300D02*
X123759042Y-69973871D01*
X123830471Y-70045300D01*
X123759042Y-70116728D01*
X123687614Y-70045300D01*
X123830471Y-70045300D01*
X123830471Y-69116728D02*
X123759042Y-69259585D01*
X123687614Y-69331014D01*
X123544757Y-69402442D01*
X123116185Y-69402442D01*
X122973328Y-69331014D01*
X122901900Y-69259585D01*
X122830471Y-69116728D01*
X122830471Y-68902442D01*
X122901900Y-68759585D01*
X122973328Y-68688157D01*
X123116185Y-68616728D01*
X123544757Y-68616728D01*
X123687614Y-68688157D01*
X123759042Y-68759585D01*
X123830471Y-68902442D01*
X123830471Y-69116728D01*
X123830471Y-67973871D02*
X122830471Y-67973871D01*
X123116185Y-67973871D02*
X122973328Y-67902442D01*
X122901900Y-67831014D01*
X122830471Y-67688157D01*
X122830471Y-67545300D01*
X122830471Y-66402442D02*
X124044757Y-66402442D01*
X124187614Y-66473871D01*
X124259042Y-66545300D01*
X124330471Y-66688157D01*
X124330471Y-66902442D01*
X124259042Y-67045300D01*
X123759042Y-66402442D02*
X123830471Y-66545300D01*
X123830471Y-66831014D01*
X123759042Y-66973871D01*
X123687614Y-67045300D01*
X123544757Y-67116728D01*
X123116185Y-67116728D01*
X122973328Y-67045300D01*
X122901900Y-66973871D01*
X122830471Y-66831014D01*
X122830471Y-66545300D01*
X122901900Y-66402442D01*
X144285914Y-108903571D02*
X145143057Y-108903571D01*
X144714485Y-110403571D02*
X144714485Y-108903571D01*
X145857342Y-110403571D02*
X145714485Y-110332142D01*
X145643057Y-110260714D01*
X145571628Y-110117857D01*
X145571628Y-109689285D01*
X145643057Y-109546428D01*
X145714485Y-109475000D01*
X145857342Y-109403571D01*
X146071628Y-109403571D01*
X146214485Y-109475000D01*
X146285914Y-109546428D01*
X146357342Y-109689285D01*
X146357342Y-110117857D01*
X146285914Y-110260714D01*
X146214485Y-110332142D01*
X146071628Y-110403571D01*
X145857342Y-110403571D01*
X147000200Y-110403571D02*
X147000200Y-109403571D01*
X147000200Y-109689285D02*
X147071628Y-109546428D01*
X147143057Y-109475000D01*
X147285914Y-109403571D01*
X147428771Y-109403571D01*
X148571628Y-110332142D02*
X148428771Y-110403571D01*
X148143057Y-110403571D01*
X148000200Y-110332142D01*
X147928771Y-110260714D01*
X147857342Y-110117857D01*
X147857342Y-109689285D01*
X147928771Y-109546428D01*
X148000200Y-109475000D01*
X148143057Y-109403571D01*
X148428771Y-109403571D01*
X148571628Y-109475000D01*
X149214485Y-110403571D02*
X149214485Y-108903571D01*
X149857342Y-110403571D02*
X149857342Y-109617857D01*
X149785914Y-109475000D01*
X149643057Y-109403571D01*
X149428771Y-109403571D01*
X149285914Y-109475000D01*
X149214485Y-109546428D01*
X150571628Y-110403571D02*
X150571628Y-108903571D01*
X150571628Y-109617857D02*
X151428771Y-109617857D01*
X151428771Y-110403571D02*
X151428771Y-108903571D01*
X152714485Y-110332142D02*
X152571628Y-110403571D01*
X152285914Y-110403571D01*
X152143057Y-110332142D01*
X152071628Y-110189285D01*
X152071628Y-109617857D01*
X152143057Y-109475000D01*
X152285914Y-109403571D01*
X152571628Y-109403571D01*
X152714485Y-109475000D01*
X152785914Y-109617857D01*
X152785914Y-109760714D01*
X152071628Y-109903571D01*
X153428771Y-110403571D02*
X153428771Y-109403571D01*
X153428771Y-108903571D02*
X153357342Y-108975000D01*
X153428771Y-109046428D01*
X153500200Y-108975000D01*
X153428771Y-108903571D01*
X153428771Y-109046428D01*
X154785914Y-109403571D02*
X154785914Y-110617857D01*
X154714485Y-110760714D01*
X154643057Y-110832142D01*
X154500200Y-110903571D01*
X154285914Y-110903571D01*
X154143057Y-110832142D01*
X154785914Y-110332142D02*
X154643057Y-110403571D01*
X154357342Y-110403571D01*
X154214485Y-110332142D01*
X154143057Y-110260714D01*
X154071628Y-110117857D01*
X154071628Y-109689285D01*
X154143057Y-109546428D01*
X154214485Y-109475000D01*
X154357342Y-109403571D01*
X154643057Y-109403571D01*
X154785914Y-109475000D01*
X155500200Y-110403571D02*
X155500200Y-108903571D01*
X156143057Y-110403571D02*
X156143057Y-109617857D01*
X156071628Y-109475000D01*
X155928771Y-109403571D01*
X155714485Y-109403571D01*
X155571628Y-109475000D01*
X155500200Y-109546428D01*
X156643057Y-109403571D02*
X157214485Y-109403571D01*
X156857342Y-108903571D02*
X156857342Y-110189285D01*
X156928771Y-110332142D01*
X157071628Y-110403571D01*
X157214485Y-110403571D01*
X158571628Y-110260714D02*
X158500200Y-110332142D01*
X158285914Y-110403571D01*
X158143057Y-110403571D01*
X157928771Y-110332142D01*
X157785914Y-110189285D01*
X157714485Y-110046428D01*
X157643057Y-109760714D01*
X157643057Y-109546428D01*
X157714485Y-109260714D01*
X157785914Y-109117857D01*
X157928771Y-108975000D01*
X158143057Y-108903571D01*
X158285914Y-108903571D01*
X158500200Y-108975000D01*
X158571628Y-109046428D01*
X159000200Y-108903571D02*
X159857342Y-108903571D01*
X159428771Y-110403571D02*
X159428771Y-108903571D01*
X161214485Y-110403571D02*
X160714485Y-109689285D01*
X160357342Y-110403571D02*
X160357342Y-108903571D01*
X160928771Y-108903571D01*
X161071628Y-108975000D01*
X161143057Y-109046428D01*
X161214485Y-109189285D01*
X161214485Y-109403571D01*
X161143057Y-109546428D01*
X161071628Y-109617857D01*
X160928771Y-109689285D01*
X160357342Y-109689285D01*
X162571628Y-110403571D02*
X161857342Y-110403571D01*
X161857342Y-108903571D01*
X142893057Y-111453571D02*
X143393057Y-112953571D01*
X143893057Y-111453571D01*
X144393057Y-112810714D02*
X144464485Y-112882142D01*
X144393057Y-112953571D01*
X144321628Y-112882142D01*
X144393057Y-112810714D01*
X144393057Y-112953571D01*
X145393057Y-111453571D02*
X145535914Y-111453571D01*
X145678771Y-111525000D01*
X145750200Y-111596428D01*
X145821628Y-111739285D01*
X145893057Y-112025000D01*
X145893057Y-112382142D01*
X145821628Y-112667857D01*
X145750200Y-112810714D01*
X145678771Y-112882142D01*
X145535914Y-112953571D01*
X145393057Y-112953571D01*
X145250200Y-112882142D01*
X145178771Y-112810714D01*
X145107342Y-112667857D01*
X145035914Y-112382142D01*
X145035914Y-112025000D01*
X145107342Y-111739285D01*
X145178771Y-111596428D01*
X145250200Y-111525000D01*
X145393057Y-111453571D01*
X146464485Y-111596428D02*
X146535914Y-111525000D01*
X146678771Y-111453571D01*
X147035914Y-111453571D01*
X147178771Y-111525000D01*
X147250200Y-111596428D01*
X147321628Y-111739285D01*
X147321628Y-111882142D01*
X147250200Y-112096428D01*
X146393057Y-112953571D01*
X147321628Y-112953571D01*
X147964485Y-112382142D02*
X149107342Y-112382142D01*
X150464485Y-112953571D02*
X150464485Y-111453571D01*
X150464485Y-112882142D02*
X150321628Y-112953571D01*
X150035914Y-112953571D01*
X149893057Y-112882142D01*
X149821628Y-112810714D01*
X149750200Y-112667857D01*
X149750200Y-112239285D01*
X149821628Y-112096428D01*
X149893057Y-112025000D01*
X150035914Y-111953571D01*
X150321628Y-111953571D01*
X150464485Y-112025000D01*
X151750200Y-112882142D02*
X151607342Y-112953571D01*
X151321628Y-112953571D01*
X151178771Y-112882142D01*
X151107342Y-112739285D01*
X151107342Y-112167857D01*
X151178771Y-112025000D01*
X151321628Y-111953571D01*
X151607342Y-111953571D01*
X151750200Y-112025000D01*
X151821628Y-112167857D01*
X151821628Y-112310714D01*
X151107342Y-112453571D01*
X152321628Y-111953571D02*
X152678771Y-112953571D01*
X153035914Y-111953571D01*
X153607342Y-112810714D02*
X153678771Y-112882142D01*
X153607342Y-112953571D01*
X153535914Y-112882142D01*
X153607342Y-112810714D01*
X153607342Y-112953571D01*
X155750200Y-111453571D02*
X155893057Y-111453571D01*
X156035914Y-111525000D01*
X156107342Y-111596428D01*
X156178771Y-111739285D01*
X156250200Y-112025000D01*
X156250200Y-112382142D01*
X156178771Y-112667857D01*
X156107342Y-112810714D01*
X156035914Y-112882142D01*
X155893057Y-112953571D01*
X155750200Y-112953571D01*
X155607342Y-112882142D01*
X155535914Y-112810714D01*
X155464485Y-112667857D01*
X155393057Y-112382142D01*
X155393057Y-112025000D01*
X155464485Y-111739285D01*
X155535914Y-111596428D01*
X155607342Y-111525000D01*
X155750200Y-111453571D01*
X157535914Y-111453571D02*
X157250200Y-111453571D01*
X157107342Y-111525000D01*
X157035914Y-111596428D01*
X156893057Y-111810714D01*
X156821628Y-112096428D01*
X156821628Y-112667857D01*
X156893057Y-112810714D01*
X156964485Y-112882142D01*
X157107342Y-112953571D01*
X157393057Y-112953571D01*
X157535914Y-112882142D01*
X157607342Y-112810714D01*
X157678771Y-112667857D01*
X157678771Y-112310714D01*
X157607342Y-112167857D01*
X157535914Y-112096428D01*
X157393057Y-112025000D01*
X157107342Y-112025000D01*
X156964485Y-112096428D01*
X156893057Y-112167857D01*
X156821628Y-112310714D01*
X159393057Y-111382142D02*
X158107342Y-113310714D01*
X159821628Y-111596428D02*
X159893057Y-111525000D01*
X160035914Y-111453571D01*
X160393057Y-111453571D01*
X160535914Y-111525000D01*
X160607342Y-111596428D01*
X160678771Y-111739285D01*
X160678771Y-111882142D01*
X160607342Y-112096428D01*
X159750200Y-112953571D01*
X160678771Y-112953571D01*
X161607342Y-111453571D02*
X161750200Y-111453571D01*
X161893057Y-111525000D01*
X161964485Y-111596428D01*
X162035914Y-111739285D01*
X162107342Y-112025000D01*
X162107342Y-112382142D01*
X162035914Y-112667857D01*
X161964485Y-112810714D01*
X161893057Y-112882142D01*
X161750200Y-112953571D01*
X161607342Y-112953571D01*
X161464485Y-112882142D01*
X161393057Y-112810714D01*
X161321628Y-112667857D01*
X161250200Y-112382142D01*
X161250200Y-112025000D01*
X161321628Y-111739285D01*
X161393057Y-111596428D01*
X161464485Y-111525000D01*
X161607342Y-111453571D01*
X163535914Y-112953571D02*
X162678771Y-112953571D01*
X163107342Y-112953571D02*
X163107342Y-111453571D01*
X162964485Y-111667857D01*
X162821628Y-111810714D01*
X162678771Y-111882142D01*
X164035914Y-111453571D02*
X165035914Y-111453571D01*
X164393057Y-112953571D01*
X160131614Y-89248228D02*
X160203042Y-89319657D01*
X160274471Y-89533942D01*
X160274471Y-89676800D01*
X160203042Y-89891085D01*
X160060185Y-90033942D01*
X159917328Y-90105371D01*
X159631614Y-90176800D01*
X159417328Y-90176800D01*
X159131614Y-90105371D01*
X158988757Y-90033942D01*
X158845900Y-89891085D01*
X158774471Y-89676800D01*
X158774471Y-89533942D01*
X158845900Y-89319657D01*
X158917328Y-89248228D01*
X160274471Y-87962514D02*
X159488757Y-87962514D01*
X159345900Y-88033942D01*
X159274471Y-88176800D01*
X159274471Y-88462514D01*
X159345900Y-88605371D01*
X160203042Y-87962514D02*
X160274471Y-88105371D01*
X160274471Y-88462514D01*
X160203042Y-88605371D01*
X160060185Y-88676800D01*
X159917328Y-88676800D01*
X159774471Y-88605371D01*
X159703042Y-88462514D01*
X159703042Y-88105371D01*
X159631614Y-87962514D01*
X159274471Y-87248228D02*
X160774471Y-87248228D01*
X159345900Y-87248228D02*
X159274471Y-87105371D01*
X159274471Y-86819657D01*
X159345900Y-86676800D01*
X159417328Y-86605371D01*
X159560185Y-86533942D01*
X159988757Y-86533942D01*
X160131614Y-86605371D01*
X160203042Y-86676800D01*
X160274471Y-86819657D01*
X160274471Y-87105371D01*
X160203042Y-87248228D01*
X159703042Y-85891085D02*
X159703042Y-84748228D01*
X162753042Y-90426800D02*
X162824471Y-90212514D01*
X162824471Y-89855371D01*
X162753042Y-89712514D01*
X162681614Y-89641085D01*
X162538757Y-89569657D01*
X162395900Y-89569657D01*
X162253042Y-89641085D01*
X162181614Y-89712514D01*
X162110185Y-89855371D01*
X162038757Y-90141085D01*
X161967328Y-90283942D01*
X161895900Y-90355371D01*
X161753042Y-90426800D01*
X161610185Y-90426800D01*
X161467328Y-90355371D01*
X161395900Y-90283942D01*
X161324471Y-90141085D01*
X161324471Y-89783942D01*
X161395900Y-89569657D01*
X162753042Y-88355371D02*
X162824471Y-88498228D01*
X162824471Y-88783942D01*
X162753042Y-88926800D01*
X162610185Y-88998228D01*
X162038757Y-88998228D01*
X161895900Y-88926800D01*
X161824471Y-88783942D01*
X161824471Y-88498228D01*
X161895900Y-88355371D01*
X162038757Y-88283942D01*
X162181614Y-88283942D01*
X162324471Y-88998228D01*
X161824471Y-87641085D02*
X162824471Y-87641085D01*
X161967328Y-87641085D02*
X161895900Y-87569657D01*
X161824471Y-87426800D01*
X161824471Y-87212514D01*
X161895900Y-87069657D01*
X162038757Y-86998228D01*
X162824471Y-86998228D01*
X162753042Y-86355371D02*
X162824471Y-86212514D01*
X162824471Y-85926800D01*
X162753042Y-85783942D01*
X162610185Y-85712514D01*
X162538757Y-85712514D01*
X162395900Y-85783942D01*
X162324471Y-85926800D01*
X162324471Y-86141085D01*
X162253042Y-86283942D01*
X162110185Y-86355371D01*
X162038757Y-86355371D01*
X161895900Y-86283942D01*
X161824471Y-86141085D01*
X161824471Y-85926800D01*
X161895900Y-85783942D01*
X162753042Y-84498228D02*
X162824471Y-84641085D01*
X162824471Y-84926800D01*
X162753042Y-85069657D01*
X162610185Y-85141085D01*
X162038757Y-85141085D01*
X161895900Y-85069657D01*
X161824471Y-84926800D01*
X161824471Y-84641085D01*
X161895900Y-84498228D01*
X162038757Y-84426800D01*
X162181614Y-84426800D01*
X162324471Y-85141085D01*
X149895642Y-67668471D02*
X149967071Y-67454185D01*
X149967071Y-67097042D01*
X149895642Y-66954185D01*
X149824214Y-66882757D01*
X149681357Y-66811328D01*
X149538500Y-66811328D01*
X149395642Y-66882757D01*
X149324214Y-66954185D01*
X149252785Y-67097042D01*
X149181357Y-67382757D01*
X149109928Y-67525614D01*
X149038500Y-67597042D01*
X148895642Y-67668471D01*
X148752785Y-67668471D01*
X148609928Y-67597042D01*
X148538500Y-67525614D01*
X148467071Y-67382757D01*
X148467071Y-67025614D01*
X148538500Y-66811328D01*
X148467071Y-66382757D02*
X148467071Y-65525614D01*
X149967071Y-65954185D02*
X148467071Y-65954185D01*
X149181357Y-65025614D02*
X149181357Y-64525614D01*
X149967071Y-64311328D02*
X149967071Y-65025614D01*
X148467071Y-65025614D01*
X148467071Y-64311328D01*
X149967071Y-63668471D02*
X148467071Y-63668471D01*
X148467071Y-63097042D01*
X148538500Y-62954185D01*
X148609928Y-62882757D01*
X148752785Y-62811328D01*
X148967071Y-62811328D01*
X149109928Y-62882757D01*
X149181357Y-62954185D01*
X149252785Y-63097042D01*
X149252785Y-63668471D01*
X144633071Y-66003300D02*
X143133071Y-66003300D01*
X143133071Y-65646157D01*
X143204500Y-65431871D01*
X143347357Y-65289014D01*
X143490214Y-65217585D01*
X143775928Y-65146157D01*
X143990214Y-65146157D01*
X144275928Y-65217585D01*
X144418785Y-65289014D01*
X144561642Y-65431871D01*
X144633071Y-65646157D01*
X144633071Y-66003300D01*
X144633071Y-64503300D02*
X143133071Y-64503300D01*
X144633071Y-62931871D02*
X143918785Y-63431871D01*
X144633071Y-63789014D02*
X143133071Y-63789014D01*
X143133071Y-63217585D01*
X143204500Y-63074728D01*
X143275928Y-63003300D01*
X143418785Y-62931871D01*
X143633071Y-62931871D01*
X143775928Y-63003300D01*
X143847357Y-63074728D01*
X143918785Y-63217585D01*
X143918785Y-63789014D01*
X138424457Y-65369142D02*
X138424457Y-64869142D01*
X139210171Y-64654857D02*
X139210171Y-65369142D01*
X137710171Y-65369142D01*
X137710171Y-64654857D01*
X139210171Y-64012000D02*
X137710171Y-64012000D01*
X139210171Y-63154857D01*
X137710171Y-63154857D01*
X118057942Y-57803242D02*
X119200800Y-57803242D01*
X118629371Y-58374671D02*
X118629371Y-57231814D01*
X120700800Y-58374671D02*
X119843657Y-58374671D01*
X120272228Y-58374671D02*
X120272228Y-56874671D01*
X120129371Y-57088957D01*
X119986514Y-57231814D01*
X119843657Y-57303242D01*
X121272228Y-57017528D02*
X121343657Y-56946100D01*
X121486514Y-56874671D01*
X121843657Y-56874671D01*
X121986514Y-56946100D01*
X122057942Y-57017528D01*
X122129371Y-57160385D01*
X122129371Y-57303242D01*
X122057942Y-57517528D01*
X121200800Y-58374671D01*
X122129371Y-58374671D01*
X122557942Y-56874671D02*
X123057942Y-58374671D01*
X123557942Y-56874671D01*
X93327885Y-57904771D02*
X93327885Y-56404771D01*
X93899314Y-56404771D01*
X94042171Y-56476200D01*
X94113600Y-56547628D01*
X94185028Y-56690485D01*
X94185028Y-56904771D01*
X94113600Y-57047628D01*
X94042171Y-57119057D01*
X93899314Y-57190485D01*
X93327885Y-57190485D01*
X95470742Y-57904771D02*
X95470742Y-57119057D01*
X95399314Y-56976200D01*
X95256457Y-56904771D01*
X94970742Y-56904771D01*
X94827885Y-56976200D01*
X95470742Y-57833342D02*
X95327885Y-57904771D01*
X94970742Y-57904771D01*
X94827885Y-57833342D01*
X94756457Y-57690485D01*
X94756457Y-57547628D01*
X94827885Y-57404771D01*
X94970742Y-57333342D01*
X95327885Y-57333342D01*
X95470742Y-57261914D01*
X96185028Y-56904771D02*
X96185028Y-57904771D01*
X96185028Y-57047628D02*
X96256457Y-56976200D01*
X96399314Y-56904771D01*
X96613600Y-56904771D01*
X96756457Y-56976200D01*
X96827885Y-57119057D01*
X96827885Y-57904771D01*
X98113600Y-57833342D02*
X97970742Y-57904771D01*
X97685028Y-57904771D01*
X97542171Y-57833342D01*
X97470742Y-57690485D01*
X97470742Y-57119057D01*
X97542171Y-56976200D01*
X97685028Y-56904771D01*
X97970742Y-56904771D01*
X98113600Y-56976200D01*
X98185028Y-57119057D01*
X98185028Y-57261914D01*
X97470742Y-57404771D01*
X99042171Y-57904771D02*
X98899314Y-57833342D01*
X98827885Y-57690485D01*
X98827885Y-56404771D01*
X88619342Y-87940342D02*
X89762200Y-87940342D01*
X89190771Y-88511771D02*
X89190771Y-87368914D01*
X91262200Y-88511771D02*
X90405057Y-88511771D01*
X90833628Y-88511771D02*
X90833628Y-87011771D01*
X90690771Y-87226057D01*
X90547914Y-87368914D01*
X90405057Y-87440342D01*
X91833628Y-87154628D02*
X91905057Y-87083200D01*
X92047914Y-87011771D01*
X92405057Y-87011771D01*
X92547914Y-87083200D01*
X92619342Y-87154628D01*
X92690771Y-87297485D01*
X92690771Y-87440342D01*
X92619342Y-87654628D01*
X91762200Y-88511771D01*
X92690771Y-88511771D01*
X93119342Y-87011771D02*
X93619342Y-88511771D01*
X94119342Y-87011771D01*
X100255628Y-110978142D02*
X101398485Y-110978142D01*
X100827057Y-111549571D02*
X100827057Y-110406714D01*
X102827057Y-110049571D02*
X102112771Y-110049571D01*
X102041342Y-110763857D01*
X102112771Y-110692428D01*
X102255628Y-110621000D01*
X102612771Y-110621000D01*
X102755628Y-110692428D01*
X102827057Y-110763857D01*
X102898485Y-110906714D01*
X102898485Y-111263857D01*
X102827057Y-111406714D01*
X102755628Y-111478142D01*
X102612771Y-111549571D01*
X102255628Y-111549571D01*
X102112771Y-111478142D01*
X102041342Y-111406714D01*
X103327057Y-110049571D02*
X103827057Y-111549571D01*
X104327057Y-110049571D01*
X138569842Y-105693471D02*
X138569842Y-106764900D01*
X138498414Y-106979185D01*
X138355557Y-107122042D01*
X138141271Y-107193471D01*
X137998414Y-107193471D01*
X139498414Y-107193471D02*
X139355557Y-107122042D01*
X139284128Y-107050614D01*
X139212700Y-106907757D01*
X139212700Y-106479185D01*
X139284128Y-106336328D01*
X139355557Y-106264900D01*
X139498414Y-106193471D01*
X139712700Y-106193471D01*
X139855557Y-106264900D01*
X139926985Y-106336328D01*
X139998414Y-106479185D01*
X139998414Y-106907757D01*
X139926985Y-107050614D01*
X139855557Y-107122042D01*
X139712700Y-107193471D01*
X139498414Y-107193471D01*
X141284128Y-106193471D02*
X141284128Y-107407757D01*
X141212700Y-107550614D01*
X141141271Y-107622042D01*
X140998414Y-107693471D01*
X140784128Y-107693471D01*
X140641271Y-107622042D01*
X141284128Y-107122042D02*
X141141271Y-107193471D01*
X140855557Y-107193471D01*
X140712700Y-107122042D01*
X140641271Y-107050614D01*
X140569842Y-106907757D01*
X140569842Y-106479185D01*
X140641271Y-106336328D01*
X140712700Y-106264900D01*
X140855557Y-106193471D01*
X141141271Y-106193471D01*
X141284128Y-106264900D01*
X113821428Y-111892857D02*
X114321428Y-111892857D01*
X114535714Y-112678571D02*
X113821428Y-112678571D01*
X113821428Y-111178571D01*
X114535714Y-111178571D01*
X115178571Y-111678571D02*
X115178571Y-112678571D01*
X115178571Y-111821428D02*
X115250000Y-111750000D01*
X115392857Y-111678571D01*
X115607142Y-111678571D01*
X115750000Y-111750000D01*
X115821428Y-111892857D01*
X115821428Y-112678571D01*
X117178571Y-112678571D02*
X117178571Y-111178571D01*
X117178571Y-112607142D02*
X117035714Y-112678571D01*
X116750000Y-112678571D01*
X116607142Y-112607142D01*
X116535714Y-112535714D01*
X116464285Y-112392857D01*
X116464285Y-111964285D01*
X116535714Y-111821428D01*
X116607142Y-111750000D01*
X116750000Y-111678571D01*
X117035714Y-111678571D01*
X117178571Y-111750000D01*
X117821428Y-112607142D02*
X118035714Y-112678571D01*
X118392857Y-112678571D01*
X118535714Y-112607142D01*
X118607142Y-112535714D01*
X118678571Y-112392857D01*
X118678571Y-112250000D01*
X118607142Y-112107142D01*
X118535714Y-112035714D01*
X118392857Y-111964285D01*
X118107142Y-111892857D01*
X117964285Y-111821428D01*
X117892857Y-111750000D01*
X117821428Y-111607142D01*
X117821428Y-111464285D01*
X117892857Y-111321428D01*
X117964285Y-111250000D01*
X118107142Y-111178571D01*
X118464285Y-111178571D01*
X118678571Y-111250000D01*
X119107142Y-111678571D02*
X119678571Y-111678571D01*
X119321428Y-111178571D02*
X119321428Y-112464285D01*
X119392857Y-112607142D01*
X119535714Y-112678571D01*
X119678571Y-112678571D01*
X120392857Y-112678571D02*
X120250000Y-112607142D01*
X120178571Y-112535714D01*
X120107142Y-112392857D01*
X120107142Y-111964285D01*
X120178571Y-111821428D01*
X120250000Y-111750000D01*
X120392857Y-111678571D01*
X120607142Y-111678571D01*
X120750000Y-111750000D01*
X120821428Y-111821428D01*
X120892857Y-111964285D01*
X120892857Y-112392857D01*
X120821428Y-112535714D01*
X120750000Y-112607142D01*
X120607142Y-112678571D01*
X120392857Y-112678571D01*
X121535714Y-111678571D02*
X121535714Y-113178571D01*
X121535714Y-111750000D02*
X121678571Y-111678571D01*
X121964285Y-111678571D01*
X122107142Y-111750000D01*
X122178571Y-111821428D01*
X122250000Y-111964285D01*
X122250000Y-112392857D01*
X122178571Y-112535714D01*
X122107142Y-112607142D01*
X121964285Y-112678571D01*
X121678571Y-112678571D01*
X121535714Y-112607142D01*
X176545014Y-71713657D02*
X176616442Y-71785085D01*
X176687871Y-71999371D01*
X176687871Y-72142228D01*
X176616442Y-72356514D01*
X176473585Y-72499371D01*
X176330728Y-72570800D01*
X176045014Y-72642228D01*
X175830728Y-72642228D01*
X175545014Y-72570800D01*
X175402157Y-72499371D01*
X175259300Y-72356514D01*
X175187871Y-72142228D01*
X175187871Y-71999371D01*
X175259300Y-71785085D01*
X175330728Y-71713657D01*
X176545014Y-70213657D02*
X176616442Y-70285085D01*
X176687871Y-70499371D01*
X176687871Y-70642228D01*
X176616442Y-70856514D01*
X176473585Y-70999371D01*
X176330728Y-71070800D01*
X176045014Y-71142228D01*
X175830728Y-71142228D01*
X175545014Y-71070800D01*
X175402157Y-70999371D01*
X175259300Y-70856514D01*
X175187871Y-70642228D01*
X175187871Y-70499371D01*
X175259300Y-70285085D01*
X175330728Y-70213657D01*
X175902157Y-67927942D02*
X175973585Y-67713657D01*
X176045014Y-67642228D01*
X176187871Y-67570800D01*
X176402157Y-67570800D01*
X176545014Y-67642228D01*
X176616442Y-67713657D01*
X176687871Y-67856514D01*
X176687871Y-68427942D01*
X175187871Y-68427942D01*
X175187871Y-67927942D01*
X175259300Y-67785085D01*
X175330728Y-67713657D01*
X175473585Y-67642228D01*
X175616442Y-67642228D01*
X175759300Y-67713657D01*
X175830728Y-67785085D01*
X175902157Y-67927942D01*
X175902157Y-68427942D01*
X175973585Y-66642228D02*
X176687871Y-66642228D01*
X175187871Y-67142228D02*
X175973585Y-66642228D01*
X175187871Y-66142228D01*
X176116442Y-65642228D02*
X176116442Y-64499371D01*
X176616442Y-63856514D02*
X176687871Y-63642228D01*
X176687871Y-63285085D01*
X176616442Y-63142228D01*
X176545014Y-63070800D01*
X176402157Y-62999371D01*
X176259300Y-62999371D01*
X176116442Y-63070800D01*
X176045014Y-63142228D01*
X175973585Y-63285085D01*
X175902157Y-63570800D01*
X175830728Y-63713657D01*
X175759300Y-63785085D01*
X175616442Y-63856514D01*
X175473585Y-63856514D01*
X175330728Y-63785085D01*
X175259300Y-63713657D01*
X175187871Y-63570800D01*
X175187871Y-63213657D01*
X175259300Y-62999371D01*
X176259300Y-62427942D02*
X176259300Y-61713657D01*
X176687871Y-62570800D02*
X175187871Y-62070800D01*
X176687871Y-61570800D01*
X175687871Y-59285085D02*
X176687871Y-59285085D01*
X175116442Y-59642228D02*
X176187871Y-59999371D01*
X176187871Y-59070800D01*
X176545014Y-58499371D02*
X176616442Y-58427942D01*
X176687871Y-58499371D01*
X176616442Y-58570800D01*
X176545014Y-58499371D01*
X176687871Y-58499371D01*
X175187871Y-57499371D02*
X175187871Y-57356514D01*
X175259300Y-57213657D01*
X175330728Y-57142228D01*
X175473585Y-57070800D01*
X175759300Y-56999371D01*
X176116442Y-56999371D01*
X176402157Y-57070800D01*
X176545014Y-57142228D01*
X176616442Y-57213657D01*
X176687871Y-57356514D01*
X176687871Y-57499371D01*
X176616442Y-57642228D01*
X176545014Y-57713657D01*
X176402157Y-57785085D01*
X176116442Y-57856514D01*
X175759300Y-57856514D01*
X175473585Y-57785085D01*
X175330728Y-57713657D01*
X175259300Y-57642228D01*
X175187871Y-57499371D01*
D12*
X112286000Y-63000000D02*
G75*
G03X112286000Y-63000000I-2286000J0D01*
G01*
X95948500Y-81851500D02*
G75*
G03X95948500Y-81851500I-2286000J0D01*
G01*
X110693200Y-105321100D02*
G75*
G03X110693200Y-105321100I-2286000J0D01*
G01*
X172286000Y-110000000D02*
G75*
G03X172286000Y-110000000I-2286000J0D01*
G01*
D13*
X124200920Y-56399040D02*
X129799080Y-56399040D01*
X129600960Y-55901200D02*
X129600960Y-56399040D01*
X124399040Y-56399040D02*
X124399040Y-55901200D01*
X127000000Y-55901200D02*
X127000000Y-56399040D01*
X129799080Y-61700020D02*
X124200920Y-61700020D01*
X129799080Y-55901200D02*
X124200920Y-55901200D01*
X124200920Y-55901200D02*
X124200920Y-62098800D01*
X124200920Y-62098800D02*
X129799080Y-62098800D01*
X129799080Y-62098800D02*
X129799080Y-55901200D01*
D14*
X140106400Y-70561200D02*
X139293600Y-70561200D01*
X139319000Y-71678800D02*
X140106400Y-71678800D01*
X139293600Y-71932800D02*
X139293600Y-70307200D01*
X139293600Y-70307200D02*
X140106400Y-70307200D01*
X140106400Y-70307200D02*
X140106400Y-71932800D01*
X140106400Y-71932800D02*
X139293600Y-71932800D01*
X140106400Y-75641200D02*
X139293600Y-75641200D01*
X139319000Y-76758800D02*
X140106400Y-76758800D01*
X139293600Y-77012800D02*
X139293600Y-75387200D01*
X139293600Y-75387200D02*
X140106400Y-75387200D01*
X140106400Y-75387200D02*
X140106400Y-77012800D01*
X140106400Y-77012800D02*
X139293600Y-77012800D01*
X140106400Y-80721200D02*
X139293600Y-80721200D01*
X139319000Y-81838800D02*
X140106400Y-81838800D01*
X139293600Y-82092800D02*
X139293600Y-80467200D01*
X139293600Y-80467200D02*
X140106400Y-80467200D01*
X140106400Y-80467200D02*
X140106400Y-82092800D01*
X140106400Y-82092800D02*
X139293600Y-82092800D01*
X151536400Y-84531200D02*
X150723600Y-84531200D01*
X150749000Y-85648800D02*
X151536400Y-85648800D01*
X150723600Y-85902800D02*
X150723600Y-84277200D01*
X150723600Y-84277200D02*
X151536400Y-84277200D01*
X151536400Y-84277200D02*
X151536400Y-85902800D01*
X151536400Y-85902800D02*
X150723600Y-85902800D01*
X155346400Y-97231200D02*
X154533600Y-97231200D01*
X154559000Y-98348800D02*
X155346400Y-98348800D01*
X154533600Y-98602800D02*
X154533600Y-96977200D01*
X154533600Y-96977200D02*
X155346400Y-96977200D01*
X155346400Y-96977200D02*
X155346400Y-98602800D01*
X155346400Y-98602800D02*
X154533600Y-98602800D01*
X155346400Y-104851200D02*
X154533600Y-104851200D01*
X154559000Y-105968800D02*
X155346400Y-105968800D01*
X154533600Y-106222800D02*
X154533600Y-104597200D01*
X154533600Y-104597200D02*
X155346400Y-104597200D01*
X155346400Y-104597200D02*
X155346400Y-106222800D01*
X155346400Y-106222800D02*
X154533600Y-106222800D01*
X165506400Y-97231200D02*
X164693600Y-97231200D01*
X164719000Y-98348800D02*
X165506400Y-98348800D01*
X164693600Y-98602800D02*
X164693600Y-96977200D01*
X164693600Y-96977200D02*
X165506400Y-96977200D01*
X165506400Y-96977200D02*
X165506400Y-98602800D01*
X165506400Y-98602800D02*
X164693600Y-98602800D01*
X165506400Y-104851200D02*
X164693600Y-104851200D01*
X164719000Y-105968800D02*
X165506400Y-105968800D01*
X164693600Y-106222800D02*
X164693600Y-104597200D01*
X164693600Y-104597200D02*
X165506400Y-104597200D01*
X165506400Y-104597200D02*
X165506400Y-106222800D01*
X165506400Y-106222800D02*
X164693600Y-106222800D01*
X154139900Y-72019160D02*
X155740100Y-72019160D01*
X155740100Y-72120760D02*
X154139900Y-72120760D01*
X155740100Y-69720460D02*
X155740100Y-72519540D01*
X155740100Y-72519540D02*
X154139900Y-72519540D01*
X154139900Y-72519540D02*
X154139900Y-69720460D01*
X154139900Y-69720460D02*
X155740100Y-69720460D01*
X142709900Y-96149160D02*
X144310100Y-96149160D01*
X144310100Y-96250760D02*
X142709900Y-96250760D01*
X144310100Y-93850460D02*
X144310100Y-96649540D01*
X144310100Y-96649540D02*
X142709900Y-96649540D01*
X142709900Y-96649540D02*
X142709900Y-93850460D01*
X142709900Y-93850460D02*
X144310100Y-93850460D01*
X142709900Y-105039160D02*
X144310100Y-105039160D01*
X144310100Y-105140760D02*
X142709900Y-105140760D01*
X144310100Y-102740460D02*
X144310100Y-105539540D01*
X144310100Y-105539540D02*
X142709900Y-105539540D01*
X142709900Y-105539540D02*
X142709900Y-102740460D01*
X142709900Y-102740460D02*
X144310100Y-102740460D01*
X150329900Y-92339160D02*
X151930100Y-92339160D01*
X151930100Y-92440760D02*
X150329900Y-92440760D01*
X151930100Y-90040460D02*
X151930100Y-92839540D01*
X151930100Y-92839540D02*
X150329900Y-92839540D01*
X150329900Y-92839540D02*
X150329900Y-90040460D01*
X150329900Y-90040460D02*
X151930100Y-90040460D01*
X150329900Y-101229160D02*
X151930100Y-101229160D01*
X151930100Y-101330760D02*
X150329900Y-101330760D01*
X151930100Y-98930460D02*
X151930100Y-101729540D01*
X151930100Y-101729540D02*
X150329900Y-101729540D01*
X150329900Y-101729540D02*
X150329900Y-98930460D01*
X150329900Y-98930460D02*
X151930100Y-98930460D01*
D15*
X127000000Y-72390000D02*
X127000000Y-80010000D01*
X129540000Y-72390000D02*
X129540000Y-80010000D01*
X129820000Y-69570000D02*
X129820000Y-71120000D01*
X127000000Y-80010000D02*
X129540000Y-80010000D01*
X129540000Y-72390000D02*
X127000000Y-72390000D01*
X126720000Y-71120000D02*
X126720000Y-69570000D01*
X126720000Y-69570000D02*
X129820000Y-69570000D01*
D14*
X135178800Y-76606400D02*
X135178800Y-75793600D01*
X134061200Y-75819000D02*
X134061200Y-76606400D01*
X133807200Y-75793600D02*
X135432800Y-75793600D01*
X135432800Y-75793600D02*
X135432800Y-76606400D01*
X135432800Y-76606400D02*
X133807200Y-76606400D01*
X133807200Y-76606400D02*
X133807200Y-75793600D01*
X135178800Y-81686400D02*
X135178800Y-80873600D01*
X134061200Y-80899000D02*
X134061200Y-81686400D01*
X133807200Y-80873600D02*
X135432800Y-80873600D01*
X135432800Y-80873600D02*
X135432800Y-81686400D01*
X135432800Y-81686400D02*
X133807200Y-81686400D01*
X133807200Y-81686400D02*
X133807200Y-80873600D01*
X135178800Y-71526400D02*
X135178800Y-70713600D01*
X134061200Y-70739000D02*
X134061200Y-71526400D01*
X133807200Y-70713600D02*
X135432800Y-70713600D01*
X135432800Y-70713600D02*
X135432800Y-71526400D01*
X135432800Y-71526400D02*
X133807200Y-71526400D01*
X133807200Y-71526400D02*
X133807200Y-70713600D01*
X160578800Y-96926400D02*
X160578800Y-96113600D01*
X159461200Y-96139000D02*
X159461200Y-96926400D01*
X159207200Y-96113600D02*
X160832800Y-96113600D01*
X160832800Y-96113600D02*
X160832800Y-96926400D01*
X160832800Y-96926400D02*
X159207200Y-96926400D01*
X159207200Y-96926400D02*
X159207200Y-96113600D01*
X160578800Y-104546400D02*
X160578800Y-103733600D01*
X159461200Y-103759000D02*
X159461200Y-104546400D01*
X159207200Y-103733600D02*
X160832800Y-103733600D01*
X160832800Y-103733600D02*
X160832800Y-104546400D01*
X160832800Y-104546400D02*
X159207200Y-104546400D01*
X159207200Y-104546400D02*
X159207200Y-103733600D01*
X170738800Y-96926400D02*
X170738800Y-96113600D01*
X169621200Y-96139000D02*
X169621200Y-96926400D01*
X169367200Y-96113600D02*
X170992800Y-96113600D01*
X170992800Y-96113600D02*
X170992800Y-96926400D01*
X170992800Y-96926400D02*
X169367200Y-96926400D01*
X169367200Y-96926400D02*
X169367200Y-96113600D01*
X170738800Y-102006400D02*
X170738800Y-101193600D01*
X169621200Y-101219000D02*
X169621200Y-102006400D01*
X169367200Y-101193600D02*
X170992800Y-101193600D01*
X170992800Y-101193600D02*
X170992800Y-102006400D01*
X170992800Y-102006400D02*
X169367200Y-102006400D01*
X169367200Y-102006400D02*
X169367200Y-101193600D01*
X145186400Y-70561200D02*
X144373600Y-70561200D01*
X144399000Y-71678800D02*
X145186400Y-71678800D01*
X144373600Y-71932800D02*
X144373600Y-70307200D01*
X144373600Y-70307200D02*
X145186400Y-70307200D01*
X145186400Y-70307200D02*
X145186400Y-71932800D01*
X145186400Y-71932800D02*
X144373600Y-71932800D01*
X150266400Y-70561200D02*
X149453600Y-70561200D01*
X149479000Y-71678800D02*
X150266400Y-71678800D01*
X149453600Y-71932800D02*
X149453600Y-70307200D01*
X149453600Y-70307200D02*
X150266400Y-70307200D01*
X150266400Y-70307200D02*
X150266400Y-71932800D01*
X150266400Y-71932800D02*
X149453600Y-71932800D01*
X138459981Y-86995000D02*
G75*
G03X138459981Y-86995000I-283981J0D01*
G01*
X141986000Y-91440000D02*
X141986000Y-86360000D01*
X141986000Y-86360000D02*
X137414000Y-86360000D01*
X137414000Y-86360000D02*
X137414000Y-91440000D01*
X137414000Y-91440000D02*
X141986000Y-91440000D01*
D16*
X116350000Y-62140000D02*
X116350000Y-105320000D01*
X116350000Y-105320000D02*
X103650000Y-105320000D01*
X103650000Y-105320000D02*
X103650000Y-62140000D01*
X103650000Y-62140000D02*
X116350000Y-62140000D01*
X108730000Y-62140000D02*
X108730000Y-63410000D01*
X108730000Y-63410000D02*
X111270000Y-63410000D01*
X111270000Y-63410000D02*
X111270000Y-62140000D01*
D17*
X99700000Y-76400000D02*
X99700000Y-55600000D01*
X90300000Y-55600000D02*
X90300000Y-76400000D01*
X90300000Y-76400000D02*
X99700000Y-76400000D01*
X90300000Y-55600000D02*
X99700000Y-55600000D01*
D18*
X99700000Y-63700000D02*
X98300000Y-63700000D01*
X98300000Y-63700000D02*
X98300000Y-68300000D01*
X98300000Y-68300000D02*
X99700000Y-68300000D01*
D11*
X179200000Y-87400000D02*
X178500000Y-74600000D01*
X183200000Y-87400000D02*
X182500000Y-74600000D01*
X182200000Y-87400000D02*
X181500000Y-74600000D01*
X180200000Y-87400000D02*
X179500000Y-74600000D01*
X181200000Y-87400000D02*
X180500000Y-74600000D01*
X185200000Y-87400000D02*
X184500000Y-74600000D01*
X184200000Y-87400000D02*
X183500000Y-74600000D01*
X186200000Y-87400000D02*
X185500000Y-74600000D01*
X187200000Y-87400000D02*
X186500000Y-74600000D01*
X187200000Y-74600000D02*
X178000000Y-74600000D01*
X187200000Y-87400000D02*
X178000000Y-87400000D01*
X199200000Y-76200000D02*
X187200000Y-76200000D01*
X199200000Y-85800000D02*
X187200000Y-85800000D01*
X199200000Y-85800000D02*
X199200000Y-76200000D01*
X187200000Y-87400000D02*
X187200000Y-74600000D01*
X178000000Y-73600000D02*
X164300000Y-73600000D01*
X164300000Y-88400000D02*
X178000000Y-88400000D01*
X164300000Y-88400000D02*
X164300000Y-73600000D01*
X178000000Y-88400000D02*
X178000000Y-73600000D01*
D13*
X134830600Y-62098800D02*
X150629400Y-62098800D01*
X134830600Y-61700020D02*
X150629400Y-61700020D01*
X150629400Y-55901200D02*
X134830600Y-55901200D01*
X134830600Y-56399040D02*
X150629400Y-56399040D01*
X137629680Y-56399040D02*
X137629680Y-55901200D01*
X140230640Y-56399040D02*
X140230640Y-55901200D01*
X142732540Y-56399040D02*
X142732540Y-55901200D01*
X145229360Y-56399040D02*
X145229360Y-55901200D01*
X150426200Y-55901200D02*
X150426200Y-56399040D01*
X135033800Y-56399040D02*
X135033800Y-55901200D01*
X147827780Y-55901200D02*
X147827780Y-56399040D01*
X134835680Y-55901200D02*
X134835680Y-62098800D01*
X150624320Y-62098800D02*
X150624320Y-55901200D01*
X140030980Y-107901200D02*
X129429020Y-107901200D01*
X129429020Y-108299980D02*
X140030980Y-108299980D01*
X129429020Y-113600960D02*
X140030980Y-113600960D01*
X140030980Y-114098800D02*
X129429020Y-114098800D01*
X137226820Y-113600960D02*
X137226820Y-114098800D01*
X134730000Y-113600960D02*
X134730000Y-114098800D01*
X129632220Y-114098800D02*
X129632220Y-113600960D01*
X139830320Y-113600960D02*
X139830320Y-114098800D01*
X132233180Y-114098800D02*
X132233180Y-113600960D01*
X140028440Y-114098800D02*
X140028440Y-107901200D01*
X129434100Y-107901200D02*
X129434100Y-114098800D01*
D11*
X91800000Y-111000000D02*
X93500000Y-112700000D01*
X91800000Y-93000000D02*
X93500000Y-91300000D01*
X91800000Y-93000000D02*
X91800000Y-111000000D01*
X98200000Y-91300000D02*
X98200000Y-112700000D01*
X90800000Y-111500000D02*
X93000000Y-113700000D01*
X90800000Y-92500000D02*
X93000000Y-90300000D01*
X90800000Y-92500000D02*
X90800000Y-111500000D01*
X98200000Y-112700000D02*
X93500000Y-112700000D01*
X98200000Y-91300000D02*
X93500000Y-91300000D01*
X99200000Y-90300000D02*
X99200000Y-113700000D01*
X99200000Y-90300000D02*
X93000000Y-90300000D01*
X99200000Y-113700000D02*
X93000000Y-113700000D01*
D15*
X119270000Y-107730000D02*
X114190000Y-107730000D01*
X114190000Y-107730000D02*
X114190000Y-110270000D01*
X114190000Y-110270000D02*
X119270000Y-110270000D01*
X122090000Y-110550000D02*
X120540000Y-110550000D01*
X119270000Y-110270000D02*
X119270000Y-107730000D01*
X120540000Y-107450000D02*
X122090000Y-107450000D01*
X122090000Y-107450000D02*
X122090000Y-110550000D01*
D12*
X172286000Y-60000000D02*
G75*
G03X172286000Y-60000000I-2286000J0D01*
G01*
D19*
G36*
X159219909Y-68909560D02*
X159272412Y-68935499D01*
X159337158Y-68980700D01*
X159384347Y-69029991D01*
X159416665Y-69091885D01*
X159436797Y-69174896D01*
X159447430Y-69287538D01*
X159451247Y-69438324D01*
X159451470Y-69503149D01*
X159450818Y-69645221D01*
X159448112Y-69746757D01*
X159442224Y-69817015D01*
X159432027Y-69865256D01*
X159416394Y-69900738D01*
X159400128Y-69924943D01*
X159296295Y-70027929D01*
X159174021Y-70089874D01*
X159042114Y-70108506D01*
X158909384Y-70081549D01*
X158867333Y-70062486D01*
X158766666Y-70010015D01*
X158766666Y-70832259D01*
X158840135Y-70794267D01*
X158936941Y-70764872D01*
X159055928Y-70757342D01*
X159174745Y-70771245D01*
X159264473Y-70802476D01*
X159338899Y-70861954D01*
X159402490Y-70947066D01*
X159407271Y-70955805D01*
X159427437Y-70996966D01*
X159442165Y-71038454D01*
X159452303Y-71088713D01*
X159458699Y-71156184D01*
X159462201Y-71249309D01*
X159463658Y-71376531D01*
X159463921Y-71519701D01*
X159463921Y-71976471D01*
X159190000Y-71976471D01*
X159190000Y-71134231D01*
X159113383Y-71069763D01*
X159033793Y-71018194D01*
X158958422Y-71008818D01*
X158882633Y-71032947D01*
X158842241Y-71056574D01*
X158812179Y-71090227D01*
X158790797Y-71141087D01*
X158776450Y-71216334D01*
X158767490Y-71323146D01*
X158762270Y-71468704D01*
X158760431Y-71565588D01*
X158754215Y-71964020D01*
X158623480Y-71971547D01*
X158492745Y-71979073D01*
X158492745Y-69506582D01*
X158766666Y-69506582D01*
X158773650Y-69644423D01*
X158797182Y-69740107D01*
X158841135Y-69799641D01*
X158909382Y-69829029D01*
X158978333Y-69834902D01*
X159056386Y-69828154D01*
X159108189Y-69801594D01*
X159140583Y-69766499D01*
X159166084Y-69728752D01*
X159181265Y-69686700D01*
X159188019Y-69627779D01*
X159188241Y-69539428D01*
X159185968Y-69465448D01*
X159180749Y-69354000D01*
X159172979Y-69280833D01*
X159159895Y-69234422D01*
X159138732Y-69203244D01*
X159118760Y-69185223D01*
X159035314Y-69145925D01*
X158936551Y-69139579D01*
X158879841Y-69153116D01*
X158823692Y-69201233D01*
X158786499Y-69294833D01*
X158768472Y-69433254D01*
X158766666Y-69506582D01*
X158492745Y-69506582D01*
X158492745Y-68888628D01*
X158629705Y-68888628D01*
X158711935Y-68891879D01*
X158754360Y-68903426D01*
X158766661Y-68925952D01*
X158766666Y-68926620D01*
X158772374Y-68948681D01*
X158797547Y-68946176D01*
X158847598Y-68921935D01*
X158964219Y-68884851D01*
X159095429Y-68880953D01*
X159219909Y-68909560D01*
X159219909Y-68909560D01*
G37*
X159219909Y-68909560D02*
X159272412Y-68935499D01*
X159337158Y-68980700D01*
X159384347Y-69029991D01*
X159416665Y-69091885D01*
X159436797Y-69174896D01*
X159447430Y-69287538D01*
X159451247Y-69438324D01*
X159451470Y-69503149D01*
X159450818Y-69645221D01*
X159448112Y-69746757D01*
X159442224Y-69817015D01*
X159432027Y-69865256D01*
X159416394Y-69900738D01*
X159400128Y-69924943D01*
X159296295Y-70027929D01*
X159174021Y-70089874D01*
X159042114Y-70108506D01*
X158909384Y-70081549D01*
X158867333Y-70062486D01*
X158766666Y-70010015D01*
X158766666Y-70832259D01*
X158840135Y-70794267D01*
X158936941Y-70764872D01*
X159055928Y-70757342D01*
X159174745Y-70771245D01*
X159264473Y-70802476D01*
X159338899Y-70861954D01*
X159402490Y-70947066D01*
X159407271Y-70955805D01*
X159427437Y-70996966D01*
X159442165Y-71038454D01*
X159452303Y-71088713D01*
X159458699Y-71156184D01*
X159462201Y-71249309D01*
X159463658Y-71376531D01*
X159463921Y-71519701D01*
X159463921Y-71976471D01*
X159190000Y-71976471D01*
X159190000Y-71134231D01*
X159113383Y-71069763D01*
X159033793Y-71018194D01*
X158958422Y-71008818D01*
X158882633Y-71032947D01*
X158842241Y-71056574D01*
X158812179Y-71090227D01*
X158790797Y-71141087D01*
X158776450Y-71216334D01*
X158767490Y-71323146D01*
X158762270Y-71468704D01*
X158760431Y-71565588D01*
X158754215Y-71964020D01*
X158623480Y-71971547D01*
X158492745Y-71979073D01*
X158492745Y-69506582D01*
X158766666Y-69506582D01*
X158773650Y-69644423D01*
X158797182Y-69740107D01*
X158841135Y-69799641D01*
X158909382Y-69829029D01*
X158978333Y-69834902D01*
X159056386Y-69828154D01*
X159108189Y-69801594D01*
X159140583Y-69766499D01*
X159166084Y-69728752D01*
X159181265Y-69686700D01*
X159188019Y-69627779D01*
X159188241Y-69539428D01*
X159185968Y-69465448D01*
X159180749Y-69354000D01*
X159172979Y-69280833D01*
X159159895Y-69234422D01*
X159138732Y-69203244D01*
X159118760Y-69185223D01*
X159035314Y-69145925D01*
X158936551Y-69139579D01*
X158879841Y-69153116D01*
X158823692Y-69201233D01*
X158786499Y-69294833D01*
X158768472Y-69433254D01*
X158766666Y-69506582D01*
X158492745Y-69506582D01*
X158492745Y-68888628D01*
X158629705Y-68888628D01*
X158711935Y-68891879D01*
X158754360Y-68903426D01*
X158766661Y-68925952D01*
X158766666Y-68926620D01*
X158772374Y-68948681D01*
X158797547Y-68946176D01*
X158847598Y-68921935D01*
X158964219Y-68884851D01*
X159095429Y-68880953D01*
X159219909Y-68909560D01*
G36*
X160258720Y-70765922D02*
X160375870Y-70797180D01*
X160465051Y-70853837D01*
X160527984Y-70928045D01*
X160547548Y-70959716D01*
X160561992Y-70992891D01*
X160572089Y-71035329D01*
X160578615Y-71094788D01*
X160582342Y-71179029D01*
X160584046Y-71295810D01*
X160584500Y-71452890D01*
X160584509Y-71494565D01*
X160584509Y-71976471D01*
X160464980Y-71976471D01*
X160388739Y-71971131D01*
X160332366Y-71957604D01*
X160318242Y-71949262D01*
X160279630Y-71934864D01*
X160240192Y-71949262D01*
X160175262Y-71967237D01*
X160080945Y-71974472D01*
X159976407Y-71971333D01*
X159880811Y-71958186D01*
X159825000Y-71941318D01*
X159716998Y-71871986D01*
X159649503Y-71775772D01*
X159619159Y-71647844D01*
X159618877Y-71644559D01*
X159621540Y-71587808D01*
X159862353Y-71587808D01*
X159883405Y-71652358D01*
X159917697Y-71688686D01*
X159986532Y-71716162D01*
X160077390Y-71727129D01*
X160170042Y-71721731D01*
X160244256Y-71700110D01*
X160265049Y-71686239D01*
X160301381Y-71622143D01*
X160310588Y-71549278D01*
X160310588Y-71453530D01*
X160172827Y-71453530D01*
X160041953Y-71463605D01*
X159942741Y-71492148D01*
X159881023Y-71536639D01*
X159862353Y-71587808D01*
X159621540Y-71587808D01*
X159625436Y-71504790D01*
X159671534Y-71394282D01*
X159758200Y-71310712D01*
X159770179Y-71303110D01*
X159821655Y-71278357D01*
X159885368Y-71263368D01*
X159974435Y-71256082D01*
X160080245Y-71254407D01*
X160310588Y-71254314D01*
X160310588Y-71157755D01*
X160300817Y-71082836D01*
X160275884Y-71032644D01*
X160272965Y-71029972D01*
X160217481Y-71008015D01*
X160133727Y-70999505D01*
X160041167Y-71003687D01*
X159959270Y-71019809D01*
X159910673Y-71043990D01*
X159884341Y-71063359D01*
X159856535Y-71067057D01*
X159818161Y-71051188D01*
X159760125Y-71011855D01*
X159673331Y-70945164D01*
X159665365Y-70938916D01*
X159669447Y-70915800D01*
X159703501Y-70877352D01*
X159755260Y-70834627D01*
X159812455Y-70798679D01*
X159830425Y-70790191D01*
X159895972Y-70773252D01*
X159992020Y-70761170D01*
X160099329Y-70756323D01*
X160104347Y-70756313D01*
X160258720Y-70765922D01*
X160258720Y-70765922D01*
G37*
X160258720Y-70765922D02*
X160375870Y-70797180D01*
X160465051Y-70853837D01*
X160527984Y-70928045D01*
X160547548Y-70959716D01*
X160561992Y-70992891D01*
X160572089Y-71035329D01*
X160578615Y-71094788D01*
X160582342Y-71179029D01*
X160584046Y-71295810D01*
X160584500Y-71452890D01*
X160584509Y-71494565D01*
X160584509Y-71976471D01*
X160464980Y-71976471D01*
X160388739Y-71971131D01*
X160332366Y-71957604D01*
X160318242Y-71949262D01*
X160279630Y-71934864D01*
X160240192Y-71949262D01*
X160175262Y-71967237D01*
X160080945Y-71974472D01*
X159976407Y-71971333D01*
X159880811Y-71958186D01*
X159825000Y-71941318D01*
X159716998Y-71871986D01*
X159649503Y-71775772D01*
X159619159Y-71647844D01*
X159618877Y-71644559D01*
X159621540Y-71587808D01*
X159862353Y-71587808D01*
X159883405Y-71652358D01*
X159917697Y-71688686D01*
X159986532Y-71716162D01*
X160077390Y-71727129D01*
X160170042Y-71721731D01*
X160244256Y-71700110D01*
X160265049Y-71686239D01*
X160301381Y-71622143D01*
X160310588Y-71549278D01*
X160310588Y-71453530D01*
X160172827Y-71453530D01*
X160041953Y-71463605D01*
X159942741Y-71492148D01*
X159881023Y-71536639D01*
X159862353Y-71587808D01*
X159621540Y-71587808D01*
X159625436Y-71504790D01*
X159671534Y-71394282D01*
X159758200Y-71310712D01*
X159770179Y-71303110D01*
X159821655Y-71278357D01*
X159885368Y-71263368D01*
X159974435Y-71256082D01*
X160080245Y-71254407D01*
X160310588Y-71254314D01*
X160310588Y-71157755D01*
X160300817Y-71082836D01*
X160275884Y-71032644D01*
X160272965Y-71029972D01*
X160217481Y-71008015D01*
X160133727Y-70999505D01*
X160041167Y-71003687D01*
X159959270Y-71019809D01*
X159910673Y-71043990D01*
X159884341Y-71063359D01*
X159856535Y-71067057D01*
X159818161Y-71051188D01*
X159760125Y-71011855D01*
X159673331Y-70945164D01*
X159665365Y-70938916D01*
X159669447Y-70915800D01*
X159703501Y-70877352D01*
X159755260Y-70834627D01*
X159812455Y-70798679D01*
X159830425Y-70790191D01*
X159895972Y-70773252D01*
X159992020Y-70761170D01*
X160099329Y-70756323D01*
X160104347Y-70756313D01*
X160258720Y-70765922D01*
G36*
X161032764Y-70758921D02*
X161070030Y-70770091D01*
X161082043Y-70794633D01*
X161082549Y-70805712D01*
X161084704Y-70836572D01*
X161099551Y-70841417D01*
X161139657Y-70820260D01*
X161163480Y-70805806D01*
X161238638Y-70774850D01*
X161328406Y-70759544D01*
X161422529Y-70758367D01*
X161510754Y-70769799D01*
X161582826Y-70792320D01*
X161628492Y-70824409D01*
X161637498Y-70864545D01*
X161632953Y-70875415D01*
X161599821Y-70920534D01*
X161548445Y-70976026D01*
X161539152Y-70984996D01*
X161490182Y-71026245D01*
X161447931Y-71039572D01*
X161388841Y-71030271D01*
X161365169Y-71024090D01*
X161291504Y-71009246D01*
X161239710Y-71015921D01*
X161195969Y-71039465D01*
X161155902Y-71071061D01*
X161126392Y-71110798D01*
X161105884Y-71166252D01*
X161092824Y-71245003D01*
X161085656Y-71354629D01*
X161082824Y-71502706D01*
X161082549Y-71592111D01*
X161082549Y-71976471D01*
X160833529Y-71976471D01*
X160833529Y-70756275D01*
X160958039Y-70756275D01*
X161032764Y-70758921D01*
X161032764Y-70758921D01*
G37*
X161032764Y-70758921D02*
X161070030Y-70770091D01*
X161082043Y-70794633D01*
X161082549Y-70805712D01*
X161084704Y-70836572D01*
X161099551Y-70841417D01*
X161139657Y-70820260D01*
X161163480Y-70805806D01*
X161238638Y-70774850D01*
X161328406Y-70759544D01*
X161422529Y-70758367D01*
X161510754Y-70769799D01*
X161582826Y-70792320D01*
X161628492Y-70824409D01*
X161637498Y-70864545D01*
X161632953Y-70875415D01*
X161599821Y-70920534D01*
X161548445Y-70976026D01*
X161539152Y-70984996D01*
X161490182Y-71026245D01*
X161447931Y-71039572D01*
X161388841Y-71030271D01*
X161365169Y-71024090D01*
X161291504Y-71009246D01*
X161239710Y-71015921D01*
X161195969Y-71039465D01*
X161155902Y-71071061D01*
X161126392Y-71110798D01*
X161105884Y-71166252D01*
X161092824Y-71245003D01*
X161085656Y-71354629D01*
X161082824Y-71502706D01*
X161082549Y-71592111D01*
X161082549Y-71976471D01*
X160833529Y-71976471D01*
X160833529Y-70756275D01*
X160958039Y-70756275D01*
X161032764Y-70758921D01*
G36*
X162601568Y-71976471D02*
X162464607Y-71976471D01*
X162385111Y-71974140D01*
X162343708Y-71964488D01*
X162328801Y-71943525D01*
X162327647Y-71929351D01*
X162325133Y-71900927D01*
X162309280Y-71895475D01*
X162267621Y-71912998D01*
X162235224Y-71929351D01*
X162110849Y-71968103D01*
X161975646Y-71970346D01*
X161865726Y-71941444D01*
X161763366Y-71871619D01*
X161685340Y-71768555D01*
X161642614Y-71646989D01*
X161641526Y-71640192D01*
X161635178Y-71566032D01*
X161632021Y-71459570D01*
X161632275Y-71379052D01*
X161904289Y-71379052D01*
X161910590Y-71486070D01*
X161924925Y-71574278D01*
X161944331Y-71624090D01*
X162017746Y-71692162D01*
X162104914Y-71716564D01*
X162194804Y-71696831D01*
X162271617Y-71637968D01*
X162300708Y-71598379D01*
X162317717Y-71551138D01*
X162325684Y-71482181D01*
X162327647Y-71378607D01*
X162324134Y-71276039D01*
X162314857Y-71185921D01*
X162301706Y-71125613D01*
X162299514Y-71120208D01*
X162246478Y-71055940D01*
X162169067Y-71020656D01*
X162082454Y-71014959D01*
X162001807Y-71039453D01*
X161942297Y-71094742D01*
X161936124Y-71105743D01*
X161916801Y-71172827D01*
X161906274Y-71269284D01*
X161904289Y-71379052D01*
X161632275Y-71379052D01*
X161632404Y-71338225D01*
X161634194Y-71272918D01*
X161646373Y-71111355D01*
X161671685Y-70990053D01*
X161713793Y-70900379D01*
X161776359Y-70833699D01*
X161837100Y-70794557D01*
X161921964Y-70767040D01*
X162027515Y-70757603D01*
X162135598Y-70765290D01*
X162228058Y-70789146D01*
X162276910Y-70817685D01*
X162327647Y-70863601D01*
X162327647Y-70283137D01*
X162601568Y-70283137D01*
X162601568Y-71976471D01*
X162601568Y-71976471D01*
G37*
X162601568Y-71976471D02*
X162464607Y-71976471D01*
X162385111Y-71974140D01*
X162343708Y-71964488D01*
X162328801Y-71943525D01*
X162327647Y-71929351D01*
X162325133Y-71900927D01*
X162309280Y-71895475D01*
X162267621Y-71912998D01*
X162235224Y-71929351D01*
X162110849Y-71968103D01*
X161975646Y-71970346D01*
X161865726Y-71941444D01*
X161763366Y-71871619D01*
X161685340Y-71768555D01*
X161642614Y-71646989D01*
X161641526Y-71640192D01*
X161635178Y-71566032D01*
X161632021Y-71459570D01*
X161632275Y-71379052D01*
X161904289Y-71379052D01*
X161910590Y-71486070D01*
X161924925Y-71574278D01*
X161944331Y-71624090D01*
X162017746Y-71692162D01*
X162104914Y-71716564D01*
X162194804Y-71696831D01*
X162271617Y-71637968D01*
X162300708Y-71598379D01*
X162317717Y-71551138D01*
X162325684Y-71482181D01*
X162327647Y-71378607D01*
X162324134Y-71276039D01*
X162314857Y-71185921D01*
X162301706Y-71125613D01*
X162299514Y-71120208D01*
X162246478Y-71055940D01*
X162169067Y-71020656D01*
X162082454Y-71014959D01*
X162001807Y-71039453D01*
X161942297Y-71094742D01*
X161936124Y-71105743D01*
X161916801Y-71172827D01*
X161906274Y-71269284D01*
X161904289Y-71379052D01*
X161632275Y-71379052D01*
X161632404Y-71338225D01*
X161634194Y-71272918D01*
X161646373Y-71111355D01*
X161671685Y-70990053D01*
X161713793Y-70900379D01*
X161776359Y-70833699D01*
X161837100Y-70794557D01*
X161921964Y-70767040D01*
X162027515Y-70757603D01*
X162135598Y-70765290D01*
X162228058Y-70789146D01*
X162276910Y-70817685D01*
X162327647Y-70863601D01*
X162327647Y-70283137D01*
X162601568Y-70283137D01*
X162601568Y-71976471D01*
G36*
X163557528Y-70761332D02*
X163656014Y-70768726D01*
X163784776Y-71154706D01*
X163913537Y-71540686D01*
X163953911Y-71403726D01*
X163978207Y-71319083D01*
X164010167Y-71204697D01*
X164044679Y-71078963D01*
X164062928Y-71011520D01*
X164131571Y-70756275D01*
X164414773Y-70756275D01*
X164330122Y-71023971D01*
X164288435Y-71155638D01*
X164238074Y-71314458D01*
X164185481Y-71480128D01*
X164138530Y-71627843D01*
X164031589Y-71964020D01*
X163800661Y-71979044D01*
X163738050Y-71772316D01*
X163699438Y-71643896D01*
X163657300Y-71502322D01*
X163620472Y-71377285D01*
X163619018Y-71372309D01*
X163591511Y-71287586D01*
X163567242Y-71229778D01*
X163550243Y-71207918D01*
X163546750Y-71210446D01*
X163534490Y-71244336D01*
X163511195Y-71316930D01*
X163479700Y-71419101D01*
X163442842Y-71541720D01*
X163422899Y-71609167D01*
X163314895Y-71976471D01*
X163085679Y-71976471D01*
X162902439Y-71397500D01*
X162850963Y-71235091D01*
X162804070Y-71087602D01*
X162763977Y-70961960D01*
X162732897Y-70865095D01*
X162713045Y-70803934D01*
X162707011Y-70786065D01*
X162711788Y-70767768D01*
X162749297Y-70759755D01*
X162827355Y-70760557D01*
X162839574Y-70761163D01*
X162984326Y-70768726D01*
X163079130Y-71117353D01*
X163113977Y-71244497D01*
X163145117Y-71356265D01*
X163169809Y-71442953D01*
X163185312Y-71494856D01*
X163188176Y-71503318D01*
X163200046Y-71493587D01*
X163223983Y-71443172D01*
X163257239Y-71358935D01*
X163297064Y-71247741D01*
X163330730Y-71147297D01*
X163459041Y-70753939D01*
X163557528Y-70761332D01*
X163557528Y-70761332D01*
G37*
X163557528Y-70761332D02*
X163656014Y-70768726D01*
X163784776Y-71154706D01*
X163913537Y-71540686D01*
X163953911Y-71403726D01*
X163978207Y-71319083D01*
X164010167Y-71204697D01*
X164044679Y-71078963D01*
X164062928Y-71011520D01*
X164131571Y-70756275D01*
X164414773Y-70756275D01*
X164330122Y-71023971D01*
X164288435Y-71155638D01*
X164238074Y-71314458D01*
X164185481Y-71480128D01*
X164138530Y-71627843D01*
X164031589Y-71964020D01*
X163800661Y-71979044D01*
X163738050Y-71772316D01*
X163699438Y-71643896D01*
X163657300Y-71502322D01*
X163620472Y-71377285D01*
X163619018Y-71372309D01*
X163591511Y-71287586D01*
X163567242Y-71229778D01*
X163550243Y-71207918D01*
X163546750Y-71210446D01*
X163534490Y-71244336D01*
X163511195Y-71316930D01*
X163479700Y-71419101D01*
X163442842Y-71541720D01*
X163422899Y-71609167D01*
X163314895Y-71976471D01*
X163085679Y-71976471D01*
X162902439Y-71397500D01*
X162850963Y-71235091D01*
X162804070Y-71087602D01*
X162763977Y-70961960D01*
X162732897Y-70865095D01*
X162713045Y-70803934D01*
X162707011Y-70786065D01*
X162711788Y-70767768D01*
X162749297Y-70759755D01*
X162827355Y-70760557D01*
X162839574Y-70761163D01*
X162984326Y-70768726D01*
X163079130Y-71117353D01*
X163113977Y-71244497D01*
X163145117Y-71356265D01*
X163169809Y-71442953D01*
X163185312Y-71494856D01*
X163188176Y-71503318D01*
X163200046Y-71493587D01*
X163223983Y-71443172D01*
X163257239Y-71358935D01*
X163297064Y-71247741D01*
X163330730Y-71147297D01*
X163459041Y-70753939D01*
X163557528Y-70761332D01*
G36*
X165056459Y-70763669D02*
X165161420Y-70789163D01*
X165191761Y-70802669D01*
X165250573Y-70838046D01*
X165295709Y-70877890D01*
X165329106Y-70929120D01*
X165352701Y-70998654D01*
X165368433Y-71093409D01*
X165378239Y-71220305D01*
X165384057Y-71386258D01*
X165386266Y-71497108D01*
X165394396Y-71976471D01*
X165255531Y-71976471D01*
X165171287Y-71972938D01*
X165127884Y-71960866D01*
X165116666Y-71940594D01*
X165110744Y-71918674D01*
X165084266Y-71922865D01*
X165048186Y-71940441D01*
X164957862Y-71967382D01*
X164841777Y-71974642D01*
X164719680Y-71962767D01*
X164611321Y-71932305D01*
X164601602Y-71928077D01*
X164502568Y-71858505D01*
X164437281Y-71761789D01*
X164407240Y-71648738D01*
X164409535Y-71608122D01*
X164654633Y-71608122D01*
X164676229Y-71662782D01*
X164740259Y-71701952D01*
X164843565Y-71722974D01*
X164898774Y-71725766D01*
X164990782Y-71718620D01*
X165051941Y-71690848D01*
X165066862Y-71677647D01*
X165107287Y-71605829D01*
X165116666Y-71540686D01*
X165116666Y-71453530D01*
X164995269Y-71453530D01*
X164854153Y-71460722D01*
X164755173Y-71483345D01*
X164692633Y-71522964D01*
X164678631Y-71540628D01*
X164654633Y-71608122D01*
X164409535Y-71608122D01*
X164413941Y-71530157D01*
X164458880Y-71416855D01*
X164520196Y-71340285D01*
X164557332Y-71307181D01*
X164593687Y-71285425D01*
X164640990Y-71272161D01*
X164710973Y-71264528D01*
X164815364Y-71259670D01*
X164856770Y-71258273D01*
X165116666Y-71249780D01*
X165116285Y-71171116D01*
X165106219Y-71088428D01*
X165069829Y-71038431D01*
X164996311Y-71006489D01*
X164994339Y-71005920D01*
X164890105Y-70993361D01*
X164788108Y-71009766D01*
X164712305Y-71049657D01*
X164681890Y-71069354D01*
X164649132Y-71066629D01*
X164598721Y-71038091D01*
X164569119Y-71017950D01*
X164511218Y-70974919D01*
X164475352Y-70942662D01*
X164469597Y-70933427D01*
X164493295Y-70885636D01*
X164563313Y-70828562D01*
X164593725Y-70809305D01*
X164681155Y-70776140D01*
X164798983Y-70757350D01*
X164929866Y-70753129D01*
X165056459Y-70763669D01*
X165056459Y-70763669D01*
G37*
X165056459Y-70763669D02*
X165161420Y-70789163D01*
X165191761Y-70802669D01*
X165250573Y-70838046D01*
X165295709Y-70877890D01*
X165329106Y-70929120D01*
X165352701Y-70998654D01*
X165368433Y-71093409D01*
X165378239Y-71220305D01*
X165384057Y-71386258D01*
X165386266Y-71497108D01*
X165394396Y-71976471D01*
X165255531Y-71976471D01*
X165171287Y-71972938D01*
X165127884Y-71960866D01*
X165116666Y-71940594D01*
X165110744Y-71918674D01*
X165084266Y-71922865D01*
X165048186Y-71940441D01*
X164957862Y-71967382D01*
X164841777Y-71974642D01*
X164719680Y-71962767D01*
X164611321Y-71932305D01*
X164601602Y-71928077D01*
X164502568Y-71858505D01*
X164437281Y-71761789D01*
X164407240Y-71648738D01*
X164409535Y-71608122D01*
X164654633Y-71608122D01*
X164676229Y-71662782D01*
X164740259Y-71701952D01*
X164843565Y-71722974D01*
X164898774Y-71725766D01*
X164990782Y-71718620D01*
X165051941Y-71690848D01*
X165066862Y-71677647D01*
X165107287Y-71605829D01*
X165116666Y-71540686D01*
X165116666Y-71453530D01*
X164995269Y-71453530D01*
X164854153Y-71460722D01*
X164755173Y-71483345D01*
X164692633Y-71522964D01*
X164678631Y-71540628D01*
X164654633Y-71608122D01*
X164409535Y-71608122D01*
X164413941Y-71530157D01*
X164458880Y-71416855D01*
X164520196Y-71340285D01*
X164557332Y-71307181D01*
X164593687Y-71285425D01*
X164640990Y-71272161D01*
X164710973Y-71264528D01*
X164815364Y-71259670D01*
X164856770Y-71258273D01*
X165116666Y-71249780D01*
X165116285Y-71171116D01*
X165106219Y-71088428D01*
X165069829Y-71038431D01*
X164996311Y-71006489D01*
X164994339Y-71005920D01*
X164890105Y-70993361D01*
X164788108Y-71009766D01*
X164712305Y-71049657D01*
X164681890Y-71069354D01*
X164649132Y-71066629D01*
X164598721Y-71038091D01*
X164569119Y-71017950D01*
X164511218Y-70974919D01*
X164475352Y-70942662D01*
X164469597Y-70933427D01*
X164493295Y-70885636D01*
X164563313Y-70828562D01*
X164593725Y-70809305D01*
X164681155Y-70776140D01*
X164798983Y-70757350D01*
X164929866Y-70753129D01*
X165056459Y-70763669D01*
G36*
X166238446Y-70755883D02*
X166334177Y-70774755D01*
X166388677Y-70802699D01*
X166446008Y-70849123D01*
X166364441Y-70952111D01*
X166314150Y-71014479D01*
X166280001Y-71044907D01*
X166246063Y-71049555D01*
X166196406Y-71034586D01*
X166173096Y-71026117D01*
X166078063Y-71013622D01*
X165991032Y-71040406D01*
X165927138Y-71100915D01*
X165916759Y-71120208D01*
X165905456Y-71171314D01*
X165896732Y-71265500D01*
X165890997Y-71396089D01*
X165888660Y-71556405D01*
X165888627Y-71579211D01*
X165888627Y-71976471D01*
X165614705Y-71976471D01*
X165614705Y-70756275D01*
X165751666Y-70756275D01*
X165830638Y-70758337D01*
X165871779Y-70767513D01*
X165886992Y-70788290D01*
X165888627Y-70807886D01*
X165888627Y-70859497D01*
X165954240Y-70807886D01*
X166029475Y-70772675D01*
X166130544Y-70755265D01*
X166238446Y-70755883D01*
X166238446Y-70755883D01*
G37*
X166238446Y-70755883D02*
X166334177Y-70774755D01*
X166388677Y-70802699D01*
X166446008Y-70849123D01*
X166364441Y-70952111D01*
X166314150Y-71014479D01*
X166280001Y-71044907D01*
X166246063Y-71049555D01*
X166196406Y-71034586D01*
X166173096Y-71026117D01*
X166078063Y-71013622D01*
X165991032Y-71040406D01*
X165927138Y-71100915D01*
X165916759Y-71120208D01*
X165905456Y-71171314D01*
X165896732Y-71265500D01*
X165890997Y-71396089D01*
X165888660Y-71556405D01*
X165888627Y-71579211D01*
X165888627Y-71976471D01*
X165614705Y-71976471D01*
X165614705Y-70756275D01*
X165751666Y-70756275D01*
X165830638Y-70758337D01*
X165871779Y-70767513D01*
X165886992Y-70788290D01*
X165888627Y-70807886D01*
X165888627Y-70859497D01*
X165954240Y-70807886D01*
X166029475Y-70772675D01*
X166130544Y-70755265D01*
X166238446Y-70755883D01*
G36*
X167025307Y-70762784D02*
X167144337Y-70793731D01*
X167244021Y-70857600D01*
X167292288Y-70905313D01*
X167371408Y-71018106D01*
X167416752Y-71148950D01*
X167432330Y-71309792D01*
X167432410Y-71322794D01*
X167432549Y-71453530D01*
X166680091Y-71453530D01*
X166696130Y-71522010D01*
X166725091Y-71584031D01*
X166775778Y-71648654D01*
X166786379Y-71658971D01*
X166877494Y-71714805D01*
X166981400Y-71724275D01*
X167101000Y-71687540D01*
X167121274Y-71677647D01*
X167183456Y-71647574D01*
X167225106Y-71630440D01*
X167232373Y-71628855D01*
X167257740Y-71644242D01*
X167306120Y-71681887D01*
X167330679Y-71702459D01*
X167381570Y-71749714D01*
X167398281Y-71780917D01*
X167386683Y-71809620D01*
X167380483Y-71817468D01*
X167338493Y-71851819D01*
X167269206Y-71893565D01*
X167220882Y-71917935D01*
X167083711Y-71960873D01*
X166931847Y-71974786D01*
X166788024Y-71958300D01*
X166747745Y-71946496D01*
X166623078Y-71879689D01*
X166530671Y-71776892D01*
X166469990Y-71637105D01*
X166440498Y-71459330D01*
X166437260Y-71366373D01*
X166446714Y-71231033D01*
X166685490Y-71231033D01*
X166708584Y-71241038D01*
X166770662Y-71248888D01*
X166860914Y-71253521D01*
X166922058Y-71254314D01*
X167032040Y-71253549D01*
X167101457Y-71249970D01*
X167139538Y-71241649D01*
X167155515Y-71226657D01*
X167158627Y-71204903D01*
X167137278Y-71137892D01*
X167083529Y-71071664D01*
X167012822Y-71020832D01*
X166942089Y-71000038D01*
X166846016Y-71018484D01*
X166762849Y-71071811D01*
X166705186Y-71148677D01*
X166685490Y-71231033D01*
X166446714Y-71231033D01*
X166451028Y-71169291D01*
X166493520Y-71012271D01*
X166565635Y-70894069D01*
X166668273Y-70813440D01*
X166802332Y-70769139D01*
X166874957Y-70760607D01*
X167025307Y-70762784D01*
X167025307Y-70762784D01*
G37*
X167025307Y-70762784D02*
X167144337Y-70793731D01*
X167244021Y-70857600D01*
X167292288Y-70905313D01*
X167371408Y-71018106D01*
X167416752Y-71148950D01*
X167432330Y-71309792D01*
X167432410Y-71322794D01*
X167432549Y-71453530D01*
X166680091Y-71453530D01*
X166696130Y-71522010D01*
X166725091Y-71584031D01*
X166775778Y-71648654D01*
X166786379Y-71658971D01*
X166877494Y-71714805D01*
X166981400Y-71724275D01*
X167101000Y-71687540D01*
X167121274Y-71677647D01*
X167183456Y-71647574D01*
X167225106Y-71630440D01*
X167232373Y-71628855D01*
X167257740Y-71644242D01*
X167306120Y-71681887D01*
X167330679Y-71702459D01*
X167381570Y-71749714D01*
X167398281Y-71780917D01*
X167386683Y-71809620D01*
X167380483Y-71817468D01*
X167338493Y-71851819D01*
X167269206Y-71893565D01*
X167220882Y-71917935D01*
X167083711Y-71960873D01*
X166931847Y-71974786D01*
X166788024Y-71958300D01*
X166747745Y-71946496D01*
X166623078Y-71879689D01*
X166530671Y-71776892D01*
X166469990Y-71637105D01*
X166440498Y-71459330D01*
X166437260Y-71366373D01*
X166446714Y-71231033D01*
X166685490Y-71231033D01*
X166708584Y-71241038D01*
X166770662Y-71248888D01*
X166860914Y-71253521D01*
X166922058Y-71254314D01*
X167032040Y-71253549D01*
X167101457Y-71249970D01*
X167139538Y-71241649D01*
X167155515Y-71226657D01*
X167158627Y-71204903D01*
X167137278Y-71137892D01*
X167083529Y-71071664D01*
X167012822Y-71020832D01*
X166942089Y-71000038D01*
X166846016Y-71018484D01*
X166762849Y-71071811D01*
X166705186Y-71148677D01*
X166685490Y-71231033D01*
X166446714Y-71231033D01*
X166451028Y-71169291D01*
X166493520Y-71012271D01*
X166565635Y-70894069D01*
X166668273Y-70813440D01*
X166802332Y-70769139D01*
X166874957Y-70760607D01*
X167025307Y-70762784D01*
G36*
X157973247Y-68901568D02*
X158103522Y-68959163D01*
X158202419Y-69055334D01*
X158270082Y-69190229D01*
X158306655Y-69363996D01*
X158309276Y-69391126D01*
X158311330Y-69582408D01*
X158284699Y-69750073D01*
X158231001Y-69885967D01*
X158202247Y-69929681D01*
X158102091Y-70022198D01*
X157974537Y-70082119D01*
X157831837Y-70106985D01*
X157686240Y-70094339D01*
X157575562Y-70055391D01*
X157480384Y-69989755D01*
X157402594Y-69903699D01*
X157401249Y-69901685D01*
X157369657Y-69848570D01*
X157349127Y-69795160D01*
X157336695Y-69727754D01*
X157329397Y-69632653D01*
X157326182Y-69554666D01*
X157324844Y-69483944D01*
X157573814Y-69483944D01*
X157576247Y-69554348D01*
X157585080Y-69648068D01*
X157600664Y-69708214D01*
X157628766Y-69751006D01*
X157655086Y-69776002D01*
X157748392Y-69828338D01*
X157846020Y-69835333D01*
X157936942Y-69797676D01*
X157982402Y-69755479D01*
X158015162Y-69712956D01*
X158034323Y-69672267D01*
X158042733Y-69619314D01*
X158043237Y-69539997D01*
X158040645Y-69466950D01*
X158035071Y-69362601D01*
X158026234Y-69294920D01*
X158010307Y-69250774D01*
X157983462Y-69217031D01*
X157962189Y-69197746D01*
X157873206Y-69147086D01*
X157777211Y-69144560D01*
X157696719Y-69174567D01*
X157628053Y-69237231D01*
X157587144Y-69340168D01*
X157573814Y-69483944D01*
X157324844Y-69483944D01*
X157323246Y-69399582D01*
X157328260Y-69283600D01*
X157343283Y-69196367D01*
X157370376Y-69127530D01*
X157411600Y-69066737D01*
X157426885Y-69048686D01*
X157522454Y-68958746D01*
X157624961Y-68906211D01*
X157750321Y-68884201D01*
X157811450Y-68882402D01*
X157973247Y-68901568D01*
X157973247Y-68901568D01*
G37*
X157973247Y-68901568D02*
X158103522Y-68959163D01*
X158202419Y-69055334D01*
X158270082Y-69190229D01*
X158306655Y-69363996D01*
X158309276Y-69391126D01*
X158311330Y-69582408D01*
X158284699Y-69750073D01*
X158231001Y-69885967D01*
X158202247Y-69929681D01*
X158102091Y-70022198D01*
X157974537Y-70082119D01*
X157831837Y-70106985D01*
X157686240Y-70094339D01*
X157575562Y-70055391D01*
X157480384Y-69989755D01*
X157402594Y-69903699D01*
X157401249Y-69901685D01*
X157369657Y-69848570D01*
X157349127Y-69795160D01*
X157336695Y-69727754D01*
X157329397Y-69632653D01*
X157326182Y-69554666D01*
X157324844Y-69483944D01*
X157573814Y-69483944D01*
X157576247Y-69554348D01*
X157585080Y-69648068D01*
X157600664Y-69708214D01*
X157628766Y-69751006D01*
X157655086Y-69776002D01*
X157748392Y-69828338D01*
X157846020Y-69835333D01*
X157936942Y-69797676D01*
X157982402Y-69755479D01*
X158015162Y-69712956D01*
X158034323Y-69672267D01*
X158042733Y-69619314D01*
X158043237Y-69539997D01*
X158040645Y-69466950D01*
X158035071Y-69362601D01*
X158026234Y-69294920D01*
X158010307Y-69250774D01*
X157983462Y-69217031D01*
X157962189Y-69197746D01*
X157873206Y-69147086D01*
X157777211Y-69144560D01*
X157696719Y-69174567D01*
X157628053Y-69237231D01*
X157587144Y-69340168D01*
X157573814Y-69483944D01*
X157324844Y-69483944D01*
X157323246Y-69399582D01*
X157328260Y-69283600D01*
X157343283Y-69196367D01*
X157370376Y-69127530D01*
X157411600Y-69066737D01*
X157426885Y-69048686D01*
X157522454Y-68958746D01*
X157624961Y-68906211D01*
X157750321Y-68884201D01*
X157811450Y-68882402D01*
X157973247Y-68901568D01*
G36*
X160313204Y-68916354D02*
X160338019Y-68928037D01*
X160423906Y-68990951D01*
X160505121Y-69082769D01*
X160565764Y-69183868D01*
X160583012Y-69230349D01*
X160598749Y-69313376D01*
X160608133Y-69413713D01*
X160609272Y-69455147D01*
X160609411Y-69585882D01*
X159856953Y-69585882D01*
X159872993Y-69654363D01*
X159912363Y-69735355D01*
X159981194Y-69805351D01*
X160063081Y-69850441D01*
X160115263Y-69859804D01*
X160186029Y-69848441D01*
X160270460Y-69819943D01*
X160299142Y-69806831D01*
X160405209Y-69753858D01*
X160495728Y-69822901D01*
X160547961Y-69869597D01*
X160575753Y-69908140D01*
X160577160Y-69919452D01*
X160552332Y-69946868D01*
X160497917Y-69988532D01*
X160448528Y-70021037D01*
X160315252Y-70079468D01*
X160165839Y-70105915D01*
X160017751Y-70099039D01*
X159899705Y-70063096D01*
X159778018Y-69986101D01*
X159691540Y-69884728D01*
X159637441Y-69753570D01*
X159612891Y-69587224D01*
X159610714Y-69511108D01*
X159619427Y-69336685D01*
X159620497Y-69331611D01*
X159869827Y-69331611D01*
X159876694Y-69347968D01*
X159904917Y-69356988D01*
X159963127Y-69360854D01*
X160059958Y-69361749D01*
X160097243Y-69361765D01*
X160210683Y-69360413D01*
X160282622Y-69355505D01*
X160321313Y-69345760D01*
X160335005Y-69329899D01*
X160335490Y-69324805D01*
X160319863Y-69284326D01*
X160280753Y-69227621D01*
X160263939Y-69207766D01*
X160201519Y-69151611D01*
X160136453Y-69129532D01*
X160101397Y-69127686D01*
X160006558Y-69150766D01*
X159927027Y-69212759D01*
X159876577Y-69302802D01*
X159875683Y-69305735D01*
X159869827Y-69331611D01*
X159620497Y-69331611D01*
X159648399Y-69199343D01*
X159700590Y-69089461D01*
X159764421Y-69011461D01*
X159882433Y-68926882D01*
X160021158Y-68881686D01*
X160168710Y-68877600D01*
X160313204Y-68916354D01*
X160313204Y-68916354D01*
G37*
X160313204Y-68916354D02*
X160338019Y-68928037D01*
X160423906Y-68990951D01*
X160505121Y-69082769D01*
X160565764Y-69183868D01*
X160583012Y-69230349D01*
X160598749Y-69313376D01*
X160608133Y-69413713D01*
X160609272Y-69455147D01*
X160609411Y-69585882D01*
X159856953Y-69585882D01*
X159872993Y-69654363D01*
X159912363Y-69735355D01*
X159981194Y-69805351D01*
X160063081Y-69850441D01*
X160115263Y-69859804D01*
X160186029Y-69848441D01*
X160270460Y-69819943D01*
X160299142Y-69806831D01*
X160405209Y-69753858D01*
X160495728Y-69822901D01*
X160547961Y-69869597D01*
X160575753Y-69908140D01*
X160577160Y-69919452D01*
X160552332Y-69946868D01*
X160497917Y-69988532D01*
X160448528Y-70021037D01*
X160315252Y-70079468D01*
X160165839Y-70105915D01*
X160017751Y-70099039D01*
X159899705Y-70063096D01*
X159778018Y-69986101D01*
X159691540Y-69884728D01*
X159637441Y-69753570D01*
X159612891Y-69587224D01*
X159610714Y-69511108D01*
X159619427Y-69336685D01*
X159620497Y-69331611D01*
X159869827Y-69331611D01*
X159876694Y-69347968D01*
X159904917Y-69356988D01*
X159963127Y-69360854D01*
X160059958Y-69361749D01*
X160097243Y-69361765D01*
X160210683Y-69360413D01*
X160282622Y-69355505D01*
X160321313Y-69345760D01*
X160335005Y-69329899D01*
X160335490Y-69324805D01*
X160319863Y-69284326D01*
X160280753Y-69227621D01*
X160263939Y-69207766D01*
X160201519Y-69151611D01*
X160136453Y-69129532D01*
X160101397Y-69127686D01*
X160006558Y-69150766D01*
X159927027Y-69212759D01*
X159876577Y-69302802D01*
X159875683Y-69305735D01*
X159869827Y-69331611D01*
X159620497Y-69331611D01*
X159648399Y-69199343D01*
X159700590Y-69089461D01*
X159764421Y-69011461D01*
X159882433Y-68926882D01*
X160021158Y-68881686D01*
X160168710Y-68877600D01*
X160313204Y-68916354D01*
G36*
X163027759Y-68884345D02*
X163122059Y-68902229D01*
X163219890Y-68939633D01*
X163230343Y-68944402D01*
X163304531Y-68983412D01*
X163355910Y-69019664D01*
X163372517Y-69042887D01*
X163356702Y-69080761D01*
X163318288Y-69136644D01*
X163301237Y-69157505D01*
X163230969Y-69239618D01*
X163140379Y-69186168D01*
X163054164Y-69150561D01*
X162954549Y-69131529D01*
X162859019Y-69130326D01*
X162785061Y-69148210D01*
X162767312Y-69159373D01*
X162733512Y-69210553D01*
X162729404Y-69269509D01*
X162754696Y-69315567D01*
X162769656Y-69324499D01*
X162814486Y-69335592D01*
X162893286Y-69348630D01*
X162990426Y-69361088D01*
X163008346Y-69363042D01*
X163164365Y-69390030D01*
X163277523Y-69435873D01*
X163352569Y-69504803D01*
X163394253Y-69601054D01*
X163407238Y-69718617D01*
X163389299Y-69852254D01*
X163331050Y-69957195D01*
X163232255Y-70033630D01*
X163092682Y-70081748D01*
X162937745Y-70100732D01*
X162811398Y-70100504D01*
X162708913Y-70083262D01*
X162638921Y-70059457D01*
X162550483Y-70017978D01*
X162468754Y-69969842D01*
X162439705Y-69948655D01*
X162365000Y-69887676D01*
X162455098Y-69796508D01*
X162545196Y-69705339D01*
X162647632Y-69773128D01*
X162750374Y-69824042D01*
X162860087Y-69850673D01*
X162965551Y-69853483D01*
X163055546Y-69832935D01*
X163118854Y-69789493D01*
X163139296Y-69752838D01*
X163136229Y-69694053D01*
X163085434Y-69649099D01*
X162987048Y-69618057D01*
X162879256Y-69603710D01*
X162713365Y-69576337D01*
X162590124Y-69524693D01*
X162507886Y-69447266D01*
X162465001Y-69342544D01*
X162459060Y-69218387D01*
X162488406Y-69088702D01*
X162555309Y-68990677D01*
X162660371Y-68923866D01*
X162804190Y-68887820D01*
X162910738Y-68880754D01*
X163027759Y-68884345D01*
X163027759Y-68884345D01*
G37*
X163027759Y-68884345D02*
X163122059Y-68902229D01*
X163219890Y-68939633D01*
X163230343Y-68944402D01*
X163304531Y-68983412D01*
X163355910Y-69019664D01*
X163372517Y-69042887D01*
X163356702Y-69080761D01*
X163318288Y-69136644D01*
X163301237Y-69157505D01*
X163230969Y-69239618D01*
X163140379Y-69186168D01*
X163054164Y-69150561D01*
X162954549Y-69131529D01*
X162859019Y-69130326D01*
X162785061Y-69148210D01*
X162767312Y-69159373D01*
X162733512Y-69210553D01*
X162729404Y-69269509D01*
X162754696Y-69315567D01*
X162769656Y-69324499D01*
X162814486Y-69335592D01*
X162893286Y-69348630D01*
X162990426Y-69361088D01*
X163008346Y-69363042D01*
X163164365Y-69390030D01*
X163277523Y-69435873D01*
X163352569Y-69504803D01*
X163394253Y-69601054D01*
X163407238Y-69718617D01*
X163389299Y-69852254D01*
X163331050Y-69957195D01*
X163232255Y-70033630D01*
X163092682Y-70081748D01*
X162937745Y-70100732D01*
X162811398Y-70100504D01*
X162708913Y-70083262D01*
X162638921Y-70059457D01*
X162550483Y-70017978D01*
X162468754Y-69969842D01*
X162439705Y-69948655D01*
X162365000Y-69887676D01*
X162455098Y-69796508D01*
X162545196Y-69705339D01*
X162647632Y-69773128D01*
X162750374Y-69824042D01*
X162860087Y-69850673D01*
X162965551Y-69853483D01*
X163055546Y-69832935D01*
X163118854Y-69789493D01*
X163139296Y-69752838D01*
X163136229Y-69694053D01*
X163085434Y-69649099D01*
X162987048Y-69618057D01*
X162879256Y-69603710D01*
X162713365Y-69576337D01*
X162590124Y-69524693D01*
X162507886Y-69447266D01*
X162465001Y-69342544D01*
X162459060Y-69218387D01*
X162488406Y-69088702D01*
X162555309Y-68990677D01*
X162660371Y-68923866D01*
X162804190Y-68887820D01*
X162910738Y-68880754D01*
X163027759Y-68884345D01*
G36*
X164209547Y-68903364D02*
X164335502Y-68971959D01*
X164434047Y-69080245D01*
X164480478Y-69168315D01*
X164500412Y-69246101D01*
X164513328Y-69356993D01*
X164518863Y-69484738D01*
X164516654Y-69613084D01*
X164506337Y-69725779D01*
X164494286Y-69785969D01*
X164453634Y-69868311D01*
X164383230Y-69955770D01*
X164298382Y-70032251D01*
X164214397Y-70081655D01*
X164212349Y-70082439D01*
X164108134Y-70104027D01*
X163984627Y-70104562D01*
X163867261Y-70084908D01*
X163821942Y-70069155D01*
X163705220Y-70002966D01*
X163621624Y-69916246D01*
X163566701Y-69801438D01*
X163535995Y-69650982D01*
X163529047Y-69572173D01*
X163529933Y-69473145D01*
X163796862Y-69473145D01*
X163805854Y-69617645D01*
X163831736Y-69727760D01*
X163872868Y-69798116D01*
X163902172Y-69818235D01*
X163977251Y-69832265D01*
X164066494Y-69828111D01*
X164143650Y-69807922D01*
X164163883Y-69796815D01*
X164217265Y-69732123D01*
X164252500Y-69633119D01*
X164267498Y-69512632D01*
X164260172Y-69383494D01*
X164243799Y-69305775D01*
X164196790Y-69215771D01*
X164122582Y-69159509D01*
X164033209Y-69140057D01*
X163940707Y-69160481D01*
X163869653Y-69210437D01*
X163832312Y-69251655D01*
X163810518Y-69292281D01*
X163800130Y-69347264D01*
X163797006Y-69431549D01*
X163796862Y-69473145D01*
X163529933Y-69473145D01*
X163530930Y-69361874D01*
X163565180Y-69189423D01*
X163631802Y-69054814D01*
X163730799Y-68958040D01*
X163862175Y-68899094D01*
X163890385Y-68892259D01*
X164059926Y-68876213D01*
X164209547Y-68903364D01*
X164209547Y-68903364D01*
G37*
X164209547Y-68903364D02*
X164335502Y-68971959D01*
X164434047Y-69080245D01*
X164480478Y-69168315D01*
X164500412Y-69246101D01*
X164513328Y-69356993D01*
X164518863Y-69484738D01*
X164516654Y-69613084D01*
X164506337Y-69725779D01*
X164494286Y-69785969D01*
X164453634Y-69868311D01*
X164383230Y-69955770D01*
X164298382Y-70032251D01*
X164214397Y-70081655D01*
X164212349Y-70082439D01*
X164108134Y-70104027D01*
X163984627Y-70104562D01*
X163867261Y-70084908D01*
X163821942Y-70069155D01*
X163705220Y-70002966D01*
X163621624Y-69916246D01*
X163566701Y-69801438D01*
X163535995Y-69650982D01*
X163529047Y-69572173D01*
X163529933Y-69473145D01*
X163796862Y-69473145D01*
X163805854Y-69617645D01*
X163831736Y-69727760D01*
X163872868Y-69798116D01*
X163902172Y-69818235D01*
X163977251Y-69832265D01*
X164066494Y-69828111D01*
X164143650Y-69807922D01*
X164163883Y-69796815D01*
X164217265Y-69732123D01*
X164252500Y-69633119D01*
X164267498Y-69512632D01*
X164260172Y-69383494D01*
X164243799Y-69305775D01*
X164196790Y-69215771D01*
X164122582Y-69159509D01*
X164033209Y-69140057D01*
X163940707Y-69160481D01*
X163869653Y-69210437D01*
X163832312Y-69251655D01*
X163810518Y-69292281D01*
X163800130Y-69347264D01*
X163797006Y-69431549D01*
X163796862Y-69473145D01*
X163529933Y-69473145D01*
X163530930Y-69361874D01*
X163565180Y-69189423D01*
X163631802Y-69054814D01*
X163730799Y-68958040D01*
X163862175Y-68899094D01*
X163890385Y-68892259D01*
X164059926Y-68876213D01*
X164209547Y-68903364D01*
G36*
X164967254Y-69276245D02*
X164969608Y-69458879D01*
X164978207Y-69597600D01*
X164995360Y-69698147D01*
X165023374Y-69766254D01*
X165064557Y-69807659D01*
X165121217Y-69828097D01*
X165191372Y-69833318D01*
X165264848Y-69827468D01*
X165320657Y-69806093D01*
X165361109Y-69763458D01*
X165388509Y-69693825D01*
X165405167Y-69591460D01*
X165413389Y-69450624D01*
X165415490Y-69276245D01*
X165415490Y-68888628D01*
X165689411Y-68888628D01*
X165689411Y-70083922D01*
X165552451Y-70083922D01*
X165469884Y-70080576D01*
X165427368Y-70068826D01*
X165415490Y-70046520D01*
X165408336Y-70026654D01*
X165379865Y-70030857D01*
X165322476Y-70058971D01*
X165190945Y-70102342D01*
X165051438Y-70099270D01*
X164917765Y-70052174D01*
X164854108Y-70014971D01*
X164805553Y-69974691D01*
X164770081Y-69924291D01*
X164745674Y-69856729D01*
X164730313Y-69764965D01*
X164721982Y-69641955D01*
X164718662Y-69480659D01*
X164718235Y-69355928D01*
X164718235Y-68888628D01*
X164967254Y-68888628D01*
X164967254Y-69276245D01*
X164967254Y-69276245D01*
G37*
X164967254Y-69276245D02*
X164969608Y-69458879D01*
X164978207Y-69597600D01*
X164995360Y-69698147D01*
X165023374Y-69766254D01*
X165064557Y-69807659D01*
X165121217Y-69828097D01*
X165191372Y-69833318D01*
X165264848Y-69827468D01*
X165320657Y-69806093D01*
X165361109Y-69763458D01*
X165388509Y-69693825D01*
X165405167Y-69591460D01*
X165413389Y-69450624D01*
X165415490Y-69276245D01*
X165415490Y-68888628D01*
X165689411Y-68888628D01*
X165689411Y-70083922D01*
X165552451Y-70083922D01*
X165469884Y-70080576D01*
X165427368Y-70068826D01*
X165415490Y-70046520D01*
X165408336Y-70026654D01*
X165379865Y-70030857D01*
X165322476Y-70058971D01*
X165190945Y-70102342D01*
X165051438Y-70099270D01*
X164917765Y-70052174D01*
X164854108Y-70014971D01*
X164805553Y-69974691D01*
X164770081Y-69924291D01*
X164745674Y-69856729D01*
X164730313Y-69764965D01*
X164721982Y-69641955D01*
X164718662Y-69480659D01*
X164718235Y-69355928D01*
X164718235Y-68888628D01*
X164967254Y-68888628D01*
X164967254Y-69276245D01*
G36*
X167390976Y-68899056D02*
X167535256Y-68960348D01*
X167580699Y-68990185D01*
X167638779Y-69036036D01*
X167675238Y-69072089D01*
X167681568Y-69083832D01*
X167663693Y-69109889D01*
X167617950Y-69154105D01*
X167581328Y-69184965D01*
X167481088Y-69265520D01*
X167401935Y-69198918D01*
X167340769Y-69155921D01*
X167281129Y-69141079D01*
X167212872Y-69144704D01*
X167104482Y-69171652D01*
X167029872Y-69227587D01*
X166984530Y-69318014D01*
X166963947Y-69448435D01*
X166963942Y-69448517D01*
X166965722Y-69594290D01*
X166993387Y-69701245D01*
X167048571Y-69774064D01*
X167086192Y-69798723D01*
X167186105Y-69829431D01*
X167292822Y-69829449D01*
X167385669Y-69799655D01*
X167407647Y-69785098D01*
X167462765Y-69747914D01*
X167505859Y-69741820D01*
X167552335Y-69769496D01*
X167603716Y-69819205D01*
X167685046Y-69903116D01*
X167594749Y-69977546D01*
X167455236Y-70061549D01*
X167297912Y-70102947D01*
X167133503Y-70099950D01*
X167025531Y-70072500D01*
X166899331Y-70004620D01*
X166798401Y-69897831D01*
X166752548Y-69822451D01*
X166715410Y-69714297D01*
X166696827Y-69577318D01*
X166696684Y-69428864D01*
X166714865Y-69286281D01*
X166751255Y-69166918D01*
X166756987Y-69154680D01*
X166841865Y-69034655D01*
X166956782Y-68947267D01*
X167092659Y-68894329D01*
X167240417Y-68877654D01*
X167390976Y-68899056D01*
X167390976Y-68899056D01*
G37*
X167390976Y-68899056D02*
X167535256Y-68960348D01*
X167580699Y-68990185D01*
X167638779Y-69036036D01*
X167675238Y-69072089D01*
X167681568Y-69083832D01*
X167663693Y-69109889D01*
X167617950Y-69154105D01*
X167581328Y-69184965D01*
X167481088Y-69265520D01*
X167401935Y-69198918D01*
X167340769Y-69155921D01*
X167281129Y-69141079D01*
X167212872Y-69144704D01*
X167104482Y-69171652D01*
X167029872Y-69227587D01*
X166984530Y-69318014D01*
X166963947Y-69448435D01*
X166963942Y-69448517D01*
X166965722Y-69594290D01*
X166993387Y-69701245D01*
X167048571Y-69774064D01*
X167086192Y-69798723D01*
X167186105Y-69829431D01*
X167292822Y-69829449D01*
X167385669Y-69799655D01*
X167407647Y-69785098D01*
X167462765Y-69747914D01*
X167505859Y-69741820D01*
X167552335Y-69769496D01*
X167603716Y-69819205D01*
X167685046Y-69903116D01*
X167594749Y-69977546D01*
X167455236Y-70061549D01*
X167297912Y-70102947D01*
X167133503Y-70099950D01*
X167025531Y-70072500D01*
X166899331Y-70004620D01*
X166798401Y-69897831D01*
X166752548Y-69822451D01*
X166715410Y-69714297D01*
X166696827Y-69577318D01*
X166696684Y-69428864D01*
X166714865Y-69286281D01*
X166751255Y-69166918D01*
X166756987Y-69154680D01*
X166841865Y-69034655D01*
X166956782Y-68947267D01*
X167092659Y-68894329D01*
X167240417Y-68877654D01*
X167390976Y-68899056D01*
G36*
X168303287Y-68884355D02*
X168367051Y-68899845D01*
X168489300Y-68956569D01*
X168593834Y-69043202D01*
X168666180Y-69147074D01*
X168676119Y-69170396D01*
X168689754Y-69231484D01*
X168699298Y-69321853D01*
X168702549Y-69413190D01*
X168702549Y-69585882D01*
X168341470Y-69585882D01*
X168192546Y-69586445D01*
X168087632Y-69589864D01*
X168020937Y-69598731D01*
X167986666Y-69615641D01*
X167979028Y-69643189D01*
X167992229Y-69683968D01*
X168015877Y-69731683D01*
X168081843Y-69811314D01*
X168173512Y-69850987D01*
X168285555Y-69849695D01*
X168412472Y-69806514D01*
X168522158Y-69753224D01*
X168613173Y-69825191D01*
X168704188Y-69897157D01*
X168618563Y-69976269D01*
X168504250Y-70051017D01*
X168363666Y-70096084D01*
X168212449Y-70108696D01*
X168066236Y-70086079D01*
X168042647Y-70078405D01*
X167914141Y-70011296D01*
X167818551Y-69911247D01*
X167753861Y-69775271D01*
X167718057Y-69600380D01*
X167717640Y-69596632D01*
X167714434Y-69406032D01*
X167727393Y-69338035D01*
X167980392Y-69338035D01*
X168003627Y-69348491D01*
X168066710Y-69356500D01*
X168159706Y-69361073D01*
X168218638Y-69361765D01*
X168328537Y-69361332D01*
X168397252Y-69358578D01*
X168433405Y-69351321D01*
X168445615Y-69337376D01*
X168442504Y-69314562D01*
X168439894Y-69305735D01*
X168395344Y-69222800D01*
X168325279Y-69155960D01*
X168263446Y-69126589D01*
X168181301Y-69128362D01*
X168098062Y-69164990D01*
X168028238Y-69225634D01*
X167986337Y-69299456D01*
X167980392Y-69338035D01*
X167727393Y-69338035D01*
X167746385Y-69238395D01*
X167809773Y-69097711D01*
X167900878Y-68987974D01*
X168015978Y-68913174D01*
X168151355Y-68877304D01*
X168303287Y-68884355D01*
X168303287Y-68884355D01*
G37*
X168303287Y-68884355D02*
X168367051Y-68899845D01*
X168489300Y-68956569D01*
X168593834Y-69043202D01*
X168666180Y-69147074D01*
X168676119Y-69170396D01*
X168689754Y-69231484D01*
X168699298Y-69321853D01*
X168702549Y-69413190D01*
X168702549Y-69585882D01*
X168341470Y-69585882D01*
X168192546Y-69586445D01*
X168087632Y-69589864D01*
X168020937Y-69598731D01*
X167986666Y-69615641D01*
X167979028Y-69643189D01*
X167992229Y-69683968D01*
X168015877Y-69731683D01*
X168081843Y-69811314D01*
X168173512Y-69850987D01*
X168285555Y-69849695D01*
X168412472Y-69806514D01*
X168522158Y-69753224D01*
X168613173Y-69825191D01*
X168704188Y-69897157D01*
X168618563Y-69976269D01*
X168504250Y-70051017D01*
X168363666Y-70096084D01*
X168212449Y-70108696D01*
X168066236Y-70086079D01*
X168042647Y-70078405D01*
X167914141Y-70011296D01*
X167818551Y-69911247D01*
X167753861Y-69775271D01*
X167718057Y-69600380D01*
X167717640Y-69596632D01*
X167714434Y-69406032D01*
X167727393Y-69338035D01*
X167980392Y-69338035D01*
X168003627Y-69348491D01*
X168066710Y-69356500D01*
X168159706Y-69361073D01*
X168218638Y-69361765D01*
X168328537Y-69361332D01*
X168397252Y-69358578D01*
X168433405Y-69351321D01*
X168445615Y-69337376D01*
X168442504Y-69314562D01*
X168439894Y-69305735D01*
X168395344Y-69222800D01*
X168325279Y-69155960D01*
X168263446Y-69126589D01*
X168181301Y-69128362D01*
X168098062Y-69164990D01*
X168028238Y-69225634D01*
X167986337Y-69299456D01*
X167980392Y-69338035D01*
X167727393Y-69338035D01*
X167746385Y-69238395D01*
X167809773Y-69097711D01*
X167900878Y-68987974D01*
X168015978Y-68913174D01*
X168151355Y-68877304D01*
X168303287Y-68884355D01*
G36*
X161506760Y-68909199D02*
X161568736Y-68938802D01*
X161628759Y-68981561D01*
X161674486Y-69030775D01*
X161707793Y-69093544D01*
X161730555Y-69176971D01*
X161744647Y-69288159D01*
X161751942Y-69434209D01*
X161754318Y-69622223D01*
X161754355Y-69641912D01*
X161754902Y-70083922D01*
X161480980Y-70083922D01*
X161480980Y-69676435D01*
X161480785Y-69525471D01*
X161479436Y-69416056D01*
X161475788Y-69339933D01*
X161468696Y-69288848D01*
X161457013Y-69254545D01*
X161439594Y-69228768D01*
X161415329Y-69203298D01*
X161330435Y-69148571D01*
X161237761Y-69138416D01*
X161149473Y-69173017D01*
X161118770Y-69198770D01*
X161096229Y-69222982D01*
X161080046Y-69248912D01*
X161069168Y-69284708D01*
X161062542Y-69338519D01*
X161059115Y-69418493D01*
X161057834Y-69532779D01*
X161057647Y-69671907D01*
X161057647Y-70083922D01*
X160783725Y-70083922D01*
X160783725Y-68888628D01*
X160920686Y-68888628D01*
X161002916Y-68891879D01*
X161045340Y-68903426D01*
X161057641Y-68925952D01*
X161057647Y-68926620D01*
X161063354Y-68948681D01*
X161088527Y-68946177D01*
X161138578Y-68921937D01*
X161252094Y-68886271D01*
X161381945Y-68882305D01*
X161506760Y-68909199D01*
X161506760Y-68909199D01*
G37*
X161506760Y-68909199D02*
X161568736Y-68938802D01*
X161628759Y-68981561D01*
X161674486Y-69030775D01*
X161707793Y-69093544D01*
X161730555Y-69176971D01*
X161744647Y-69288159D01*
X161751942Y-69434209D01*
X161754318Y-69622223D01*
X161754355Y-69641912D01*
X161754902Y-70083922D01*
X161480980Y-70083922D01*
X161480980Y-69676435D01*
X161480785Y-69525471D01*
X161479436Y-69416056D01*
X161475788Y-69339933D01*
X161468696Y-69288848D01*
X161457013Y-69254545D01*
X161439594Y-69228768D01*
X161415329Y-69203298D01*
X161330435Y-69148571D01*
X161237761Y-69138416D01*
X161149473Y-69173017D01*
X161118770Y-69198770D01*
X161096229Y-69222982D01*
X161080046Y-69248912D01*
X161069168Y-69284708D01*
X161062542Y-69338519D01*
X161059115Y-69418493D01*
X161057834Y-69532779D01*
X161057647Y-69671907D01*
X161057647Y-70083922D01*
X160783725Y-70083922D01*
X160783725Y-68888628D01*
X160920686Y-68888628D01*
X161002916Y-68891879D01*
X161045340Y-68903426D01*
X161057641Y-68925952D01*
X161057647Y-68926620D01*
X161063354Y-68948681D01*
X161088527Y-68946177D01*
X161138578Y-68921937D01*
X161252094Y-68886271D01*
X161381945Y-68882305D01*
X161506760Y-68909199D01*
G36*
X166563637Y-68887472D02*
X166649290Y-68913641D01*
X166704437Y-68946707D01*
X166722401Y-68972855D01*
X166717457Y-69003852D01*
X166685372Y-69052547D01*
X166658243Y-69087035D01*
X166602317Y-69149383D01*
X166560299Y-69175615D01*
X166524480Y-69173903D01*
X166418224Y-69146863D01*
X166340189Y-69148091D01*
X166276820Y-69178735D01*
X166255546Y-69196670D01*
X166187451Y-69259779D01*
X166187451Y-70083922D01*
X165913529Y-70083922D01*
X165913529Y-68888628D01*
X166050490Y-68888628D01*
X166132719Y-68891879D01*
X166175144Y-68903426D01*
X166187445Y-68925952D01*
X166187451Y-68926620D01*
X166193260Y-68950215D01*
X166219531Y-68947138D01*
X166255931Y-68930115D01*
X166331111Y-68898439D01*
X166392158Y-68879381D01*
X166470708Y-68874496D01*
X166563637Y-68887472D01*
X166563637Y-68887472D01*
G37*
X166563637Y-68887472D02*
X166649290Y-68913641D01*
X166704437Y-68946707D01*
X166722401Y-68972855D01*
X166717457Y-69003852D01*
X166685372Y-69052547D01*
X166658243Y-69087035D01*
X166602317Y-69149383D01*
X166560299Y-69175615D01*
X166524480Y-69173903D01*
X166418224Y-69146863D01*
X166340189Y-69148091D01*
X166276820Y-69178735D01*
X166255546Y-69196670D01*
X166187451Y-69259779D01*
X166187451Y-70083922D01*
X165913529Y-70083922D01*
X165913529Y-68888628D01*
X166050490Y-68888628D01*
X166132719Y-68891879D01*
X166175144Y-68903426D01*
X166187445Y-68925952D01*
X166187451Y-68926620D01*
X166193260Y-68950215D01*
X166219531Y-68947138D01*
X166255931Y-68930115D01*
X166331111Y-68898439D01*
X166392158Y-68879381D01*
X166470708Y-68874496D01*
X166563637Y-68887472D01*
G36*
X163746535Y-60633172D02*
X163859117Y-61230363D01*
X164274531Y-61401610D01*
X164689944Y-61572857D01*
X165188302Y-61233978D01*
X165327868Y-61139622D01*
X165454028Y-61055375D01*
X165560895Y-60985083D01*
X165642582Y-60932592D01*
X165693201Y-60901749D01*
X165706986Y-60895098D01*
X165731820Y-60912203D01*
X165784888Y-60959489D01*
X165860240Y-61030917D01*
X165951929Y-61120445D01*
X166054007Y-61222034D01*
X166160526Y-61329643D01*
X166265536Y-61437232D01*
X166363091Y-61538760D01*
X166447242Y-61628186D01*
X166512040Y-61699471D01*
X166551538Y-61746573D01*
X166560980Y-61762337D01*
X166547391Y-61791398D01*
X166509293Y-61855066D01*
X166450694Y-61947112D01*
X166375597Y-62061309D01*
X166288009Y-62191429D01*
X166237254Y-62265646D01*
X166144745Y-62401167D01*
X166062540Y-62523461D01*
X165994630Y-62626440D01*
X165945000Y-62704018D01*
X165917640Y-62750106D01*
X165913529Y-62759792D01*
X165922849Y-62787319D01*
X165948254Y-62851473D01*
X165985911Y-62943235D01*
X166031986Y-63053584D01*
X166082646Y-63173500D01*
X166134059Y-63293964D01*
X166182389Y-63405954D01*
X166223806Y-63500452D01*
X166254474Y-63568437D01*
X166270562Y-63600888D01*
X166271511Y-63602165D01*
X166296772Y-63608362D01*
X166364046Y-63622185D01*
X166466360Y-63642277D01*
X166596741Y-63667279D01*
X166748216Y-63695831D01*
X166836594Y-63712296D01*
X166998452Y-63743114D01*
X167144649Y-63772439D01*
X167267787Y-63798666D01*
X167360469Y-63820191D01*
X167415301Y-63835410D01*
X167426323Y-63840238D01*
X167437119Y-63872919D01*
X167445829Y-63946730D01*
X167452460Y-64053037D01*
X167457018Y-64183212D01*
X167459509Y-64328621D01*
X167459938Y-64480635D01*
X167458311Y-64630622D01*
X167454635Y-64769951D01*
X167448915Y-64889990D01*
X167441158Y-64982110D01*
X167431368Y-65037677D01*
X167425496Y-65049245D01*
X167390399Y-65063110D01*
X167316028Y-65082933D01*
X167212223Y-65106384D01*
X167088819Y-65131136D01*
X167045741Y-65139143D01*
X166838047Y-65177186D01*
X166673984Y-65207824D01*
X166548130Y-65232274D01*
X166455065Y-65251754D01*
X166389367Y-65267481D01*
X166345617Y-65280673D01*
X166318392Y-65292549D01*
X166302272Y-65304325D01*
X166300017Y-65306653D01*
X166277503Y-65344145D01*
X166243158Y-65417110D01*
X166200411Y-65516612D01*
X166152692Y-65633718D01*
X166103430Y-65759493D01*
X166056055Y-65885002D01*
X166013995Y-66001310D01*
X165980680Y-66099484D01*
X165959541Y-66170588D01*
X165954005Y-66205687D01*
X165954466Y-66206917D01*
X165973223Y-66235606D01*
X166015776Y-66298730D01*
X166077653Y-66389718D01*
X166154382Y-66502000D01*
X166241491Y-66629005D01*
X166266299Y-66665098D01*
X166354753Y-66795948D01*
X166432588Y-66915336D01*
X166495566Y-67016407D01*
X166539445Y-67092304D01*
X166559985Y-67136172D01*
X166560980Y-67141562D01*
X166543722Y-67169889D01*
X166496036Y-67226006D01*
X166424050Y-67303882D01*
X166333897Y-67397485D01*
X166231705Y-67500786D01*
X166123606Y-67607751D01*
X166015728Y-67712351D01*
X165914204Y-67808554D01*
X165825162Y-67890329D01*
X165754733Y-67951645D01*
X165709047Y-67986471D01*
X165696409Y-67992157D01*
X165666991Y-67978765D01*
X165606761Y-67942644D01*
X165525530Y-67889881D01*
X165463030Y-67847412D01*
X165349785Y-67769485D01*
X165215674Y-67677729D01*
X165081155Y-67586120D01*
X165008833Y-67537091D01*
X164764038Y-67371515D01*
X164558551Y-67482620D01*
X164464936Y-67531293D01*
X164385330Y-67569126D01*
X164331467Y-67590703D01*
X164317757Y-67593706D01*
X164301270Y-67571538D01*
X164268745Y-67508894D01*
X164222609Y-67411554D01*
X164165290Y-67285294D01*
X164099216Y-67135895D01*
X164026815Y-66969133D01*
X163950516Y-66790787D01*
X163872746Y-66606636D01*
X163795934Y-66422457D01*
X163722506Y-66244030D01*
X163654892Y-66077132D01*
X163595520Y-65927542D01*
X163546816Y-65801038D01*
X163511210Y-65703399D01*
X163491130Y-65640402D01*
X163487900Y-65618766D01*
X163513496Y-65591169D01*
X163569539Y-65546370D01*
X163644311Y-65493679D01*
X163650587Y-65489510D01*
X163843845Y-65334814D01*
X163999674Y-65154336D01*
X164116724Y-64953847D01*
X164193645Y-64739119D01*
X164229086Y-64515922D01*
X164221697Y-64290026D01*
X164170127Y-64067204D01*
X164073026Y-63853224D01*
X164044458Y-63806409D01*
X163895868Y-63617363D01*
X163720327Y-63465557D01*
X163523910Y-63351779D01*
X163312693Y-63276820D01*
X163092753Y-63241467D01*
X162870163Y-63246512D01*
X162651001Y-63292744D01*
X162441342Y-63380951D01*
X162247261Y-63511924D01*
X162187226Y-63565082D01*
X162034435Y-63731484D01*
X161923097Y-63906657D01*
X161846723Y-64103011D01*
X161804187Y-64297462D01*
X161793686Y-64516087D01*
X161828701Y-64735797D01*
X161905673Y-64949165D01*
X162021047Y-65148767D01*
X162171266Y-65327174D01*
X162352773Y-65476962D01*
X162376627Y-65492751D01*
X162452201Y-65544457D01*
X162509651Y-65589257D01*
X162537117Y-65617862D01*
X162537517Y-65618766D01*
X162531620Y-65649709D01*
X162508245Y-65719936D01*
X162469821Y-65823670D01*
X162418777Y-65955135D01*
X162357542Y-66108552D01*
X162288544Y-66278146D01*
X162214214Y-66458138D01*
X162136978Y-66642753D01*
X162059268Y-66826213D01*
X161983511Y-67002741D01*
X161912137Y-67166559D01*
X161847574Y-67311892D01*
X161792252Y-67432962D01*
X161748600Y-67523992D01*
X161719046Y-67579205D01*
X161707144Y-67593706D01*
X161670777Y-67582414D01*
X161602730Y-67552130D01*
X161514737Y-67508265D01*
X161466351Y-67482620D01*
X161260863Y-67371515D01*
X161016068Y-67537091D01*
X160891106Y-67621915D01*
X160754295Y-67715261D01*
X160626089Y-67803153D01*
X160561871Y-67847412D01*
X160471551Y-67908063D01*
X160395071Y-67956126D01*
X160342407Y-67985515D01*
X160325302Y-67991727D01*
X160300405Y-67974968D01*
X160245305Y-67928181D01*
X160165343Y-67856225D01*
X160065861Y-67763957D01*
X159952200Y-67656235D01*
X159880315Y-67587071D01*
X159754551Y-67463502D01*
X159645863Y-67352979D01*
X159558645Y-67260230D01*
X159497289Y-67189982D01*
X159466191Y-67146965D01*
X159463208Y-67138235D01*
X159477053Y-67105029D01*
X159515312Y-67037887D01*
X159573742Y-66943608D01*
X159648097Y-66828990D01*
X159734135Y-66700828D01*
X159758603Y-66665098D01*
X159847755Y-66535234D01*
X159927738Y-66418314D01*
X159994080Y-66320907D01*
X160042311Y-66249584D01*
X160067957Y-66210915D01*
X160070435Y-66206917D01*
X160066729Y-66176100D01*
X160047061Y-66108344D01*
X160014860Y-66012584D01*
X159973555Y-65897754D01*
X159926575Y-65772789D01*
X159877349Y-65646624D01*
X159829308Y-65528193D01*
X159785881Y-65426430D01*
X159750496Y-65350271D01*
X159726584Y-65308649D01*
X159724884Y-65306653D01*
X159710262Y-65294758D01*
X159685565Y-65282995D01*
X159645372Y-65270146D01*
X159584263Y-65254994D01*
X159496817Y-65236321D01*
X159377612Y-65212910D01*
X159221227Y-65183542D01*
X159022243Y-65147000D01*
X158979160Y-65139143D01*
X158851471Y-65114472D01*
X158740153Y-65090338D01*
X158655045Y-65069069D01*
X158605983Y-65052993D01*
X158599405Y-65049245D01*
X158588564Y-65016018D01*
X158579753Y-64941766D01*
X158572976Y-64835121D01*
X158568240Y-64704712D01*
X158565550Y-64559172D01*
X158564913Y-64407131D01*
X158566334Y-64257221D01*
X158569820Y-64118073D01*
X158575376Y-63998317D01*
X158583008Y-63906586D01*
X158592722Y-63851511D01*
X158598578Y-63840238D01*
X158631180Y-63828868D01*
X158705418Y-63810369D01*
X158813896Y-63786347D01*
X158949217Y-63758407D01*
X159103985Y-63728153D01*
X159188308Y-63712296D01*
X159348296Y-63682389D01*
X159490967Y-63655295D01*
X159609348Y-63632376D01*
X159696465Y-63614988D01*
X159745345Y-63604492D01*
X159753390Y-63602165D01*
X159766987Y-63575931D01*
X159795729Y-63512740D01*
X159835785Y-63421622D01*
X159883324Y-63311602D01*
X159934515Y-63191710D01*
X159985526Y-63070972D01*
X160032526Y-62958416D01*
X160071684Y-62863071D01*
X160099169Y-62793962D01*
X160111149Y-62760119D01*
X160111372Y-62758640D01*
X160097791Y-62731942D01*
X160059715Y-62670505D01*
X160001147Y-62580434D01*
X159926088Y-62467835D01*
X159838540Y-62338815D01*
X159787647Y-62264706D01*
X159694909Y-62128822D01*
X159612541Y-62005454D01*
X159544561Y-61900842D01*
X159494988Y-61821228D01*
X159467842Y-61772852D01*
X159463921Y-61762007D01*
X159480775Y-61736765D01*
X159527368Y-61682869D01*
X159597749Y-61606358D01*
X159685965Y-61513268D01*
X159786065Y-61409640D01*
X159892098Y-61301509D01*
X159998111Y-61194915D01*
X160098152Y-61095895D01*
X160186270Y-61010487D01*
X160256513Y-60944730D01*
X160302928Y-60904661D01*
X160318456Y-60895098D01*
X160343739Y-60908545D01*
X160404211Y-60946320D01*
X160493992Y-61004580D01*
X160607203Y-61079479D01*
X160737964Y-61167170D01*
X160836600Y-61233978D01*
X161334957Y-61572857D01*
X161750371Y-61401610D01*
X162165784Y-61230363D01*
X162278366Y-60633172D01*
X162390949Y-60035980D01*
X163633952Y-60035980D01*
X163746535Y-60633172D01*
X163746535Y-60633172D01*
G37*
X163746535Y-60633172D02*
X163859117Y-61230363D01*
X164274531Y-61401610D01*
X164689944Y-61572857D01*
X165188302Y-61233978D01*
X165327868Y-61139622D01*
X165454028Y-61055375D01*
X165560895Y-60985083D01*
X165642582Y-60932592D01*
X165693201Y-60901749D01*
X165706986Y-60895098D01*
X165731820Y-60912203D01*
X165784888Y-60959489D01*
X165860240Y-61030917D01*
X165951929Y-61120445D01*
X166054007Y-61222034D01*
X166160526Y-61329643D01*
X166265536Y-61437232D01*
X166363091Y-61538760D01*
X166447242Y-61628186D01*
X166512040Y-61699471D01*
X166551538Y-61746573D01*
X166560980Y-61762337D01*
X166547391Y-61791398D01*
X166509293Y-61855066D01*
X166450694Y-61947112D01*
X166375597Y-62061309D01*
X166288009Y-62191429D01*
X166237254Y-62265646D01*
X166144745Y-62401167D01*
X166062540Y-62523461D01*
X165994630Y-62626440D01*
X165945000Y-62704018D01*
X165917640Y-62750106D01*
X165913529Y-62759792D01*
X165922849Y-62787319D01*
X165948254Y-62851473D01*
X165985911Y-62943235D01*
X166031986Y-63053584D01*
X166082646Y-63173500D01*
X166134059Y-63293964D01*
X166182389Y-63405954D01*
X166223806Y-63500452D01*
X166254474Y-63568437D01*
X166270562Y-63600888D01*
X166271511Y-63602165D01*
X166296772Y-63608362D01*
X166364046Y-63622185D01*
X166466360Y-63642277D01*
X166596741Y-63667279D01*
X166748216Y-63695831D01*
X166836594Y-63712296D01*
X166998452Y-63743114D01*
X167144649Y-63772439D01*
X167267787Y-63798666D01*
X167360469Y-63820191D01*
X167415301Y-63835410D01*
X167426323Y-63840238D01*
X167437119Y-63872919D01*
X167445829Y-63946730D01*
X167452460Y-64053037D01*
X167457018Y-64183212D01*
X167459509Y-64328621D01*
X167459938Y-64480635D01*
X167458311Y-64630622D01*
X167454635Y-64769951D01*
X167448915Y-64889990D01*
X167441158Y-64982110D01*
X167431368Y-65037677D01*
X167425496Y-65049245D01*
X167390399Y-65063110D01*
X167316028Y-65082933D01*
X167212223Y-65106384D01*
X167088819Y-65131136D01*
X167045741Y-65139143D01*
X166838047Y-65177186D01*
X166673984Y-65207824D01*
X166548130Y-65232274D01*
X166455065Y-65251754D01*
X166389367Y-65267481D01*
X166345617Y-65280673D01*
X166318392Y-65292549D01*
X166302272Y-65304325D01*
X166300017Y-65306653D01*
X166277503Y-65344145D01*
X166243158Y-65417110D01*
X166200411Y-65516612D01*
X166152692Y-65633718D01*
X166103430Y-65759493D01*
X166056055Y-65885002D01*
X166013995Y-66001310D01*
X165980680Y-66099484D01*
X165959541Y-66170588D01*
X165954005Y-66205687D01*
X165954466Y-66206917D01*
X165973223Y-66235606D01*
X166015776Y-66298730D01*
X166077653Y-66389718D01*
X166154382Y-66502000D01*
X166241491Y-66629005D01*
X166266299Y-66665098D01*
X166354753Y-66795948D01*
X166432588Y-66915336D01*
X166495566Y-67016407D01*
X166539445Y-67092304D01*
X166559985Y-67136172D01*
X166560980Y-67141562D01*
X166543722Y-67169889D01*
X166496036Y-67226006D01*
X166424050Y-67303882D01*
X166333897Y-67397485D01*
X166231705Y-67500786D01*
X166123606Y-67607751D01*
X166015728Y-67712351D01*
X165914204Y-67808554D01*
X165825162Y-67890329D01*
X165754733Y-67951645D01*
X165709047Y-67986471D01*
X165696409Y-67992157D01*
X165666991Y-67978765D01*
X165606761Y-67942644D01*
X165525530Y-67889881D01*
X165463030Y-67847412D01*
X165349785Y-67769485D01*
X165215674Y-67677729D01*
X165081155Y-67586120D01*
X165008833Y-67537091D01*
X164764038Y-67371515D01*
X164558551Y-67482620D01*
X164464936Y-67531293D01*
X164385330Y-67569126D01*
X164331467Y-67590703D01*
X164317757Y-67593706D01*
X164301270Y-67571538D01*
X164268745Y-67508894D01*
X164222609Y-67411554D01*
X164165290Y-67285294D01*
X164099216Y-67135895D01*
X164026815Y-66969133D01*
X163950516Y-66790787D01*
X163872746Y-66606636D01*
X163795934Y-66422457D01*
X163722506Y-66244030D01*
X163654892Y-66077132D01*
X163595520Y-65927542D01*
X163546816Y-65801038D01*
X163511210Y-65703399D01*
X163491130Y-65640402D01*
X163487900Y-65618766D01*
X163513496Y-65591169D01*
X163569539Y-65546370D01*
X163644311Y-65493679D01*
X163650587Y-65489510D01*
X163843845Y-65334814D01*
X163999674Y-65154336D01*
X164116724Y-64953847D01*
X164193645Y-64739119D01*
X164229086Y-64515922D01*
X164221697Y-64290026D01*
X164170127Y-64067204D01*
X164073026Y-63853224D01*
X164044458Y-63806409D01*
X163895868Y-63617363D01*
X163720327Y-63465557D01*
X163523910Y-63351779D01*
X163312693Y-63276820D01*
X163092753Y-63241467D01*
X162870163Y-63246512D01*
X162651001Y-63292744D01*
X162441342Y-63380951D01*
X162247261Y-63511924D01*
X162187226Y-63565082D01*
X162034435Y-63731484D01*
X161923097Y-63906657D01*
X161846723Y-64103011D01*
X161804187Y-64297462D01*
X161793686Y-64516087D01*
X161828701Y-64735797D01*
X161905673Y-64949165D01*
X162021047Y-65148767D01*
X162171266Y-65327174D01*
X162352773Y-65476962D01*
X162376627Y-65492751D01*
X162452201Y-65544457D01*
X162509651Y-65589257D01*
X162537117Y-65617862D01*
X162537517Y-65618766D01*
X162531620Y-65649709D01*
X162508245Y-65719936D01*
X162469821Y-65823670D01*
X162418777Y-65955135D01*
X162357542Y-66108552D01*
X162288544Y-66278146D01*
X162214214Y-66458138D01*
X162136978Y-66642753D01*
X162059268Y-66826213D01*
X161983511Y-67002741D01*
X161912137Y-67166559D01*
X161847574Y-67311892D01*
X161792252Y-67432962D01*
X161748600Y-67523992D01*
X161719046Y-67579205D01*
X161707144Y-67593706D01*
X161670777Y-67582414D01*
X161602730Y-67552130D01*
X161514737Y-67508265D01*
X161466351Y-67482620D01*
X161260863Y-67371515D01*
X161016068Y-67537091D01*
X160891106Y-67621915D01*
X160754295Y-67715261D01*
X160626089Y-67803153D01*
X160561871Y-67847412D01*
X160471551Y-67908063D01*
X160395071Y-67956126D01*
X160342407Y-67985515D01*
X160325302Y-67991727D01*
X160300405Y-67974968D01*
X160245305Y-67928181D01*
X160165343Y-67856225D01*
X160065861Y-67763957D01*
X159952200Y-67656235D01*
X159880315Y-67587071D01*
X159754551Y-67463502D01*
X159645863Y-67352979D01*
X159558645Y-67260230D01*
X159497289Y-67189982D01*
X159466191Y-67146965D01*
X159463208Y-67138235D01*
X159477053Y-67105029D01*
X159515312Y-67037887D01*
X159573742Y-66943608D01*
X159648097Y-66828990D01*
X159734135Y-66700828D01*
X159758603Y-66665098D01*
X159847755Y-66535234D01*
X159927738Y-66418314D01*
X159994080Y-66320907D01*
X160042311Y-66249584D01*
X160067957Y-66210915D01*
X160070435Y-66206917D01*
X160066729Y-66176100D01*
X160047061Y-66108344D01*
X160014860Y-66012584D01*
X159973555Y-65897754D01*
X159926575Y-65772789D01*
X159877349Y-65646624D01*
X159829308Y-65528193D01*
X159785881Y-65426430D01*
X159750496Y-65350271D01*
X159726584Y-65308649D01*
X159724884Y-65306653D01*
X159710262Y-65294758D01*
X159685565Y-65282995D01*
X159645372Y-65270146D01*
X159584263Y-65254994D01*
X159496817Y-65236321D01*
X159377612Y-65212910D01*
X159221227Y-65183542D01*
X159022243Y-65147000D01*
X158979160Y-65139143D01*
X158851471Y-65114472D01*
X158740153Y-65090338D01*
X158655045Y-65069069D01*
X158605983Y-65052993D01*
X158599405Y-65049245D01*
X158588564Y-65016018D01*
X158579753Y-64941766D01*
X158572976Y-64835121D01*
X158568240Y-64704712D01*
X158565550Y-64559172D01*
X158564913Y-64407131D01*
X158566334Y-64257221D01*
X158569820Y-64118073D01*
X158575376Y-63998317D01*
X158583008Y-63906586D01*
X158592722Y-63851511D01*
X158598578Y-63840238D01*
X158631180Y-63828868D01*
X158705418Y-63810369D01*
X158813896Y-63786347D01*
X158949217Y-63758407D01*
X159103985Y-63728153D01*
X159188308Y-63712296D01*
X159348296Y-63682389D01*
X159490967Y-63655295D01*
X159609348Y-63632376D01*
X159696465Y-63614988D01*
X159745345Y-63604492D01*
X159753390Y-63602165D01*
X159766987Y-63575931D01*
X159795729Y-63512740D01*
X159835785Y-63421622D01*
X159883324Y-63311602D01*
X159934515Y-63191710D01*
X159985526Y-63070972D01*
X160032526Y-62958416D01*
X160071684Y-62863071D01*
X160099169Y-62793962D01*
X160111149Y-62760119D01*
X160111372Y-62758640D01*
X160097791Y-62731942D01*
X160059715Y-62670505D01*
X160001147Y-62580434D01*
X159926088Y-62467835D01*
X159838540Y-62338815D01*
X159787647Y-62264706D01*
X159694909Y-62128822D01*
X159612541Y-62005454D01*
X159544561Y-61900842D01*
X159494988Y-61821228D01*
X159467842Y-61772852D01*
X159463921Y-61762007D01*
X159480775Y-61736765D01*
X159527368Y-61682869D01*
X159597749Y-61606358D01*
X159685965Y-61513268D01*
X159786065Y-61409640D01*
X159892098Y-61301509D01*
X159998111Y-61194915D01*
X160098152Y-61095895D01*
X160186270Y-61010487D01*
X160256513Y-60944730D01*
X160302928Y-60904661D01*
X160318456Y-60895098D01*
X160343739Y-60908545D01*
X160404211Y-60946320D01*
X160493992Y-61004580D01*
X160607203Y-61079479D01*
X160737964Y-61167170D01*
X160836600Y-61233978D01*
X161334957Y-61572857D01*
X161750371Y-61401610D01*
X162165784Y-61230363D01*
X162278366Y-60633172D01*
X162390949Y-60035980D01*
X163633952Y-60035980D01*
X163746535Y-60633172D01*
D17*
X126492000Y-62666308D02*
X126492000Y-63754880D01*
X126419428Y-63972594D01*
X126274285Y-64117737D01*
X126056571Y-64190308D01*
X125911428Y-64190308D01*
X127870857Y-63174308D02*
X127870857Y-64190308D01*
X127508000Y-62593737D02*
X127145142Y-63682308D01*
X128088571Y-63682308D01*
D20*
X139136664Y-71153443D02*
X139146219Y-71162998D01*
X139155774Y-71191664D01*
X139155774Y-71210774D01*
X139146219Y-71239440D01*
X139127109Y-71258550D01*
X139107998Y-71268106D01*
X139069777Y-71277661D01*
X139041111Y-71277661D01*
X139002890Y-71268106D01*
X138983780Y-71258550D01*
X138964670Y-71239440D01*
X138955114Y-71210774D01*
X138955114Y-71191664D01*
X138964670Y-71162998D01*
X138974225Y-71153443D01*
X139155774Y-70962338D02*
X139155774Y-71077001D01*
X139155774Y-71019670D02*
X138955114Y-71019670D01*
X138983780Y-71038780D01*
X139002890Y-71057890D01*
X139012446Y-71077001D01*
X139136664Y-76233443D02*
X139146219Y-76242998D01*
X139155774Y-76271664D01*
X139155774Y-76290774D01*
X139146219Y-76319440D01*
X139127109Y-76338550D01*
X139107998Y-76348106D01*
X139069777Y-76357661D01*
X139041111Y-76357661D01*
X139002890Y-76348106D01*
X138983780Y-76338550D01*
X138964670Y-76319440D01*
X138955114Y-76290774D01*
X138955114Y-76271664D01*
X138964670Y-76242998D01*
X138974225Y-76233443D01*
X138974225Y-76157001D02*
X138964670Y-76147446D01*
X138955114Y-76128335D01*
X138955114Y-76080559D01*
X138964670Y-76061449D01*
X138974225Y-76051893D01*
X138993335Y-76042338D01*
X139012446Y-76042338D01*
X139041111Y-76051893D01*
X139155774Y-76166556D01*
X139155774Y-76042338D01*
X139136664Y-81313443D02*
X139146219Y-81322998D01*
X139155774Y-81351664D01*
X139155774Y-81370774D01*
X139146219Y-81399440D01*
X139127109Y-81418550D01*
X139107998Y-81428106D01*
X139069777Y-81437661D01*
X139041111Y-81437661D01*
X139002890Y-81428106D01*
X138983780Y-81418550D01*
X138964670Y-81399440D01*
X138955114Y-81370774D01*
X138955114Y-81351664D01*
X138964670Y-81322998D01*
X138974225Y-81313443D01*
X138955114Y-81246556D02*
X138955114Y-81122338D01*
X139031556Y-81189225D01*
X139031556Y-81160559D01*
X139041111Y-81141449D01*
X139050667Y-81131893D01*
X139069777Y-81122338D01*
X139117553Y-81122338D01*
X139136664Y-81131893D01*
X139146219Y-81141449D01*
X139155774Y-81160559D01*
X139155774Y-81217890D01*
X139146219Y-81237001D01*
X139136664Y-81246556D01*
X150566664Y-85123443D02*
X150576219Y-85132998D01*
X150585774Y-85161664D01*
X150585774Y-85180774D01*
X150576219Y-85209440D01*
X150557109Y-85228550D01*
X150537998Y-85238106D01*
X150499777Y-85247661D01*
X150471111Y-85247661D01*
X150432890Y-85238106D01*
X150413780Y-85228550D01*
X150394670Y-85209440D01*
X150385114Y-85180774D01*
X150385114Y-85161664D01*
X150394670Y-85132998D01*
X150404225Y-85123443D01*
X150452001Y-84951449D02*
X150585774Y-84951449D01*
X150375559Y-84999225D02*
X150518888Y-85047001D01*
X150518888Y-84922783D01*
X154376664Y-97823443D02*
X154386219Y-97832998D01*
X154395774Y-97861664D01*
X154395774Y-97880774D01*
X154386219Y-97909440D01*
X154367109Y-97928550D01*
X154347998Y-97938106D01*
X154309777Y-97947661D01*
X154281111Y-97947661D01*
X154242890Y-97938106D01*
X154223780Y-97928550D01*
X154204670Y-97909440D01*
X154195114Y-97880774D01*
X154195114Y-97861664D01*
X154204670Y-97832998D01*
X154214225Y-97823443D01*
X154195114Y-97641893D02*
X154195114Y-97737446D01*
X154290667Y-97747001D01*
X154281111Y-97737446D01*
X154271556Y-97718335D01*
X154271556Y-97670559D01*
X154281111Y-97651449D01*
X154290667Y-97641893D01*
X154309777Y-97632338D01*
X154357553Y-97632338D01*
X154376664Y-97641893D01*
X154386219Y-97651449D01*
X154395774Y-97670559D01*
X154395774Y-97718335D01*
X154386219Y-97737446D01*
X154376664Y-97747001D01*
X154376664Y-105443443D02*
X154386219Y-105452998D01*
X154395774Y-105481664D01*
X154395774Y-105500774D01*
X154386219Y-105529440D01*
X154367109Y-105548550D01*
X154347998Y-105558106D01*
X154309777Y-105567661D01*
X154281111Y-105567661D01*
X154242890Y-105558106D01*
X154223780Y-105548550D01*
X154204670Y-105529440D01*
X154195114Y-105500774D01*
X154195114Y-105481664D01*
X154204670Y-105452998D01*
X154214225Y-105443443D01*
X154195114Y-105271449D02*
X154195114Y-105309670D01*
X154204670Y-105328780D01*
X154214225Y-105338335D01*
X154242890Y-105357446D01*
X154281111Y-105367001D01*
X154357553Y-105367001D01*
X154376664Y-105357446D01*
X154386219Y-105347890D01*
X154395774Y-105328780D01*
X154395774Y-105290559D01*
X154386219Y-105271449D01*
X154376664Y-105261893D01*
X154357553Y-105252338D01*
X154309777Y-105252338D01*
X154290667Y-105261893D01*
X154281111Y-105271449D01*
X154271556Y-105290559D01*
X154271556Y-105328780D01*
X154281111Y-105347890D01*
X154290667Y-105357446D01*
X154309777Y-105367001D01*
X164536664Y-97823443D02*
X164546219Y-97832998D01*
X164555774Y-97861664D01*
X164555774Y-97880774D01*
X164546219Y-97909440D01*
X164527109Y-97928550D01*
X164507998Y-97938106D01*
X164469777Y-97947661D01*
X164441111Y-97947661D01*
X164402890Y-97938106D01*
X164383780Y-97928550D01*
X164364670Y-97909440D01*
X164355114Y-97880774D01*
X164355114Y-97861664D01*
X164364670Y-97832998D01*
X164374225Y-97823443D01*
X164355114Y-97756556D02*
X164355114Y-97622783D01*
X164555774Y-97708780D01*
X164536664Y-105443443D02*
X164546219Y-105452998D01*
X164555774Y-105481664D01*
X164555774Y-105500774D01*
X164546219Y-105529440D01*
X164527109Y-105548550D01*
X164507998Y-105558106D01*
X164469777Y-105567661D01*
X164441111Y-105567661D01*
X164402890Y-105558106D01*
X164383780Y-105548550D01*
X164364670Y-105529440D01*
X164355114Y-105500774D01*
X164355114Y-105481664D01*
X164364670Y-105452998D01*
X164374225Y-105443443D01*
X164441111Y-105328780D02*
X164431556Y-105347890D01*
X164422001Y-105357446D01*
X164402890Y-105367001D01*
X164393335Y-105367001D01*
X164374225Y-105357446D01*
X164364670Y-105347890D01*
X164355114Y-105328780D01*
X164355114Y-105290559D01*
X164364670Y-105271449D01*
X164374225Y-105261893D01*
X164393335Y-105252338D01*
X164402890Y-105252338D01*
X164422001Y-105261893D01*
X164431556Y-105271449D01*
X164441111Y-105290559D01*
X164441111Y-105328780D01*
X164450667Y-105347890D01*
X164460222Y-105357446D01*
X164479332Y-105367001D01*
X164517553Y-105367001D01*
X164536664Y-105357446D01*
X164546219Y-105347890D01*
X164555774Y-105328780D01*
X164555774Y-105290559D01*
X164546219Y-105271449D01*
X164536664Y-105261893D01*
X164517553Y-105252338D01*
X164479332Y-105252338D01*
X164460222Y-105261893D01*
X164450667Y-105271449D01*
X164441111Y-105290559D01*
D10*
X156421432Y-71415238D02*
X156021432Y-71415238D01*
X156021432Y-71320000D01*
X156040480Y-71262857D01*
X156078575Y-71224761D01*
X156116670Y-71205714D01*
X156192860Y-71186666D01*
X156250003Y-71186666D01*
X156326194Y-71205714D01*
X156364289Y-71224761D01*
X156402384Y-71262857D01*
X156421432Y-71320000D01*
X156421432Y-71415238D01*
X156421432Y-70805714D02*
X156421432Y-71034285D01*
X156421432Y-70920000D02*
X156021432Y-70920000D01*
X156078575Y-70958095D01*
X156116670Y-70996190D01*
X156135718Y-71034285D01*
X144991432Y-95545238D02*
X144591432Y-95545238D01*
X144591432Y-95450000D01*
X144610480Y-95392857D01*
X144648575Y-95354761D01*
X144686670Y-95335714D01*
X144762860Y-95316666D01*
X144820003Y-95316666D01*
X144896194Y-95335714D01*
X144934289Y-95354761D01*
X144972384Y-95392857D01*
X144991432Y-95450000D01*
X144991432Y-95545238D01*
X144629527Y-95164285D02*
X144610480Y-95145238D01*
X144591432Y-95107142D01*
X144591432Y-95011904D01*
X144610480Y-94973809D01*
X144629527Y-94954761D01*
X144667622Y-94935714D01*
X144705718Y-94935714D01*
X144762860Y-94954761D01*
X144991432Y-95183333D01*
X144991432Y-94935714D01*
X144991432Y-104435238D02*
X144591432Y-104435238D01*
X144591432Y-104340000D01*
X144610480Y-104282857D01*
X144648575Y-104244761D01*
X144686670Y-104225714D01*
X144762860Y-104206666D01*
X144820003Y-104206666D01*
X144896194Y-104225714D01*
X144934289Y-104244761D01*
X144972384Y-104282857D01*
X144991432Y-104340000D01*
X144991432Y-104435238D01*
X144591432Y-104073333D02*
X144591432Y-103825714D01*
X144743813Y-103959047D01*
X144743813Y-103901904D01*
X144762860Y-103863809D01*
X144781908Y-103844761D01*
X144820003Y-103825714D01*
X144915241Y-103825714D01*
X144953337Y-103844761D01*
X144972384Y-103863809D01*
X144991432Y-103901904D01*
X144991432Y-104016190D01*
X144972384Y-104054285D01*
X144953337Y-104073333D01*
X152611432Y-91735238D02*
X152211432Y-91735238D01*
X152211432Y-91640000D01*
X152230480Y-91582857D01*
X152268575Y-91544761D01*
X152306670Y-91525714D01*
X152382860Y-91506666D01*
X152440003Y-91506666D01*
X152516194Y-91525714D01*
X152554289Y-91544761D01*
X152592384Y-91582857D01*
X152611432Y-91640000D01*
X152611432Y-91735238D01*
X152344765Y-91163809D02*
X152611432Y-91163809D01*
X152192384Y-91259047D02*
X152478099Y-91354285D01*
X152478099Y-91106666D01*
X152611432Y-100625238D02*
X152211432Y-100625238D01*
X152211432Y-100530000D01*
X152230480Y-100472857D01*
X152268575Y-100434761D01*
X152306670Y-100415714D01*
X152382860Y-100396666D01*
X152440003Y-100396666D01*
X152516194Y-100415714D01*
X152554289Y-100434761D01*
X152592384Y-100472857D01*
X152611432Y-100530000D01*
X152611432Y-100625238D01*
X152211432Y-100034761D02*
X152211432Y-100225238D01*
X152401908Y-100244285D01*
X152382860Y-100225238D01*
X152363813Y-100187142D01*
X152363813Y-100091904D01*
X152382860Y-100053809D01*
X152401908Y-100034761D01*
X152440003Y-100015714D01*
X152535241Y-100015714D01*
X152573337Y-100034761D01*
X152592384Y-100053809D01*
X152611432Y-100091904D01*
X152611432Y-100187142D01*
X152592384Y-100225238D01*
X152573337Y-100244285D01*
D15*
X128101766Y-81405480D02*
X128101766Y-82119766D01*
X128054147Y-82262623D01*
X127958909Y-82357861D01*
X127816052Y-82405480D01*
X127720814Y-82405480D01*
X129101766Y-82405480D02*
X128530338Y-82405480D01*
X128816052Y-82405480D02*
X128816052Y-81405480D01*
X128720814Y-81548338D01*
X128625576Y-81643576D01*
X128530338Y-81691195D01*
D20*
X134586556Y-75681174D02*
X134491004Y-75681174D01*
X134491004Y-75480514D01*
X134758550Y-75681174D02*
X134643888Y-75681174D01*
X134701219Y-75681174D02*
X134701219Y-75480514D01*
X134682109Y-75509180D01*
X134662998Y-75528290D01*
X134643888Y-75537846D01*
X134586556Y-80761174D02*
X134491004Y-80761174D01*
X134491004Y-80560514D01*
X134643888Y-80579625D02*
X134653443Y-80570070D01*
X134672553Y-80560514D01*
X134720330Y-80560514D01*
X134739440Y-80570070D01*
X134748995Y-80579625D01*
X134758550Y-80598735D01*
X134758550Y-80617846D01*
X134748995Y-80646511D01*
X134634332Y-80761174D01*
X134758550Y-80761174D01*
X134586556Y-70601174D02*
X134491004Y-70601174D01*
X134491004Y-70400514D01*
X134634332Y-70400514D02*
X134758550Y-70400514D01*
X134691664Y-70476956D01*
X134720330Y-70476956D01*
X134739440Y-70486511D01*
X134748995Y-70496067D01*
X134758550Y-70515177D01*
X134758550Y-70562953D01*
X134748995Y-70582064D01*
X134739440Y-70591619D01*
X134720330Y-70601174D01*
X134662998Y-70601174D01*
X134643888Y-70591619D01*
X134634332Y-70582064D01*
X159986556Y-96001174D02*
X159891004Y-96001174D01*
X159891004Y-95800514D01*
X160139440Y-95867401D02*
X160139440Y-96001174D01*
X160091664Y-95790959D02*
X160043888Y-95934288D01*
X160168106Y-95934288D01*
X159986556Y-103621174D02*
X159891004Y-103621174D01*
X159891004Y-103420514D01*
X160148995Y-103420514D02*
X160053443Y-103420514D01*
X160043888Y-103516067D01*
X160053443Y-103506511D01*
X160072553Y-103496956D01*
X160120330Y-103496956D01*
X160139440Y-103506511D01*
X160148995Y-103516067D01*
X160158550Y-103535177D01*
X160158550Y-103582953D01*
X160148995Y-103602064D01*
X160139440Y-103611619D01*
X160120330Y-103621174D01*
X160072553Y-103621174D01*
X160053443Y-103611619D01*
X160043888Y-103602064D01*
X170146556Y-96001174D02*
X170051004Y-96001174D01*
X170051004Y-95800514D01*
X170299440Y-95800514D02*
X170261219Y-95800514D01*
X170242109Y-95810070D01*
X170232553Y-95819625D01*
X170213443Y-95848290D01*
X170203888Y-95886511D01*
X170203888Y-95962953D01*
X170213443Y-95982064D01*
X170222998Y-95991619D01*
X170242109Y-96001174D01*
X170280330Y-96001174D01*
X170299440Y-95991619D01*
X170308995Y-95982064D01*
X170318550Y-95962953D01*
X170318550Y-95915177D01*
X170308995Y-95896067D01*
X170299440Y-95886511D01*
X170280330Y-95876956D01*
X170242109Y-95876956D01*
X170222998Y-95886511D01*
X170213443Y-95896067D01*
X170203888Y-95915177D01*
X170146556Y-101081174D02*
X170051004Y-101081174D01*
X170051004Y-100880514D01*
X170194332Y-100880514D02*
X170328106Y-100880514D01*
X170242109Y-101081174D01*
X144261174Y-71153443D02*
X144165622Y-71220330D01*
X144261174Y-71268106D02*
X144060514Y-71268106D01*
X144060514Y-71191664D01*
X144070070Y-71172553D01*
X144079625Y-71162998D01*
X144098735Y-71153443D01*
X144127401Y-71153443D01*
X144146511Y-71162998D01*
X144156067Y-71172553D01*
X144165622Y-71191664D01*
X144165622Y-71268106D01*
X144261174Y-70962338D02*
X144261174Y-71077001D01*
X144261174Y-71019670D02*
X144060514Y-71019670D01*
X144089180Y-71038780D01*
X144108290Y-71057890D01*
X144117846Y-71077001D01*
X149341174Y-71153443D02*
X149245622Y-71220330D01*
X149341174Y-71268106D02*
X149140514Y-71268106D01*
X149140514Y-71191664D01*
X149150070Y-71172553D01*
X149159625Y-71162998D01*
X149178735Y-71153443D01*
X149207401Y-71153443D01*
X149226511Y-71162998D01*
X149236067Y-71172553D01*
X149245622Y-71191664D01*
X149245622Y-71268106D01*
X149159625Y-71077001D02*
X149150070Y-71067446D01*
X149140514Y-71048335D01*
X149140514Y-71000559D01*
X149150070Y-70981449D01*
X149159625Y-70971893D01*
X149178735Y-70962338D01*
X149197846Y-70962338D01*
X149226511Y-70971893D01*
X149341174Y-71086556D01*
X149341174Y-70962338D01*
D21*
X138917982Y-89281241D02*
X139323051Y-89281241D01*
X139370707Y-89257414D01*
X139394534Y-89233586D01*
X139418362Y-89185931D01*
X139418362Y-89090620D01*
X139394534Y-89042965D01*
X139370707Y-89019138D01*
X139323051Y-88995310D01*
X138917982Y-88995310D01*
X139418362Y-88494930D02*
X139418362Y-88780861D01*
X139418362Y-88637896D02*
X138917982Y-88637896D01*
X138989465Y-88685551D01*
X139037120Y-88733206D01*
X139060948Y-88780861D01*
X140926396Y-90222432D02*
X140926396Y-89984156D01*
X141069362Y-90270088D02*
X140568982Y-90103294D01*
X141069362Y-89936501D01*
X141069362Y-89769708D02*
X140568982Y-89769708D01*
X140568982Y-89650570D01*
X140592810Y-89579087D01*
X140640465Y-89531431D01*
X140688120Y-89507604D01*
X140783430Y-89483776D01*
X140854913Y-89483776D01*
X140950224Y-89507604D01*
X140997879Y-89531431D01*
X141045534Y-89579087D01*
X141069362Y-89650570D01*
X141069362Y-89769708D01*
X140568982Y-89316983D02*
X140568982Y-88983396D01*
X141069362Y-89197845D01*
X140568982Y-88840430D02*
X140568982Y-88506844D01*
X141069362Y-88721292D01*
X140735775Y-88101774D02*
X141069362Y-88101774D01*
X140545154Y-88220912D02*
X140902569Y-88340050D01*
X140902569Y-88030291D01*
X140568982Y-87887326D02*
X140568982Y-87553739D01*
X141069362Y-87768188D01*
D17*
X112836333Y-71622666D02*
X114106333Y-71622666D01*
X114360333Y-71707333D01*
X114529666Y-71876666D01*
X114614333Y-72130666D01*
X114614333Y-72300000D01*
X112836333Y-70014000D02*
X112836333Y-70352666D01*
X112921000Y-70522000D01*
X113005666Y-70606666D01*
X113259666Y-70776000D01*
X113598333Y-70860666D01*
X114275666Y-70860666D01*
X114445000Y-70776000D01*
X114529666Y-70691333D01*
X114614333Y-70522000D01*
X114614333Y-70183333D01*
X114529666Y-70014000D01*
X114445000Y-69929333D01*
X114275666Y-69844666D01*
X113852333Y-69844666D01*
X113683000Y-69929333D01*
X113598333Y-70014000D01*
X113513666Y-70183333D01*
X113513666Y-70522000D01*
X113598333Y-70691333D01*
X113683000Y-70776000D01*
X113852333Y-70860666D01*
X107121333Y-98292666D02*
X107121333Y-97446000D01*
X107629333Y-98462000D02*
X105851333Y-97869333D01*
X107629333Y-97276666D01*
X107629333Y-96684000D02*
X106444000Y-96684000D01*
X106782666Y-96684000D02*
X106613333Y-96599333D01*
X106528666Y-96514666D01*
X106444000Y-96345333D01*
X106444000Y-96176000D01*
X107629333Y-94821333D02*
X105851333Y-94821333D01*
X107544666Y-94821333D02*
X107629333Y-94990666D01*
X107629333Y-95329333D01*
X107544666Y-95498666D01*
X107460000Y-95583333D01*
X107290666Y-95668000D01*
X106782666Y-95668000D01*
X106613333Y-95583333D01*
X106528666Y-95498666D01*
X106444000Y-95329333D01*
X106444000Y-94990666D01*
X106528666Y-94821333D01*
X106444000Y-93212666D02*
X107629333Y-93212666D01*
X106444000Y-93974666D02*
X107375333Y-93974666D01*
X107544666Y-93890000D01*
X107629333Y-93720666D01*
X107629333Y-93466666D01*
X107544666Y-93297333D01*
X107460000Y-93212666D01*
X107629333Y-92366000D02*
X106444000Y-92366000D01*
X105851333Y-92366000D02*
X105936000Y-92450666D01*
X106020666Y-92366000D01*
X105936000Y-92281333D01*
X105851333Y-92366000D01*
X106020666Y-92366000D01*
X106444000Y-91519333D02*
X107629333Y-91519333D01*
X106613333Y-91519333D02*
X106528666Y-91434666D01*
X106444000Y-91265333D01*
X106444000Y-91011333D01*
X106528666Y-90842000D01*
X106698000Y-90757333D01*
X107629333Y-90757333D01*
X107629333Y-89656666D02*
X107544666Y-89826000D01*
X107460000Y-89910666D01*
X107290666Y-89995333D01*
X106782666Y-89995333D01*
X106613333Y-89910666D01*
X106528666Y-89826000D01*
X106444000Y-89656666D01*
X106444000Y-89402666D01*
X106528666Y-89233333D01*
X106613333Y-89148666D01*
X106782666Y-89064000D01*
X107290666Y-89064000D01*
X107460000Y-89148666D01*
X107544666Y-89233333D01*
X107629333Y-89402666D01*
X107629333Y-89656666D01*
X107798666Y-88725333D02*
X107798666Y-87370666D01*
X107629333Y-86947333D02*
X105851333Y-86947333D01*
X107629333Y-85931333D01*
X105851333Y-85931333D01*
X107629333Y-84322666D02*
X106698000Y-84322666D01*
X106528666Y-84407333D01*
X106444000Y-84576666D01*
X106444000Y-84915333D01*
X106528666Y-85084666D01*
X107544666Y-84322666D02*
X107629333Y-84492000D01*
X107629333Y-84915333D01*
X107544666Y-85084666D01*
X107375333Y-85169333D01*
X107206000Y-85169333D01*
X107036666Y-85084666D01*
X106952000Y-84915333D01*
X106952000Y-84492000D01*
X106867333Y-84322666D01*
X106444000Y-83476000D02*
X107629333Y-83476000D01*
X106613333Y-83476000D02*
X106528666Y-83391333D01*
X106444000Y-83222000D01*
X106444000Y-82968000D01*
X106528666Y-82798666D01*
X106698000Y-82714000D01*
X107629333Y-82714000D01*
X107629333Y-81613333D02*
X107544666Y-81782666D01*
X107460000Y-81867333D01*
X107290666Y-81952000D01*
X106782666Y-81952000D01*
X106613333Y-81867333D01*
X106528666Y-81782666D01*
X106444000Y-81613333D01*
X106444000Y-81359333D01*
X106528666Y-81190000D01*
X106613333Y-81105333D01*
X106782666Y-81020666D01*
X107290666Y-81020666D01*
X107460000Y-81105333D01*
X107544666Y-81190000D01*
X107629333Y-81359333D01*
X107629333Y-81613333D01*
X107798666Y-80682000D02*
X107798666Y-79327333D01*
X107629333Y-78904000D02*
X105851333Y-78904000D01*
X106698000Y-78904000D02*
X106698000Y-77888000D01*
X107629333Y-77888000D02*
X105851333Y-77888000D01*
X107544666Y-76364000D02*
X107629333Y-76533333D01*
X107629333Y-76872000D01*
X107544666Y-77041333D01*
X107375333Y-77126000D01*
X106698000Y-77126000D01*
X106528666Y-77041333D01*
X106444000Y-76872000D01*
X106444000Y-76533333D01*
X106528666Y-76364000D01*
X106698000Y-76279333D01*
X106867333Y-76279333D01*
X107036666Y-77126000D01*
X107629333Y-74755333D02*
X106698000Y-74755333D01*
X106528666Y-74840000D01*
X106444000Y-75009333D01*
X106444000Y-75348000D01*
X106528666Y-75517333D01*
X107544666Y-74755333D02*
X107629333Y-74924666D01*
X107629333Y-75348000D01*
X107544666Y-75517333D01*
X107375333Y-75602000D01*
X107206000Y-75602000D01*
X107036666Y-75517333D01*
X106952000Y-75348000D01*
X106952000Y-74924666D01*
X106867333Y-74755333D01*
X107629333Y-73146666D02*
X105851333Y-73146666D01*
X107544666Y-73146666D02*
X107629333Y-73316000D01*
X107629333Y-73654666D01*
X107544666Y-73824000D01*
X107460000Y-73908666D01*
X107290666Y-73993333D01*
X106782666Y-73993333D01*
X106613333Y-73908666D01*
X106528666Y-73824000D01*
X106444000Y-73654666D01*
X106444000Y-73316000D01*
X106528666Y-73146666D01*
X107544666Y-71622666D02*
X107629333Y-71792000D01*
X107629333Y-72130666D01*
X107544666Y-72300000D01*
X107375333Y-72384666D01*
X106698000Y-72384666D01*
X106528666Y-72300000D01*
X106444000Y-72130666D01*
X106444000Y-71792000D01*
X106528666Y-71622666D01*
X106698000Y-71538000D01*
X106867333Y-71538000D01*
X107036666Y-72384666D01*
X107629333Y-70776000D02*
X106444000Y-70776000D01*
X106782666Y-70776000D02*
X106613333Y-70691333D01*
X106528666Y-70606666D01*
X106444000Y-70437333D01*
X106444000Y-70268000D01*
D22*
X94537471Y-74509380D02*
X94537471Y-75318904D01*
X94585090Y-75414142D01*
X94632709Y-75461761D01*
X94727947Y-75509380D01*
X94918423Y-75509380D01*
X95013661Y-75461761D01*
X95061280Y-75414142D01*
X95108900Y-75318904D01*
X95108900Y-74509380D01*
X95585090Y-74985571D02*
X95918423Y-74985571D01*
X96061280Y-75509380D02*
X95585090Y-75509380D01*
X95585090Y-74509380D01*
X96061280Y-74509380D01*
X96394614Y-74509380D02*
X97061280Y-75509380D01*
X97061280Y-74509380D02*
X96394614Y-75509380D01*
X97299376Y-74509380D02*
X97870804Y-74509380D01*
X97585090Y-75509380D02*
X97585090Y-74509380D01*
X98727947Y-75509380D02*
X98156519Y-75509380D01*
X98442233Y-75509380D02*
X98442233Y-74509380D01*
X98346995Y-74652238D01*
X98251757Y-74747476D01*
X98156519Y-74795095D01*
D23*
X162552380Y-81333333D02*
X163266666Y-81333333D01*
X163409523Y-81380952D01*
X163504761Y-81476190D01*
X163552380Y-81619047D01*
X163552380Y-81714285D01*
X162647619Y-80904761D02*
X162600000Y-80857142D01*
X162552380Y-80761904D01*
X162552380Y-80523809D01*
X162600000Y-80428571D01*
X162647619Y-80380952D01*
X162742857Y-80333333D01*
X162838095Y-80333333D01*
X162980952Y-80380952D01*
X163552380Y-80952380D01*
X163552380Y-80333333D01*
D17*
X152488900Y-59960328D02*
X152488900Y-61048900D01*
X152416328Y-61266614D01*
X152271185Y-61411757D01*
X152053471Y-61484328D01*
X151908328Y-61484328D01*
X153069471Y-59960328D02*
X154012900Y-59960328D01*
X153504900Y-60540900D01*
X153722614Y-60540900D01*
X153867757Y-60613471D01*
X153940328Y-60686042D01*
X154012900Y-60831185D01*
X154012900Y-61194042D01*
X153940328Y-61339185D01*
X153867757Y-61411757D01*
X153722614Y-61484328D01*
X153287185Y-61484328D01*
X153142042Y-61411757D01*
X153069471Y-61339185D01*
X134222000Y-105664548D02*
X134222000Y-106753120D01*
X134149428Y-106970834D01*
X134004285Y-107115977D01*
X133786571Y-107188548D01*
X133641428Y-107188548D01*
X134802571Y-105664548D02*
X135818571Y-105664548D01*
X135165428Y-107188548D01*
X88565428Y-102508000D02*
X89654000Y-102508000D01*
X89871714Y-102580571D01*
X90016857Y-102725714D01*
X90089428Y-102943428D01*
X90089428Y-103088571D01*
X89218571Y-101564571D02*
X89146000Y-101709714D01*
X89073428Y-101782285D01*
X88928285Y-101854857D01*
X88855714Y-101854857D01*
X88710571Y-101782285D01*
X88638000Y-101709714D01*
X88565428Y-101564571D01*
X88565428Y-101274285D01*
X88638000Y-101129142D01*
X88710571Y-101056571D01*
X88855714Y-100984000D01*
X88928285Y-100984000D01*
X89073428Y-101056571D01*
X89146000Y-101129142D01*
X89218571Y-101274285D01*
X89218571Y-101564571D01*
X89291142Y-101709714D01*
X89363714Y-101782285D01*
X89508857Y-101854857D01*
X89799142Y-101854857D01*
X89944285Y-101782285D01*
X90016857Y-101709714D01*
X90089428Y-101564571D01*
X90089428Y-101274285D01*
X90016857Y-101129142D01*
X89944285Y-101056571D01*
X89799142Y-100984000D01*
X89508857Y-100984000D01*
X89363714Y-101056571D01*
X89291142Y-101129142D01*
X89218571Y-101274285D01*
D15*
X111693366Y-108697780D02*
X111693366Y-109412066D01*
X111645747Y-109554923D01*
X111550509Y-109650161D01*
X111407652Y-109697780D01*
X111312414Y-109697780D01*
X112645747Y-108697780D02*
X112169557Y-108697780D01*
X112121938Y-109173971D01*
X112169557Y-109126352D01*
X112264795Y-109078733D01*
X112502890Y-109078733D01*
X112598128Y-109126352D01*
X112645747Y-109173971D01*
X112693366Y-109269209D01*
X112693366Y-109507304D01*
X112645747Y-109602542D01*
X112598128Y-109650161D01*
X112502890Y-109697780D01*
X112264795Y-109697780D01*
X112169557Y-109650161D01*
X112121938Y-109602542D01*
M02*
