G04 #@! TF.GenerationSoftware,KiCad,Pcbnew,(2017-06-02 revision ac9a64a)-master*
G04 #@! TF.CreationDate,2017-06-11T20:54:29+02:00*
G04 #@! TF.ProjectId,torchctrl,746F7263686374726C2E6B696361645F,rev?*
G04 #@! TF.FileFunction,Copper,L1,Top,Signal*
G04 #@! TF.FilePolarity,Positive*
%FSLAX46Y46*%
G04 Gerber Fmt 4.6, Leading zero omitted, Abs format (unit mm)*
G04 Created by KiCad (PCBNEW (2017-06-02 revision ac9a64a)-master) date Sun Jun 11 20:54:29 2017*
%MOMM*%
%LPD*%
G01*
G04 APERTURE LIST*
%ADD10C,0.100000*%
%ADD11C,0.300000*%
%ADD12C,5.000000*%
%ADD13O,1.998980X1.998980*%
%ADD14R,1.998980X1.998980*%
%ADD15R,1.000760X0.899160*%
%ADD16R,0.850900X0.850900*%
%ADD17R,2.032000X1.727200*%
%ADD18O,2.032000X1.727200*%
%ADD19R,0.899160X1.000760*%
%ADD20R,1.470660X0.419100*%
%ADD21R,2.286000X1.574800*%
%ADD22O,2.286000X1.574800*%
%ADD23O,2.000000X1.500000*%
%ADD24R,2.000000X1.500000*%
%ADD25C,1.500000*%
%ADD26C,2.900000*%
%ADD27R,1.727200X2.032000*%
%ADD28O,1.727200X2.032000*%
%ADD29C,0.600000*%
%ADD30C,3.600000*%
%ADD31C,0.250000*%
%ADD32C,0.500000*%
%ADD33C,0.400000*%
%ADD34C,1.200000*%
%ADD35C,3.600000*%
%ADD36C,0.254000*%
G04 APERTURE END LIST*
D10*
D11*
X144285714Y-108903571D02*
X145142857Y-108903571D01*
X144714285Y-110403571D02*
X144714285Y-108903571D01*
X145857142Y-110403571D02*
X145714285Y-110332142D01*
X145642857Y-110260714D01*
X145571428Y-110117857D01*
X145571428Y-109689285D01*
X145642857Y-109546428D01*
X145714285Y-109475000D01*
X145857142Y-109403571D01*
X146071428Y-109403571D01*
X146214285Y-109475000D01*
X146285714Y-109546428D01*
X146357142Y-109689285D01*
X146357142Y-110117857D01*
X146285714Y-110260714D01*
X146214285Y-110332142D01*
X146071428Y-110403571D01*
X145857142Y-110403571D01*
X147000000Y-110403571D02*
X147000000Y-109403571D01*
X147000000Y-109689285D02*
X147071428Y-109546428D01*
X147142857Y-109475000D01*
X147285714Y-109403571D01*
X147428571Y-109403571D01*
X148571428Y-110332142D02*
X148428571Y-110403571D01*
X148142857Y-110403571D01*
X148000000Y-110332142D01*
X147928571Y-110260714D01*
X147857142Y-110117857D01*
X147857142Y-109689285D01*
X147928571Y-109546428D01*
X148000000Y-109475000D01*
X148142857Y-109403571D01*
X148428571Y-109403571D01*
X148571428Y-109475000D01*
X149214285Y-110403571D02*
X149214285Y-108903571D01*
X149857142Y-110403571D02*
X149857142Y-109617857D01*
X149785714Y-109475000D01*
X149642857Y-109403571D01*
X149428571Y-109403571D01*
X149285714Y-109475000D01*
X149214285Y-109546428D01*
X150571428Y-110403571D02*
X150571428Y-108903571D01*
X150571428Y-109617857D02*
X151428571Y-109617857D01*
X151428571Y-110403571D02*
X151428571Y-108903571D01*
X152714285Y-110332142D02*
X152571428Y-110403571D01*
X152285714Y-110403571D01*
X152142857Y-110332142D01*
X152071428Y-110189285D01*
X152071428Y-109617857D01*
X152142857Y-109475000D01*
X152285714Y-109403571D01*
X152571428Y-109403571D01*
X152714285Y-109475000D01*
X152785714Y-109617857D01*
X152785714Y-109760714D01*
X152071428Y-109903571D01*
X153428571Y-110403571D02*
X153428571Y-109403571D01*
X153428571Y-108903571D02*
X153357142Y-108975000D01*
X153428571Y-109046428D01*
X153500000Y-108975000D01*
X153428571Y-108903571D01*
X153428571Y-109046428D01*
X154785714Y-109403571D02*
X154785714Y-110617857D01*
X154714285Y-110760714D01*
X154642857Y-110832142D01*
X154500000Y-110903571D01*
X154285714Y-110903571D01*
X154142857Y-110832142D01*
X154785714Y-110332142D02*
X154642857Y-110403571D01*
X154357142Y-110403571D01*
X154214285Y-110332142D01*
X154142857Y-110260714D01*
X154071428Y-110117857D01*
X154071428Y-109689285D01*
X154142857Y-109546428D01*
X154214285Y-109475000D01*
X154357142Y-109403571D01*
X154642857Y-109403571D01*
X154785714Y-109475000D01*
X155500000Y-110403571D02*
X155500000Y-108903571D01*
X156142857Y-110403571D02*
X156142857Y-109617857D01*
X156071428Y-109475000D01*
X155928571Y-109403571D01*
X155714285Y-109403571D01*
X155571428Y-109475000D01*
X155500000Y-109546428D01*
X156642857Y-109403571D02*
X157214285Y-109403571D01*
X156857142Y-108903571D02*
X156857142Y-110189285D01*
X156928571Y-110332142D01*
X157071428Y-110403571D01*
X157214285Y-110403571D01*
X158571428Y-110260714D02*
X158500000Y-110332142D01*
X158285714Y-110403571D01*
X158142857Y-110403571D01*
X157928571Y-110332142D01*
X157785714Y-110189285D01*
X157714285Y-110046428D01*
X157642857Y-109760714D01*
X157642857Y-109546428D01*
X157714285Y-109260714D01*
X157785714Y-109117857D01*
X157928571Y-108975000D01*
X158142857Y-108903571D01*
X158285714Y-108903571D01*
X158500000Y-108975000D01*
X158571428Y-109046428D01*
X159000000Y-108903571D02*
X159857142Y-108903571D01*
X159428571Y-110403571D02*
X159428571Y-108903571D01*
X161214285Y-110403571D02*
X160714285Y-109689285D01*
X160357142Y-110403571D02*
X160357142Y-108903571D01*
X160928571Y-108903571D01*
X161071428Y-108975000D01*
X161142857Y-109046428D01*
X161214285Y-109189285D01*
X161214285Y-109403571D01*
X161142857Y-109546428D01*
X161071428Y-109617857D01*
X160928571Y-109689285D01*
X160357142Y-109689285D01*
X162571428Y-110403571D02*
X161857142Y-110403571D01*
X161857142Y-108903571D01*
X142892857Y-111453571D02*
X143392857Y-112953571D01*
X143892857Y-111453571D01*
X144392857Y-112810714D02*
X144464285Y-112882142D01*
X144392857Y-112953571D01*
X144321428Y-112882142D01*
X144392857Y-112810714D01*
X144392857Y-112953571D01*
X145392857Y-111453571D02*
X145535714Y-111453571D01*
X145678571Y-111525000D01*
X145750000Y-111596428D01*
X145821428Y-111739285D01*
X145892857Y-112025000D01*
X145892857Y-112382142D01*
X145821428Y-112667857D01*
X145750000Y-112810714D01*
X145678571Y-112882142D01*
X145535714Y-112953571D01*
X145392857Y-112953571D01*
X145250000Y-112882142D01*
X145178571Y-112810714D01*
X145107142Y-112667857D01*
X145035714Y-112382142D01*
X145035714Y-112025000D01*
X145107142Y-111739285D01*
X145178571Y-111596428D01*
X145250000Y-111525000D01*
X145392857Y-111453571D01*
X146464285Y-111596428D02*
X146535714Y-111525000D01*
X146678571Y-111453571D01*
X147035714Y-111453571D01*
X147178571Y-111525000D01*
X147250000Y-111596428D01*
X147321428Y-111739285D01*
X147321428Y-111882142D01*
X147250000Y-112096428D01*
X146392857Y-112953571D01*
X147321428Y-112953571D01*
X147964285Y-112382142D02*
X149107142Y-112382142D01*
X150464285Y-112953571D02*
X150464285Y-111453571D01*
X150464285Y-112882142D02*
X150321428Y-112953571D01*
X150035714Y-112953571D01*
X149892857Y-112882142D01*
X149821428Y-112810714D01*
X149750000Y-112667857D01*
X149750000Y-112239285D01*
X149821428Y-112096428D01*
X149892857Y-112025000D01*
X150035714Y-111953571D01*
X150321428Y-111953571D01*
X150464285Y-112025000D01*
X151750000Y-112882142D02*
X151607142Y-112953571D01*
X151321428Y-112953571D01*
X151178571Y-112882142D01*
X151107142Y-112739285D01*
X151107142Y-112167857D01*
X151178571Y-112025000D01*
X151321428Y-111953571D01*
X151607142Y-111953571D01*
X151750000Y-112025000D01*
X151821428Y-112167857D01*
X151821428Y-112310714D01*
X151107142Y-112453571D01*
X152321428Y-111953571D02*
X152678571Y-112953571D01*
X153035714Y-111953571D01*
X153607142Y-112810714D02*
X153678571Y-112882142D01*
X153607142Y-112953571D01*
X153535714Y-112882142D01*
X153607142Y-112810714D01*
X153607142Y-112953571D01*
X155750000Y-111453571D02*
X155892857Y-111453571D01*
X156035714Y-111525000D01*
X156107142Y-111596428D01*
X156178571Y-111739285D01*
X156250000Y-112025000D01*
X156250000Y-112382142D01*
X156178571Y-112667857D01*
X156107142Y-112810714D01*
X156035714Y-112882142D01*
X155892857Y-112953571D01*
X155750000Y-112953571D01*
X155607142Y-112882142D01*
X155535714Y-112810714D01*
X155464285Y-112667857D01*
X155392857Y-112382142D01*
X155392857Y-112025000D01*
X155464285Y-111739285D01*
X155535714Y-111596428D01*
X155607142Y-111525000D01*
X155750000Y-111453571D01*
X157535714Y-111453571D02*
X157250000Y-111453571D01*
X157107142Y-111525000D01*
X157035714Y-111596428D01*
X156892857Y-111810714D01*
X156821428Y-112096428D01*
X156821428Y-112667857D01*
X156892857Y-112810714D01*
X156964285Y-112882142D01*
X157107142Y-112953571D01*
X157392857Y-112953571D01*
X157535714Y-112882142D01*
X157607142Y-112810714D01*
X157678571Y-112667857D01*
X157678571Y-112310714D01*
X157607142Y-112167857D01*
X157535714Y-112096428D01*
X157392857Y-112025000D01*
X157107142Y-112025000D01*
X156964285Y-112096428D01*
X156892857Y-112167857D01*
X156821428Y-112310714D01*
X159392857Y-111382142D02*
X158107142Y-113310714D01*
X159821428Y-111596428D02*
X159892857Y-111525000D01*
X160035714Y-111453571D01*
X160392857Y-111453571D01*
X160535714Y-111525000D01*
X160607142Y-111596428D01*
X160678571Y-111739285D01*
X160678571Y-111882142D01*
X160607142Y-112096428D01*
X159750000Y-112953571D01*
X160678571Y-112953571D01*
X161607142Y-111453571D02*
X161750000Y-111453571D01*
X161892857Y-111525000D01*
X161964285Y-111596428D01*
X162035714Y-111739285D01*
X162107142Y-112025000D01*
X162107142Y-112382142D01*
X162035714Y-112667857D01*
X161964285Y-112810714D01*
X161892857Y-112882142D01*
X161750000Y-112953571D01*
X161607142Y-112953571D01*
X161464285Y-112882142D01*
X161392857Y-112810714D01*
X161321428Y-112667857D01*
X161250000Y-112382142D01*
X161250000Y-112025000D01*
X161321428Y-111739285D01*
X161392857Y-111596428D01*
X161464285Y-111525000D01*
X161607142Y-111453571D01*
X163535714Y-112953571D02*
X162678571Y-112953571D01*
X163107142Y-112953571D02*
X163107142Y-111453571D01*
X162964285Y-111667857D01*
X162821428Y-111810714D01*
X162678571Y-111882142D01*
X164035714Y-111453571D02*
X165035714Y-111453571D01*
X164392857Y-112953571D01*
D12*
X110000000Y-63000000D03*
X93662500Y-81851500D03*
X108407200Y-105321100D03*
X170000000Y-110000000D03*
D13*
X128270000Y-59000000D03*
D14*
X125730000Y-59000000D03*
D15*
X139700000Y-70368160D03*
X139700000Y-71871840D03*
X139700000Y-75448160D03*
X139700000Y-76951840D03*
X139700000Y-80528160D03*
X139700000Y-82031840D03*
X151130000Y-84338160D03*
X151130000Y-85841840D03*
X154940000Y-97038160D03*
X154940000Y-98541840D03*
X154940000Y-104658160D03*
X154940000Y-106161840D03*
X165100000Y-97038160D03*
X165100000Y-98541840D03*
X165100000Y-104658160D03*
X165100000Y-106161840D03*
D16*
X154940000Y-72793860D03*
X154940000Y-69446140D03*
X143510000Y-96923860D03*
X143510000Y-93576140D03*
X143510000Y-105813860D03*
X143510000Y-102466140D03*
X151130000Y-93113860D03*
X151130000Y-89766140D03*
X151130000Y-102003860D03*
X151130000Y-98656140D03*
D17*
X128270000Y-71120000D03*
D18*
X128270000Y-73660000D03*
X128270000Y-76200000D03*
X128270000Y-78740000D03*
D19*
X135371840Y-76200000D03*
X133868160Y-76200000D03*
X135371840Y-81280000D03*
X133868160Y-81280000D03*
X135371840Y-71120000D03*
X133868160Y-71120000D03*
X160771840Y-96520000D03*
X159268160Y-96520000D03*
X160771840Y-104140000D03*
X159268160Y-104140000D03*
X170931840Y-96520000D03*
X169428160Y-96520000D03*
X170931840Y-101600000D03*
X169428160Y-101600000D03*
D15*
X144780000Y-70368160D03*
X144780000Y-71871840D03*
X149860000Y-70368160D03*
X149860000Y-71871840D03*
D20*
X136900920Y-88574880D03*
X136900920Y-89225120D03*
X136900920Y-89875360D03*
X136900920Y-90525600D03*
X142494000Y-86634320D03*
X136900920Y-86624160D03*
X136900920Y-87274400D03*
X136900920Y-87924640D03*
X142499080Y-91175840D03*
X142499080Y-90525600D03*
X142499080Y-89875360D03*
X142499080Y-89225120D03*
X142499080Y-88574880D03*
X142499080Y-87924640D03*
X136900920Y-91175840D03*
X142494000Y-87274400D03*
D21*
X102380000Y-65950000D03*
D22*
X102380000Y-68490000D03*
X102380000Y-71030000D03*
X102380000Y-73570000D03*
X102380000Y-76110000D03*
X102380000Y-78650000D03*
X102380000Y-81190000D03*
X102380000Y-83730000D03*
X102380000Y-86270000D03*
X102380000Y-88810000D03*
X102380000Y-91350000D03*
X102380000Y-93890000D03*
X102380000Y-96430000D03*
X102380000Y-98970000D03*
X102380000Y-101510000D03*
X117620000Y-101510000D03*
X117620000Y-98970000D03*
X117620000Y-96430000D03*
X117620000Y-93890000D03*
X117620000Y-91350000D03*
X117620000Y-88810000D03*
X117620000Y-86270000D03*
X117620000Y-83730000D03*
X117620000Y-81190000D03*
X117620000Y-78650000D03*
X117620000Y-76110000D03*
X117620000Y-73570000D03*
X117620000Y-71030000D03*
X117620000Y-68490000D03*
X117620000Y-65950000D03*
D23*
X96520000Y-60920000D03*
X93480000Y-60920000D03*
X93480000Y-63460000D03*
X96520000Y-63460000D03*
D24*
X96520000Y-71080000D03*
D23*
X93480000Y-71080000D03*
X96520000Y-68540000D03*
X93480000Y-68540000D03*
X96520000Y-66000000D03*
X93480000Y-66000000D03*
D25*
X165620000Y-81000000D03*
X165620000Y-78460000D03*
D13*
X144000000Y-59000000D03*
D14*
X136380000Y-59000000D03*
D13*
X138920000Y-59000000D03*
X141460000Y-59000000D03*
X146540000Y-59000000D03*
X149080000Y-59000000D03*
X130920000Y-111000000D03*
D14*
X138540000Y-111000000D03*
D13*
X136000000Y-111000000D03*
X133460000Y-111000000D03*
D26*
X95000000Y-94380000D03*
X95000000Y-99460000D03*
X95000000Y-104540000D03*
X95000000Y-109620000D03*
D27*
X120540000Y-109000000D03*
D28*
X118000000Y-109000000D03*
X115460000Y-109000000D03*
D12*
X170000000Y-60000000D03*
D29*
X151765000Y-95885000D03*
X154305000Y-93345000D03*
X154940000Y-100330000D03*
X137160000Y-82550000D03*
X142240000Y-77470000D03*
X152400000Y-73660000D03*
X142240000Y-73660000D03*
X149000000Y-87000000D03*
X147000000Y-88000000D03*
X140970000Y-99060000D03*
X137160000Y-101600000D03*
X142875000Y-78740000D03*
X147320000Y-78740000D03*
X113309400Y-75374500D03*
X99975205Y-70624700D03*
X99034600Y-68618100D03*
X98298000Y-66649600D03*
X120510300Y-104660700D03*
X130632200Y-102438200D03*
X121602500Y-97904300D03*
X114439700Y-76415900D03*
X115328700Y-77520800D03*
D30*
X121000000Y-59000000D03*
X88000000Y-87000000D03*
D31*
X151130000Y-84338160D02*
X151130000Y-80010000D01*
X157076140Y-69446140D02*
X154940000Y-69446140D01*
X158115000Y-70485000D02*
X157076140Y-69446140D01*
X158115000Y-74295000D02*
X158115000Y-70485000D01*
X156210000Y-76200000D02*
X158115000Y-74295000D01*
X154940000Y-76200000D02*
X156210000Y-76200000D01*
X151130000Y-80010000D02*
X154940000Y-76200000D01*
X151130000Y-89766140D02*
X151130000Y-89535000D01*
X151130000Y-89535000D02*
X152400000Y-88265000D01*
X152400000Y-88265000D02*
X154305000Y-88265000D01*
X151130000Y-84338160D02*
X152283160Y-84338160D01*
X151130000Y-96520000D02*
X151130000Y-98656140D01*
X151765000Y-95885000D02*
X151130000Y-96520000D01*
X154305000Y-86360000D02*
X154305000Y-88265000D01*
X154305000Y-88265000D02*
X154305000Y-93345000D01*
X152283160Y-84338160D02*
X154305000Y-86360000D01*
X142499080Y-87924640D02*
X145120360Y-87924640D01*
X148706840Y-84338160D02*
X151130000Y-84338160D01*
X145120360Y-87924640D02*
X148706840Y-84338160D01*
X149860000Y-70368160D02*
X151881840Y-70368160D01*
X151881840Y-70368160D02*
X152803860Y-69446140D01*
X152803860Y-69446140D02*
X154940000Y-69446140D01*
X144780000Y-70368160D02*
X149860000Y-70368160D01*
X139700000Y-70368160D02*
X144780000Y-70368160D01*
X135371840Y-71120000D02*
X136525000Y-71120000D01*
X137276840Y-70368160D02*
X139700000Y-70368160D01*
X136525000Y-71120000D02*
X137276840Y-70368160D01*
X165100000Y-98541840D02*
X154940000Y-98541840D01*
X154940000Y-98541840D02*
X154940000Y-100330000D01*
X139700000Y-82031840D02*
X138948160Y-82031840D01*
X138948160Y-82031840D02*
X138430000Y-82550000D01*
X138430000Y-82550000D02*
X137160000Y-82550000D01*
X137160000Y-82550000D02*
X133350000Y-86360000D01*
X133350000Y-86360000D02*
X133350000Y-90170000D01*
X138430000Y-82550000D02*
X137160000Y-82550000D01*
X138948160Y-82031840D02*
X138430000Y-82550000D01*
X139700000Y-76951840D02*
X141721840Y-76951840D01*
X141721840Y-76951840D02*
X142240000Y-77470000D01*
X139700000Y-71871840D02*
X139700000Y-72390000D01*
X153266140Y-72793860D02*
X154940000Y-72793860D01*
X152400000Y-73660000D02*
X153266140Y-72793860D01*
X140970000Y-73660000D02*
X142240000Y-73660000D01*
X139700000Y-72390000D02*
X140970000Y-73660000D01*
X128270000Y-73660000D02*
X137911840Y-73660000D01*
X137911840Y-73660000D02*
X139700000Y-71871840D01*
X142499080Y-89225120D02*
X145774880Y-89225120D01*
X145774880Y-89225120D02*
X146000000Y-89000000D01*
X142499080Y-89875360D02*
X145124640Y-89875360D01*
X145124640Y-89875360D02*
X146000000Y-89000000D01*
X146000000Y-89000000D02*
X147000000Y-88000000D01*
X142499080Y-88574880D02*
X146425120Y-88574880D01*
X150000000Y-87000000D02*
X151130000Y-85870000D01*
X149000000Y-87000000D02*
X150000000Y-87000000D01*
X146425120Y-88574880D02*
X147000000Y-88000000D01*
X151130000Y-85870000D02*
X151130000Y-85841840D01*
X143510000Y-105813860D02*
X138833860Y-105813860D01*
X138833860Y-105813860D02*
X135890000Y-102870000D01*
X140970000Y-99060000D02*
X143106140Y-96923860D01*
X135890000Y-102870000D02*
X137160000Y-101600000D01*
X143106140Y-96923860D02*
X143510000Y-96923860D01*
X136900920Y-89875360D02*
X134914640Y-89875360D01*
X134914640Y-89875360D02*
X133350000Y-91440000D01*
X134294880Y-89225120D02*
X136900920Y-89225120D01*
X133350000Y-90170000D02*
X134294880Y-89225120D01*
X133350000Y-100330000D02*
X133350000Y-91440000D01*
X133350000Y-91440000D02*
X133350000Y-90170000D01*
X138833860Y-105813860D02*
X133350000Y-100330000D01*
X154940000Y-106161840D02*
X143857980Y-106161840D01*
X143857980Y-106161840D02*
X143510000Y-105813860D01*
X154940000Y-106161840D02*
X165100000Y-106161840D01*
X139700000Y-75448160D02*
X143393160Y-75448160D01*
X143393160Y-75448160D02*
X144945000Y-77000000D01*
X142875000Y-86253320D02*
X142494000Y-86634320D01*
X142875000Y-86015000D02*
X142875000Y-86253320D01*
X144945000Y-83945000D02*
X142875000Y-86015000D01*
X144945000Y-77000000D02*
X144945000Y-83945000D01*
X144780000Y-71871840D02*
X144780000Y-74061320D01*
X144780000Y-74061320D02*
X143393160Y-75448160D01*
X142875000Y-85725000D02*
X142875000Y-86360000D01*
X144780000Y-83820000D02*
X142875000Y-85725000D01*
X144780000Y-76835000D02*
X144780000Y-83820000D01*
X143393160Y-75448160D02*
X144780000Y-76835000D01*
X135371840Y-76200000D02*
X135890000Y-76200000D01*
X136641840Y-75448160D02*
X139700000Y-75448160D01*
X135890000Y-76200000D02*
X136641840Y-75448160D01*
X149860000Y-71871840D02*
X149860000Y-76200000D01*
X141488160Y-80126840D02*
X141488160Y-80528160D01*
X142875000Y-78740000D02*
X141488160Y-80126840D01*
X149860000Y-76200000D02*
X147320000Y-78740000D01*
X139700000Y-80528160D02*
X141488160Y-80528160D01*
X136525000Y-86248240D02*
X136900920Y-86624160D01*
X136525000Y-85090000D02*
X136525000Y-86248240D01*
X137160000Y-84455000D02*
X136525000Y-85090000D01*
X140970000Y-84455000D02*
X137160000Y-84455000D01*
X142240000Y-83185000D02*
X140970000Y-84455000D01*
X142240000Y-81280000D02*
X142240000Y-83185000D01*
X141488160Y-80528160D02*
X142240000Y-81280000D01*
X135371840Y-81280000D02*
X137795000Y-81280000D01*
X138546840Y-80528160D02*
X139700000Y-80528160D01*
X137795000Y-81280000D02*
X138546840Y-80528160D01*
X151130000Y-93113860D02*
X151130000Y-93228160D01*
X151130000Y-93228160D02*
X154940000Y-97038160D01*
X143510000Y-93576140D02*
X150667720Y-93576140D01*
X150667720Y-93576140D02*
X151130000Y-93113860D01*
X136900920Y-87924640D02*
X139405360Y-87924640D01*
X140970000Y-93980000D02*
X143106140Y-93980000D01*
X139700000Y-92710000D02*
X140970000Y-93980000D01*
X139700000Y-88219280D02*
X139700000Y-92710000D01*
X139405360Y-87924640D02*
X139700000Y-88219280D01*
X143106140Y-93980000D02*
X143510000Y-93576140D01*
X159268160Y-96520000D02*
X155458160Y-96520000D01*
X155458160Y-96520000D02*
X154940000Y-97038160D01*
X136900920Y-91175840D02*
X136900920Y-98800920D01*
X140566140Y-102466140D02*
X143510000Y-102466140D01*
X136900920Y-98800920D02*
X140566140Y-102466140D01*
X143510000Y-102466140D02*
X150667720Y-102466140D01*
X150667720Y-102466140D02*
X151130000Y-102003860D01*
X154940000Y-104658160D02*
X151648160Y-104658160D01*
X151130000Y-104140000D02*
X151130000Y-102003860D01*
X151648160Y-104658160D02*
X151130000Y-104140000D01*
X159268160Y-104140000D02*
X155458160Y-104140000D01*
X155458160Y-104140000D02*
X154940000Y-104658160D01*
X165100000Y-97038160D02*
X163078160Y-97038160D01*
X162560000Y-96520000D02*
X160771840Y-96520000D01*
X163078160Y-97038160D02*
X162560000Y-96520000D01*
X169428160Y-96520000D02*
X165618160Y-96520000D01*
X165618160Y-96520000D02*
X165100000Y-97038160D01*
X165100000Y-104658160D02*
X161290000Y-104658160D01*
X161290000Y-104658160D02*
X160771840Y-104140000D01*
X169428160Y-101600000D02*
X165100000Y-101600000D01*
X165100000Y-104140000D02*
X165100000Y-104658160D01*
X165100000Y-101600000D02*
X165100000Y-104140000D01*
X128270000Y-76200000D02*
X133868160Y-76200000D01*
X128270000Y-78740000D02*
X130810000Y-81280000D01*
X130810000Y-81280000D02*
X133868160Y-81280000D01*
X163880800Y-87782400D02*
X163880800Y-82739200D01*
X163880800Y-82739200D02*
X165620000Y-81000000D01*
X165379400Y-89281000D02*
X163880800Y-87782400D01*
X170446700Y-89281000D02*
X165379400Y-89281000D01*
X174739300Y-93573600D02*
X170446700Y-89281000D01*
X174739300Y-98492120D02*
X174739300Y-93573600D01*
X170931840Y-101600000D02*
X171631420Y-101600000D01*
X171631420Y-101600000D02*
X174739300Y-98492120D01*
X161683700Y-80429100D02*
X163652800Y-78460000D01*
X163652800Y-78460000D02*
X165620000Y-78460000D01*
X161683700Y-88684100D02*
X161683700Y-80429100D01*
X164884100Y-91884500D02*
X161683700Y-88684100D01*
X170446700Y-91884500D02*
X164884100Y-91884500D01*
X172761720Y-94199520D02*
X170446700Y-91884500D01*
X172761720Y-95389700D02*
X172761720Y-94199520D01*
X170931840Y-96520000D02*
X171631420Y-96520000D01*
X171631420Y-96520000D02*
X172761720Y-95389700D01*
X107696000Y-80987900D02*
X113309400Y-75374500D01*
X103975100Y-80987900D02*
X107696000Y-80987900D01*
X102380000Y-81190000D02*
X103773000Y-81190000D01*
X103773000Y-81190000D02*
X103975100Y-80987900D01*
X120180100Y-98272600D02*
X120180100Y-88474500D01*
X120180100Y-88474500D02*
X117975600Y-86270000D01*
X117975600Y-86270000D02*
X117620000Y-86270000D01*
X121996200Y-100088700D02*
X120180100Y-98272600D01*
X121996200Y-105638600D02*
X121996200Y-100088700D01*
X121081800Y-106553000D02*
X121996200Y-105638600D01*
X119181000Y-106553000D02*
X121081800Y-106553000D01*
X118000000Y-109000000D02*
X118000000Y-107734000D01*
X118000000Y-107734000D02*
X119181000Y-106553000D01*
X97652200Y-68540000D02*
X100242200Y-65950000D01*
X100242200Y-65950000D02*
X102380000Y-65950000D01*
X96270000Y-68540000D02*
X97652200Y-68540000D01*
X94945200Y-72136000D02*
X98971290Y-76162090D01*
X98881100Y-76110000D02*
X102380000Y-76110000D01*
X93820190Y-66883490D02*
X94945200Y-68008500D01*
X94957900Y-68008500D02*
X94957900Y-72136000D01*
X93730000Y-66000000D02*
X93730000Y-66831400D01*
X99034600Y-68618100D02*
X99034600Y-69684095D01*
X99034600Y-69684095D02*
X99975205Y-70624700D01*
X97648400Y-66000000D02*
X98298000Y-66649600D01*
X96270000Y-66000000D02*
X97648400Y-66000000D01*
X91363800Y-62382400D02*
X92826200Y-60920000D01*
X92826200Y-60920000D02*
X93730000Y-60920000D01*
X91363800Y-73634600D02*
X91363800Y-62382400D01*
X96862900Y-79133700D02*
X91363800Y-73634600D01*
X96862900Y-83858100D02*
X96862900Y-79133700D01*
X98945700Y-85940900D02*
X96862900Y-83858100D01*
X98945700Y-94388700D02*
X98945700Y-85940900D01*
X102380000Y-96430000D02*
X100987000Y-96430000D01*
X100987000Y-96430000D02*
X98945700Y-94388700D01*
X104775000Y-98310700D02*
X104115700Y-98970000D01*
X104115700Y-98970000D02*
X102380000Y-98970000D01*
X104775000Y-97586800D02*
X104775000Y-98310700D01*
X102735600Y-98970000D02*
X102380000Y-98970000D01*
X105778300Y-96583500D02*
X104775000Y-97586800D01*
X105778300Y-95927300D02*
X105778300Y-96583500D01*
X106489500Y-89877900D02*
X106489500Y-95216100D01*
X106489500Y-95216100D02*
X105778300Y-95927300D01*
X104259190Y-87647590D02*
X106489500Y-89877900D01*
X97675700Y-78625700D02*
X97675700Y-83565195D01*
X97675700Y-83565195D02*
X101758095Y-87647590D01*
X101758095Y-87647590D02*
X104259190Y-87647590D01*
X92104990Y-73054990D02*
X97675700Y-78625700D01*
X93730000Y-63877000D02*
X92104990Y-65502010D01*
X92104990Y-65502010D02*
X92104990Y-73054990D01*
X93730000Y-63460000D02*
X93730000Y-63877000D01*
X116903500Y-104660700D02*
X120510300Y-104660700D01*
X112466700Y-100223900D02*
X116903500Y-104660700D01*
X112466700Y-82410300D02*
X112466700Y-100223900D01*
X117620000Y-78650000D02*
X116227000Y-78650000D01*
X116227000Y-78650000D02*
X112466700Y-82410300D01*
X130632200Y-102438200D02*
X130632200Y-103670100D01*
X130632200Y-103670100D02*
X136000000Y-109037900D01*
X136000000Y-109037900D02*
X136000000Y-111000000D01*
X121602500Y-93040200D02*
X121602500Y-97904300D01*
X121615200Y-79749600D02*
X121615200Y-93027500D01*
X121615200Y-93027500D02*
X121602500Y-93040200D01*
X117620000Y-76110000D02*
X117975600Y-76110000D01*
X117975600Y-76110000D02*
X121615200Y-79749600D01*
X107125600Y-83730000D02*
X114439700Y-76415900D01*
X102380000Y-83730000D02*
X107125600Y-83730000D01*
X106603800Y-86245700D02*
X115328700Y-77520800D01*
X103797300Y-86245700D02*
X106603800Y-86245700D01*
X102380000Y-86270000D02*
X103773000Y-86270000D01*
X103773000Y-86270000D02*
X103797300Y-86245700D01*
D32*
X124574300Y-71805800D02*
X125260100Y-71120000D01*
X125260100Y-71120000D02*
X128270000Y-71120000D01*
X119739800Y-71805800D02*
X124574300Y-71805800D01*
X117975600Y-73570000D02*
X119739800Y-71805800D01*
D33*
X101626205Y-72301100D02*
X97491100Y-72301100D01*
D32*
X97491100Y-72301100D02*
X96270000Y-71080000D01*
D31*
X101638905Y-72288400D02*
X101626205Y-72301100D01*
D33*
X103708200Y-72288400D02*
X101638905Y-72288400D01*
D32*
X104989800Y-73570000D02*
X103708200Y-72288400D01*
X117620000Y-73570000D02*
X104989800Y-73570000D01*
D34*
X130920000Y-111000000D02*
X122387600Y-111000000D01*
D32*
X122387600Y-111000000D02*
X120540000Y-109152400D01*
X120540000Y-109152400D02*
X120540000Y-109000000D01*
D34*
X124000000Y-79594400D02*
X124000000Y-106863610D01*
X124000000Y-106863610D02*
X121863610Y-109000000D01*
D32*
X117620000Y-73570000D02*
X117975600Y-73570000D01*
D34*
X117975600Y-73570000D02*
X124000000Y-79594400D01*
D35*
X95000000Y-109620000D02*
X96449999Y-111069999D01*
X96449999Y-111069999D02*
X97069999Y-111069999D01*
X97069999Y-111069999D02*
X97139998Y-111000000D01*
X119600359Y-113016010D02*
X121863610Y-110752759D01*
X97139998Y-111000000D02*
X103000000Y-111000000D01*
X103000000Y-111000000D02*
X105016010Y-113016010D01*
X105016010Y-113016010D02*
X119600359Y-113016010D01*
X121863610Y-110752759D02*
X121863610Y-109000000D01*
D31*
X128270000Y-71120000D02*
X133868160Y-71120000D01*
D35*
X121000000Y-59000000D02*
X124270509Y-59000000D01*
X93550001Y-92550001D02*
X88000000Y-87000000D01*
X95000000Y-94380000D02*
X93550001Y-92930001D01*
X93550001Y-92930001D02*
X93550001Y-92550001D01*
D36*
G36*
X118350604Y-57226384D02*
X117873544Y-58375272D01*
X117872458Y-59619270D01*
X118347512Y-60768989D01*
X119226384Y-61649396D01*
X120375272Y-62126456D01*
X121619270Y-62127542D01*
X121620582Y-62127000D01*
X124270509Y-62127000D01*
X125467160Y-61888971D01*
X126270066Y-61352487D01*
X126729490Y-61352487D01*
X127247260Y-61249496D01*
X127686203Y-60956203D01*
X127950080Y-60561284D01*
X128143000Y-60470807D01*
X128143000Y-59127000D01*
X128397000Y-59127000D01*
X128397000Y-60470807D01*
X128650355Y-60589627D01*
X129229726Y-60323068D01*
X129662987Y-59855084D01*
X129859619Y-59380354D01*
X129815052Y-59285750D01*
X134745510Y-59285750D01*
X134745510Y-60125800D01*
X134842183Y-60359189D01*
X135020812Y-60537817D01*
X135254201Y-60634490D01*
X136094250Y-60634490D01*
X136253000Y-60475740D01*
X136253000Y-59127000D01*
X134904260Y-59127000D01*
X134745510Y-59285750D01*
X129815052Y-59285750D01*
X129740265Y-59127000D01*
X128397000Y-59127000D01*
X128143000Y-59127000D01*
X128123000Y-59127000D01*
X128123000Y-58873000D01*
X128143000Y-58873000D01*
X128143000Y-57529193D01*
X128397000Y-57529193D01*
X128397000Y-58873000D01*
X129740265Y-58873000D01*
X129859619Y-58619646D01*
X129662987Y-58144916D01*
X129412358Y-57874200D01*
X134745510Y-57874200D01*
X134745510Y-58714250D01*
X134904260Y-58873000D01*
X136253000Y-58873000D01*
X136253000Y-57524260D01*
X136507000Y-57524260D01*
X136507000Y-58873000D01*
X136527000Y-58873000D01*
X136527000Y-59127000D01*
X136507000Y-59127000D01*
X136507000Y-60475740D01*
X136665750Y-60634490D01*
X137222270Y-60634490D01*
X137229344Y-60645077D01*
X137984112Y-61149396D01*
X138874421Y-61326490D01*
X138965579Y-61326490D01*
X139855888Y-61149396D01*
X140610656Y-60645077D01*
X140749270Y-60437627D01*
X141079645Y-60589627D01*
X141333000Y-60470807D01*
X141333000Y-59127000D01*
X141313000Y-59127000D01*
X141313000Y-58873000D01*
X141333000Y-58873000D01*
X141333000Y-57529193D01*
X141587000Y-57529193D01*
X141587000Y-58873000D01*
X141607000Y-58873000D01*
X141607000Y-59127000D01*
X141587000Y-59127000D01*
X141587000Y-60470807D01*
X141840355Y-60589627D01*
X142170730Y-60437627D01*
X142309344Y-60645077D01*
X143064112Y-61149396D01*
X143954421Y-61326490D01*
X144045579Y-61326490D01*
X144935888Y-61149396D01*
X145690656Y-60645077D01*
X145829270Y-60437627D01*
X146159645Y-60589627D01*
X146413000Y-60470807D01*
X146413000Y-59127000D01*
X146393000Y-59127000D01*
X146393000Y-58873000D01*
X146413000Y-58873000D01*
X146413000Y-57529193D01*
X146667000Y-57529193D01*
X146667000Y-58873000D01*
X146687000Y-58873000D01*
X146687000Y-59127000D01*
X146667000Y-59127000D01*
X146667000Y-60470807D01*
X146920355Y-60589627D01*
X147250730Y-60437627D01*
X147389344Y-60645077D01*
X148144112Y-61149396D01*
X149034421Y-61326490D01*
X149125579Y-61326490D01*
X150015888Y-61149396D01*
X150770656Y-60645077D01*
X151274975Y-59890309D01*
X151452069Y-59000000D01*
X151274975Y-58109691D01*
X150770656Y-57354923D01*
X150015888Y-56850604D01*
X149125579Y-56673510D01*
X149034421Y-56673510D01*
X148144112Y-56850604D01*
X147389344Y-57354923D01*
X147250730Y-57562373D01*
X146920355Y-57410373D01*
X146667000Y-57529193D01*
X146413000Y-57529193D01*
X146159645Y-57410373D01*
X145829270Y-57562373D01*
X145690656Y-57354923D01*
X144935888Y-56850604D01*
X144045579Y-56673510D01*
X143954421Y-56673510D01*
X143064112Y-56850604D01*
X142309344Y-57354923D01*
X142170730Y-57562373D01*
X141840355Y-57410373D01*
X141587000Y-57529193D01*
X141333000Y-57529193D01*
X141079645Y-57410373D01*
X140749270Y-57562373D01*
X140610656Y-57354923D01*
X139855888Y-56850604D01*
X138965579Y-56673510D01*
X138874421Y-56673510D01*
X137984112Y-56850604D01*
X137229344Y-57354923D01*
X137222270Y-57365510D01*
X136665750Y-57365510D01*
X136507000Y-57524260D01*
X136253000Y-57524260D01*
X136094250Y-57365510D01*
X135254201Y-57365510D01*
X135020812Y-57462183D01*
X134842183Y-57640811D01*
X134745510Y-57874200D01*
X129412358Y-57874200D01*
X129229726Y-57676932D01*
X128650355Y-57410373D01*
X128397000Y-57529193D01*
X128143000Y-57529193D01*
X127950080Y-57438716D01*
X127686203Y-57043797D01*
X127247260Y-56750504D01*
X126729490Y-56647513D01*
X126270066Y-56647513D01*
X125865214Y-56377000D01*
X168746782Y-56377000D01*
X167835011Y-56753736D01*
X166757519Y-57829348D01*
X166173666Y-59235423D01*
X166172338Y-60757898D01*
X166753736Y-62164989D01*
X167829348Y-63242481D01*
X169235423Y-63826334D01*
X170757898Y-63827662D01*
X172164989Y-63246264D01*
X173242481Y-62170652D01*
X173826334Y-60764577D01*
X173827662Y-59242102D01*
X173246264Y-57835011D01*
X172170652Y-56757519D01*
X171254260Y-56377000D01*
X178623000Y-56377000D01*
X178623000Y-113623000D01*
X171253218Y-113623000D01*
X172164989Y-113246264D01*
X173242481Y-112170652D01*
X173826334Y-110764577D01*
X173827662Y-109242102D01*
X173246264Y-107835011D01*
X172170652Y-106757519D01*
X170764577Y-106173666D01*
X169242102Y-106172338D01*
X167835011Y-106753736D01*
X166757519Y-107829348D01*
X166727000Y-107902846D01*
X166727000Y-107243000D01*
X165734947Y-107243000D01*
X165960079Y-107149747D01*
X166138707Y-106971118D01*
X166235380Y-106737729D01*
X166235380Y-106447590D01*
X166134567Y-106346777D01*
X166221273Y-106288842D01*
X166235380Y-106288842D01*
X166235380Y-106279416D01*
X166557093Y-106064453D01*
X166850386Y-105625510D01*
X166953377Y-105107740D01*
X166953377Y-104208580D01*
X166850386Y-103690810D01*
X166557093Y-103251867D01*
X166552000Y-103248464D01*
X166552000Y-103052000D01*
X168018464Y-103052000D01*
X168021867Y-103057093D01*
X168460810Y-103350386D01*
X168978580Y-103453377D01*
X169877740Y-103453377D01*
X170180000Y-103393254D01*
X170482260Y-103453377D01*
X171381420Y-103453377D01*
X171899190Y-103350386D01*
X172338133Y-103057093D01*
X172599536Y-102665876D01*
X172658139Y-102626719D01*
X175766019Y-99518839D01*
X176080773Y-99047777D01*
X176191300Y-98492120D01*
X176191300Y-93573600D01*
X176080773Y-93017944D01*
X176080773Y-93017943D01*
X175766019Y-92546881D01*
X171528660Y-88309522D01*
X172044703Y-88096297D01*
X172713947Y-87428220D01*
X173076586Y-86554889D01*
X173077412Y-85609260D01*
X172716297Y-84735297D01*
X172048220Y-84066053D01*
X171174889Y-83703414D01*
X170229260Y-83702588D01*
X169355297Y-84063703D01*
X168686053Y-84731780D01*
X168323414Y-85605111D01*
X168322588Y-86550740D01*
X168683703Y-87424703D01*
X169087295Y-87829000D01*
X165980838Y-87829000D01*
X165332800Y-87180962D01*
X165332800Y-83340638D01*
X165596457Y-83076981D01*
X166031328Y-83077360D01*
X166794989Y-82761822D01*
X167379768Y-82178062D01*
X167696639Y-81414953D01*
X167697360Y-80588672D01*
X167381822Y-79825011D01*
X167287322Y-79730346D01*
X167379768Y-79638062D01*
X167696639Y-78874953D01*
X167697360Y-78048672D01*
X167381822Y-77285011D01*
X166798062Y-76700232D01*
X166052724Y-76390740D01*
X168322588Y-76390740D01*
X168683703Y-77264703D01*
X169351780Y-77933947D01*
X170225111Y-78296586D01*
X171170740Y-78297412D01*
X172044703Y-77936297D01*
X172713947Y-77268220D01*
X173076586Y-76394889D01*
X173077412Y-75449260D01*
X172716297Y-74575297D01*
X172048220Y-73906053D01*
X171174889Y-73543414D01*
X170229260Y-73542588D01*
X169355297Y-73903703D01*
X168686053Y-74571780D01*
X168323414Y-75445111D01*
X168322588Y-76390740D01*
X166052724Y-76390740D01*
X166034953Y-76383361D01*
X165208672Y-76382640D01*
X164445011Y-76698178D01*
X164134648Y-77008000D01*
X163652800Y-77008000D01*
X163097144Y-77118527D01*
X162626081Y-77433281D01*
X160656981Y-79402381D01*
X160342227Y-79873443D01*
X160315064Y-80010000D01*
X160231700Y-80429100D01*
X160231700Y-88684100D01*
X160342227Y-89239757D01*
X160656981Y-89710819D01*
X163857381Y-92911219D01*
X164328443Y-93225973D01*
X164884100Y-93336500D01*
X169845262Y-93336500D01*
X171175385Y-94666623D01*
X170482260Y-94666623D01*
X170180000Y-94726746D01*
X169877740Y-94666623D01*
X168978580Y-94666623D01*
X168460810Y-94769614D01*
X168021867Y-95062907D01*
X168018464Y-95068000D01*
X165618160Y-95068000D01*
X165062504Y-95178527D01*
X164977114Y-95235583D01*
X164599620Y-95235583D01*
X164081850Y-95338574D01*
X163711312Y-95586160D01*
X163679598Y-95586160D01*
X163586719Y-95493281D01*
X163115657Y-95178527D01*
X162560000Y-95068000D01*
X162181536Y-95068000D01*
X162178133Y-95062907D01*
X161739190Y-94769614D01*
X161221420Y-94666623D01*
X160322260Y-94666623D01*
X160020000Y-94726746D01*
X159717740Y-94666623D01*
X158818580Y-94666623D01*
X158300810Y-94769614D01*
X157861867Y-95062907D01*
X157858464Y-95068000D01*
X155458160Y-95068000D01*
X155095430Y-95140152D01*
X154839743Y-94884465D01*
X155225418Y-94725108D01*
X155683499Y-94267825D01*
X155931717Y-93670050D01*
X155932282Y-93022789D01*
X155757000Y-92598574D01*
X155757000Y-86360000D01*
X155646473Y-85804344D01*
X155331719Y-85333281D01*
X153309879Y-83311441D01*
X152838817Y-82996687D01*
X152598459Y-82948877D01*
X152587093Y-82931867D01*
X152582000Y-82928464D01*
X152582000Y-80611438D01*
X155541438Y-77652000D01*
X156210000Y-77652000D01*
X156765657Y-77541473D01*
X157236719Y-77226719D01*
X159141719Y-75321719D01*
X159456473Y-74850656D01*
X159567000Y-74295000D01*
X159567000Y-70485000D01*
X159456473Y-69929344D01*
X159141719Y-69458281D01*
X158102859Y-68419421D01*
X157631797Y-68104667D01*
X157076140Y-67994140D01*
X156217645Y-67994140D01*
X155883220Y-67770684D01*
X155365450Y-67667693D01*
X154514550Y-67667693D01*
X153996780Y-67770684D01*
X153662355Y-67994140D01*
X152803860Y-67994140D01*
X152248203Y-68104667D01*
X151777141Y-68419421D01*
X151280402Y-68916160D01*
X151248688Y-68916160D01*
X150878150Y-68668574D01*
X150360380Y-68565583D01*
X149359620Y-68565583D01*
X148841850Y-68668574D01*
X148471312Y-68916160D01*
X146168688Y-68916160D01*
X145798150Y-68668574D01*
X145280380Y-68565583D01*
X144279620Y-68565583D01*
X143761850Y-68668574D01*
X143391312Y-68916160D01*
X141088688Y-68916160D01*
X140718150Y-68668574D01*
X140200380Y-68565583D01*
X139199620Y-68565583D01*
X138681850Y-68668574D01*
X138311312Y-68916160D01*
X137276840Y-68916160D01*
X136721183Y-69026687D01*
X136250121Y-69341441D01*
X136241400Y-69350162D01*
X135821420Y-69266623D01*
X134922260Y-69266623D01*
X134620000Y-69326746D01*
X134317740Y-69266623D01*
X133418580Y-69266623D01*
X132900810Y-69369614D01*
X132461867Y-69662907D01*
X132458464Y-69668000D01*
X130488812Y-69668000D01*
X130242713Y-69299687D01*
X129803770Y-69006394D01*
X129286000Y-68903403D01*
X127254000Y-68903403D01*
X126736230Y-69006394D01*
X126297287Y-69299687D01*
X126134710Y-69543000D01*
X125260100Y-69543000D01*
X124656608Y-69663042D01*
X124543483Y-69738630D01*
X124144993Y-70004892D01*
X123921085Y-70228800D01*
X119979022Y-70228800D01*
X119977441Y-70220854D01*
X119519097Y-69534893D01*
X119139377Y-69281172D01*
X119338327Y-68916996D01*
X119355010Y-68837060D01*
X119232852Y-68617000D01*
X117747000Y-68617000D01*
X117747000Y-68637000D01*
X117493000Y-68637000D01*
X117493000Y-68617000D01*
X116007148Y-68617000D01*
X115884990Y-68837060D01*
X115901673Y-68916996D01*
X116100623Y-69281172D01*
X115720903Y-69534893D01*
X115262559Y-70220854D01*
X115101610Y-71030000D01*
X115262559Y-71839146D01*
X115365361Y-71993000D01*
X105643014Y-71993000D01*
X104862159Y-71212145D01*
X104898390Y-71030000D01*
X104737441Y-70220854D01*
X104429509Y-69760000D01*
X104737441Y-69299146D01*
X104898390Y-68490000D01*
X104737441Y-67680854D01*
X104613007Y-67494625D01*
X104773006Y-67255170D01*
X104875997Y-66737400D01*
X104875997Y-65162600D01*
X104773006Y-64644830D01*
X104479713Y-64205887D01*
X104040770Y-63912594D01*
X103523000Y-63809603D01*
X101237000Y-63809603D01*
X100719230Y-63912594D01*
X100280287Y-64205887D01*
X100061023Y-64534038D01*
X99686543Y-64608527D01*
X99215481Y-64923281D01*
X98971281Y-65167481D01*
X98796917Y-65095079D01*
X98675119Y-64973281D01*
X98502460Y-64857914D01*
X98416991Y-64730000D01*
X98734487Y-64254833D01*
X98833333Y-63757898D01*
X106172338Y-63757898D01*
X106753736Y-65164989D01*
X107829348Y-66242481D01*
X109235423Y-66826334D01*
X110757898Y-66827662D01*
X112164989Y-66246264D01*
X112461770Y-65950000D01*
X115101610Y-65950000D01*
X115262559Y-66759146D01*
X115720903Y-67445107D01*
X116100623Y-67698828D01*
X115901673Y-68063004D01*
X115884990Y-68142940D01*
X116007148Y-68363000D01*
X117493000Y-68363000D01*
X117493000Y-68343000D01*
X117747000Y-68343000D01*
X117747000Y-68363000D01*
X119232852Y-68363000D01*
X119355010Y-68142940D01*
X119338327Y-68063004D01*
X119139377Y-67698828D01*
X119519097Y-67445107D01*
X119977441Y-66759146D01*
X120138390Y-65950000D01*
X119977441Y-65140854D01*
X119519097Y-64454893D01*
X118833136Y-63996549D01*
X118023990Y-63835600D01*
X117216010Y-63835600D01*
X116406864Y-63996549D01*
X115720903Y-64454893D01*
X115262559Y-65140854D01*
X115101610Y-65950000D01*
X112461770Y-65950000D01*
X113242481Y-65170652D01*
X113826334Y-63764577D01*
X113827662Y-62242102D01*
X113246264Y-60835011D01*
X112170652Y-59757519D01*
X110764577Y-59173666D01*
X109242102Y-59172338D01*
X107835011Y-59753736D01*
X106757519Y-60829348D01*
X106173666Y-62235423D01*
X106172338Y-63757898D01*
X98833333Y-63757898D01*
X98892589Y-63460000D01*
X98734487Y-62665167D01*
X98416991Y-62190000D01*
X98734487Y-61714833D01*
X98892589Y-60920000D01*
X98734487Y-60125167D01*
X98284250Y-59451339D01*
X97610422Y-59001102D01*
X96815589Y-58843000D01*
X96224411Y-58843000D01*
X95429578Y-59001102D01*
X95000000Y-59288137D01*
X94570422Y-59001102D01*
X93775589Y-58843000D01*
X93184411Y-58843000D01*
X92389578Y-59001102D01*
X91715750Y-59451339D01*
X91265513Y-60125167D01*
X91190505Y-60502257D01*
X90337081Y-61355681D01*
X90022327Y-61826743D01*
X90022327Y-61826744D01*
X89911800Y-62382400D01*
X89911800Y-73634600D01*
X90022327Y-74190257D01*
X90337081Y-74661319D01*
X93700294Y-78024532D01*
X92904602Y-78023838D01*
X91497511Y-78605236D01*
X90420019Y-79680848D01*
X89836166Y-81086923D01*
X89834838Y-82609398D01*
X90416236Y-84016489D01*
X91491848Y-85093981D01*
X92897923Y-85677834D01*
X94420398Y-85679162D01*
X95827489Y-85097764D01*
X95938404Y-84987042D01*
X97493700Y-86542338D01*
X97493700Y-92591784D01*
X97211123Y-92168877D01*
X96449742Y-91407496D01*
X96438972Y-91353350D01*
X95761124Y-90338878D01*
X90212193Y-84789947D01*
X89773616Y-84350604D01*
X88624728Y-83873544D01*
X87380730Y-83872458D01*
X86377000Y-84287191D01*
X86377000Y-56377000D01*
X119201471Y-56377000D01*
X118350604Y-57226384D01*
X118350604Y-57226384D01*
G37*
X118350604Y-57226384D02*
X117873544Y-58375272D01*
X117872458Y-59619270D01*
X118347512Y-60768989D01*
X119226384Y-61649396D01*
X120375272Y-62126456D01*
X121619270Y-62127542D01*
X121620582Y-62127000D01*
X124270509Y-62127000D01*
X125467160Y-61888971D01*
X126270066Y-61352487D01*
X126729490Y-61352487D01*
X127247260Y-61249496D01*
X127686203Y-60956203D01*
X127950080Y-60561284D01*
X128143000Y-60470807D01*
X128143000Y-59127000D01*
X128397000Y-59127000D01*
X128397000Y-60470807D01*
X128650355Y-60589627D01*
X129229726Y-60323068D01*
X129662987Y-59855084D01*
X129859619Y-59380354D01*
X129815052Y-59285750D01*
X134745510Y-59285750D01*
X134745510Y-60125800D01*
X134842183Y-60359189D01*
X135020812Y-60537817D01*
X135254201Y-60634490D01*
X136094250Y-60634490D01*
X136253000Y-60475740D01*
X136253000Y-59127000D01*
X134904260Y-59127000D01*
X134745510Y-59285750D01*
X129815052Y-59285750D01*
X129740265Y-59127000D01*
X128397000Y-59127000D01*
X128143000Y-59127000D01*
X128123000Y-59127000D01*
X128123000Y-58873000D01*
X128143000Y-58873000D01*
X128143000Y-57529193D01*
X128397000Y-57529193D01*
X128397000Y-58873000D01*
X129740265Y-58873000D01*
X129859619Y-58619646D01*
X129662987Y-58144916D01*
X129412358Y-57874200D01*
X134745510Y-57874200D01*
X134745510Y-58714250D01*
X134904260Y-58873000D01*
X136253000Y-58873000D01*
X136253000Y-57524260D01*
X136507000Y-57524260D01*
X136507000Y-58873000D01*
X136527000Y-58873000D01*
X136527000Y-59127000D01*
X136507000Y-59127000D01*
X136507000Y-60475740D01*
X136665750Y-60634490D01*
X137222270Y-60634490D01*
X137229344Y-60645077D01*
X137984112Y-61149396D01*
X138874421Y-61326490D01*
X138965579Y-61326490D01*
X139855888Y-61149396D01*
X140610656Y-60645077D01*
X140749270Y-60437627D01*
X141079645Y-60589627D01*
X141333000Y-60470807D01*
X141333000Y-59127000D01*
X141313000Y-59127000D01*
X141313000Y-58873000D01*
X141333000Y-58873000D01*
X141333000Y-57529193D01*
X141587000Y-57529193D01*
X141587000Y-58873000D01*
X141607000Y-58873000D01*
X141607000Y-59127000D01*
X141587000Y-59127000D01*
X141587000Y-60470807D01*
X141840355Y-60589627D01*
X142170730Y-60437627D01*
X142309344Y-60645077D01*
X143064112Y-61149396D01*
X143954421Y-61326490D01*
X144045579Y-61326490D01*
X144935888Y-61149396D01*
X145690656Y-60645077D01*
X145829270Y-60437627D01*
X146159645Y-60589627D01*
X146413000Y-60470807D01*
X146413000Y-59127000D01*
X146393000Y-59127000D01*
X146393000Y-58873000D01*
X146413000Y-58873000D01*
X146413000Y-57529193D01*
X146667000Y-57529193D01*
X146667000Y-58873000D01*
X146687000Y-58873000D01*
X146687000Y-59127000D01*
X146667000Y-59127000D01*
X146667000Y-60470807D01*
X146920355Y-60589627D01*
X147250730Y-60437627D01*
X147389344Y-60645077D01*
X148144112Y-61149396D01*
X149034421Y-61326490D01*
X149125579Y-61326490D01*
X150015888Y-61149396D01*
X150770656Y-60645077D01*
X151274975Y-59890309D01*
X151452069Y-59000000D01*
X151274975Y-58109691D01*
X150770656Y-57354923D01*
X150015888Y-56850604D01*
X149125579Y-56673510D01*
X149034421Y-56673510D01*
X148144112Y-56850604D01*
X147389344Y-57354923D01*
X147250730Y-57562373D01*
X146920355Y-57410373D01*
X146667000Y-57529193D01*
X146413000Y-57529193D01*
X146159645Y-57410373D01*
X145829270Y-57562373D01*
X145690656Y-57354923D01*
X144935888Y-56850604D01*
X144045579Y-56673510D01*
X143954421Y-56673510D01*
X143064112Y-56850604D01*
X142309344Y-57354923D01*
X142170730Y-57562373D01*
X141840355Y-57410373D01*
X141587000Y-57529193D01*
X141333000Y-57529193D01*
X141079645Y-57410373D01*
X140749270Y-57562373D01*
X140610656Y-57354923D01*
X139855888Y-56850604D01*
X138965579Y-56673510D01*
X138874421Y-56673510D01*
X137984112Y-56850604D01*
X137229344Y-57354923D01*
X137222270Y-57365510D01*
X136665750Y-57365510D01*
X136507000Y-57524260D01*
X136253000Y-57524260D01*
X136094250Y-57365510D01*
X135254201Y-57365510D01*
X135020812Y-57462183D01*
X134842183Y-57640811D01*
X134745510Y-57874200D01*
X129412358Y-57874200D01*
X129229726Y-57676932D01*
X128650355Y-57410373D01*
X128397000Y-57529193D01*
X128143000Y-57529193D01*
X127950080Y-57438716D01*
X127686203Y-57043797D01*
X127247260Y-56750504D01*
X126729490Y-56647513D01*
X126270066Y-56647513D01*
X125865214Y-56377000D01*
X168746782Y-56377000D01*
X167835011Y-56753736D01*
X166757519Y-57829348D01*
X166173666Y-59235423D01*
X166172338Y-60757898D01*
X166753736Y-62164989D01*
X167829348Y-63242481D01*
X169235423Y-63826334D01*
X170757898Y-63827662D01*
X172164989Y-63246264D01*
X173242481Y-62170652D01*
X173826334Y-60764577D01*
X173827662Y-59242102D01*
X173246264Y-57835011D01*
X172170652Y-56757519D01*
X171254260Y-56377000D01*
X178623000Y-56377000D01*
X178623000Y-113623000D01*
X171253218Y-113623000D01*
X172164989Y-113246264D01*
X173242481Y-112170652D01*
X173826334Y-110764577D01*
X173827662Y-109242102D01*
X173246264Y-107835011D01*
X172170652Y-106757519D01*
X170764577Y-106173666D01*
X169242102Y-106172338D01*
X167835011Y-106753736D01*
X166757519Y-107829348D01*
X166727000Y-107902846D01*
X166727000Y-107243000D01*
X165734947Y-107243000D01*
X165960079Y-107149747D01*
X166138707Y-106971118D01*
X166235380Y-106737729D01*
X166235380Y-106447590D01*
X166134567Y-106346777D01*
X166221273Y-106288842D01*
X166235380Y-106288842D01*
X166235380Y-106279416D01*
X166557093Y-106064453D01*
X166850386Y-105625510D01*
X166953377Y-105107740D01*
X166953377Y-104208580D01*
X166850386Y-103690810D01*
X166557093Y-103251867D01*
X166552000Y-103248464D01*
X166552000Y-103052000D01*
X168018464Y-103052000D01*
X168021867Y-103057093D01*
X168460810Y-103350386D01*
X168978580Y-103453377D01*
X169877740Y-103453377D01*
X170180000Y-103393254D01*
X170482260Y-103453377D01*
X171381420Y-103453377D01*
X171899190Y-103350386D01*
X172338133Y-103057093D01*
X172599536Y-102665876D01*
X172658139Y-102626719D01*
X175766019Y-99518839D01*
X176080773Y-99047777D01*
X176191300Y-98492120D01*
X176191300Y-93573600D01*
X176080773Y-93017944D01*
X176080773Y-93017943D01*
X175766019Y-92546881D01*
X171528660Y-88309522D01*
X172044703Y-88096297D01*
X172713947Y-87428220D01*
X173076586Y-86554889D01*
X173077412Y-85609260D01*
X172716297Y-84735297D01*
X172048220Y-84066053D01*
X171174889Y-83703414D01*
X170229260Y-83702588D01*
X169355297Y-84063703D01*
X168686053Y-84731780D01*
X168323414Y-85605111D01*
X168322588Y-86550740D01*
X168683703Y-87424703D01*
X169087295Y-87829000D01*
X165980838Y-87829000D01*
X165332800Y-87180962D01*
X165332800Y-83340638D01*
X165596457Y-83076981D01*
X166031328Y-83077360D01*
X166794989Y-82761822D01*
X167379768Y-82178062D01*
X167696639Y-81414953D01*
X167697360Y-80588672D01*
X167381822Y-79825011D01*
X167287322Y-79730346D01*
X167379768Y-79638062D01*
X167696639Y-78874953D01*
X167697360Y-78048672D01*
X167381822Y-77285011D01*
X166798062Y-76700232D01*
X166052724Y-76390740D01*
X168322588Y-76390740D01*
X168683703Y-77264703D01*
X169351780Y-77933947D01*
X170225111Y-78296586D01*
X171170740Y-78297412D01*
X172044703Y-77936297D01*
X172713947Y-77268220D01*
X173076586Y-76394889D01*
X173077412Y-75449260D01*
X172716297Y-74575297D01*
X172048220Y-73906053D01*
X171174889Y-73543414D01*
X170229260Y-73542588D01*
X169355297Y-73903703D01*
X168686053Y-74571780D01*
X168323414Y-75445111D01*
X168322588Y-76390740D01*
X166052724Y-76390740D01*
X166034953Y-76383361D01*
X165208672Y-76382640D01*
X164445011Y-76698178D01*
X164134648Y-77008000D01*
X163652800Y-77008000D01*
X163097144Y-77118527D01*
X162626081Y-77433281D01*
X160656981Y-79402381D01*
X160342227Y-79873443D01*
X160315064Y-80010000D01*
X160231700Y-80429100D01*
X160231700Y-88684100D01*
X160342227Y-89239757D01*
X160656981Y-89710819D01*
X163857381Y-92911219D01*
X164328443Y-93225973D01*
X164884100Y-93336500D01*
X169845262Y-93336500D01*
X171175385Y-94666623D01*
X170482260Y-94666623D01*
X170180000Y-94726746D01*
X169877740Y-94666623D01*
X168978580Y-94666623D01*
X168460810Y-94769614D01*
X168021867Y-95062907D01*
X168018464Y-95068000D01*
X165618160Y-95068000D01*
X165062504Y-95178527D01*
X164977114Y-95235583D01*
X164599620Y-95235583D01*
X164081850Y-95338574D01*
X163711312Y-95586160D01*
X163679598Y-95586160D01*
X163586719Y-95493281D01*
X163115657Y-95178527D01*
X162560000Y-95068000D01*
X162181536Y-95068000D01*
X162178133Y-95062907D01*
X161739190Y-94769614D01*
X161221420Y-94666623D01*
X160322260Y-94666623D01*
X160020000Y-94726746D01*
X159717740Y-94666623D01*
X158818580Y-94666623D01*
X158300810Y-94769614D01*
X157861867Y-95062907D01*
X157858464Y-95068000D01*
X155458160Y-95068000D01*
X155095430Y-95140152D01*
X154839743Y-94884465D01*
X155225418Y-94725108D01*
X155683499Y-94267825D01*
X155931717Y-93670050D01*
X155932282Y-93022789D01*
X155757000Y-92598574D01*
X155757000Y-86360000D01*
X155646473Y-85804344D01*
X155331719Y-85333281D01*
X153309879Y-83311441D01*
X152838817Y-82996687D01*
X152598459Y-82948877D01*
X152587093Y-82931867D01*
X152582000Y-82928464D01*
X152582000Y-80611438D01*
X155541438Y-77652000D01*
X156210000Y-77652000D01*
X156765657Y-77541473D01*
X157236719Y-77226719D01*
X159141719Y-75321719D01*
X159456473Y-74850656D01*
X159567000Y-74295000D01*
X159567000Y-70485000D01*
X159456473Y-69929344D01*
X159141719Y-69458281D01*
X158102859Y-68419421D01*
X157631797Y-68104667D01*
X157076140Y-67994140D01*
X156217645Y-67994140D01*
X155883220Y-67770684D01*
X155365450Y-67667693D01*
X154514550Y-67667693D01*
X153996780Y-67770684D01*
X153662355Y-67994140D01*
X152803860Y-67994140D01*
X152248203Y-68104667D01*
X151777141Y-68419421D01*
X151280402Y-68916160D01*
X151248688Y-68916160D01*
X150878150Y-68668574D01*
X150360380Y-68565583D01*
X149359620Y-68565583D01*
X148841850Y-68668574D01*
X148471312Y-68916160D01*
X146168688Y-68916160D01*
X145798150Y-68668574D01*
X145280380Y-68565583D01*
X144279620Y-68565583D01*
X143761850Y-68668574D01*
X143391312Y-68916160D01*
X141088688Y-68916160D01*
X140718150Y-68668574D01*
X140200380Y-68565583D01*
X139199620Y-68565583D01*
X138681850Y-68668574D01*
X138311312Y-68916160D01*
X137276840Y-68916160D01*
X136721183Y-69026687D01*
X136250121Y-69341441D01*
X136241400Y-69350162D01*
X135821420Y-69266623D01*
X134922260Y-69266623D01*
X134620000Y-69326746D01*
X134317740Y-69266623D01*
X133418580Y-69266623D01*
X132900810Y-69369614D01*
X132461867Y-69662907D01*
X132458464Y-69668000D01*
X130488812Y-69668000D01*
X130242713Y-69299687D01*
X129803770Y-69006394D01*
X129286000Y-68903403D01*
X127254000Y-68903403D01*
X126736230Y-69006394D01*
X126297287Y-69299687D01*
X126134710Y-69543000D01*
X125260100Y-69543000D01*
X124656608Y-69663042D01*
X124543483Y-69738630D01*
X124144993Y-70004892D01*
X123921085Y-70228800D01*
X119979022Y-70228800D01*
X119977441Y-70220854D01*
X119519097Y-69534893D01*
X119139377Y-69281172D01*
X119338327Y-68916996D01*
X119355010Y-68837060D01*
X119232852Y-68617000D01*
X117747000Y-68617000D01*
X117747000Y-68637000D01*
X117493000Y-68637000D01*
X117493000Y-68617000D01*
X116007148Y-68617000D01*
X115884990Y-68837060D01*
X115901673Y-68916996D01*
X116100623Y-69281172D01*
X115720903Y-69534893D01*
X115262559Y-70220854D01*
X115101610Y-71030000D01*
X115262559Y-71839146D01*
X115365361Y-71993000D01*
X105643014Y-71993000D01*
X104862159Y-71212145D01*
X104898390Y-71030000D01*
X104737441Y-70220854D01*
X104429509Y-69760000D01*
X104737441Y-69299146D01*
X104898390Y-68490000D01*
X104737441Y-67680854D01*
X104613007Y-67494625D01*
X104773006Y-67255170D01*
X104875997Y-66737400D01*
X104875997Y-65162600D01*
X104773006Y-64644830D01*
X104479713Y-64205887D01*
X104040770Y-63912594D01*
X103523000Y-63809603D01*
X101237000Y-63809603D01*
X100719230Y-63912594D01*
X100280287Y-64205887D01*
X100061023Y-64534038D01*
X99686543Y-64608527D01*
X99215481Y-64923281D01*
X98971281Y-65167481D01*
X98796917Y-65095079D01*
X98675119Y-64973281D01*
X98502460Y-64857914D01*
X98416991Y-64730000D01*
X98734487Y-64254833D01*
X98833333Y-63757898D01*
X106172338Y-63757898D01*
X106753736Y-65164989D01*
X107829348Y-66242481D01*
X109235423Y-66826334D01*
X110757898Y-66827662D01*
X112164989Y-66246264D01*
X112461770Y-65950000D01*
X115101610Y-65950000D01*
X115262559Y-66759146D01*
X115720903Y-67445107D01*
X116100623Y-67698828D01*
X115901673Y-68063004D01*
X115884990Y-68142940D01*
X116007148Y-68363000D01*
X117493000Y-68363000D01*
X117493000Y-68343000D01*
X117747000Y-68343000D01*
X117747000Y-68363000D01*
X119232852Y-68363000D01*
X119355010Y-68142940D01*
X119338327Y-68063004D01*
X119139377Y-67698828D01*
X119519097Y-67445107D01*
X119977441Y-66759146D01*
X120138390Y-65950000D01*
X119977441Y-65140854D01*
X119519097Y-64454893D01*
X118833136Y-63996549D01*
X118023990Y-63835600D01*
X117216010Y-63835600D01*
X116406864Y-63996549D01*
X115720903Y-64454893D01*
X115262559Y-65140854D01*
X115101610Y-65950000D01*
X112461770Y-65950000D01*
X113242481Y-65170652D01*
X113826334Y-63764577D01*
X113827662Y-62242102D01*
X113246264Y-60835011D01*
X112170652Y-59757519D01*
X110764577Y-59173666D01*
X109242102Y-59172338D01*
X107835011Y-59753736D01*
X106757519Y-60829348D01*
X106173666Y-62235423D01*
X106172338Y-63757898D01*
X98833333Y-63757898D01*
X98892589Y-63460000D01*
X98734487Y-62665167D01*
X98416991Y-62190000D01*
X98734487Y-61714833D01*
X98892589Y-60920000D01*
X98734487Y-60125167D01*
X98284250Y-59451339D01*
X97610422Y-59001102D01*
X96815589Y-58843000D01*
X96224411Y-58843000D01*
X95429578Y-59001102D01*
X95000000Y-59288137D01*
X94570422Y-59001102D01*
X93775589Y-58843000D01*
X93184411Y-58843000D01*
X92389578Y-59001102D01*
X91715750Y-59451339D01*
X91265513Y-60125167D01*
X91190505Y-60502257D01*
X90337081Y-61355681D01*
X90022327Y-61826743D01*
X90022327Y-61826744D01*
X89911800Y-62382400D01*
X89911800Y-73634600D01*
X90022327Y-74190257D01*
X90337081Y-74661319D01*
X93700294Y-78024532D01*
X92904602Y-78023838D01*
X91497511Y-78605236D01*
X90420019Y-79680848D01*
X89836166Y-81086923D01*
X89834838Y-82609398D01*
X90416236Y-84016489D01*
X91491848Y-85093981D01*
X92897923Y-85677834D01*
X94420398Y-85679162D01*
X95827489Y-85097764D01*
X95938404Y-84987042D01*
X97493700Y-86542338D01*
X97493700Y-92591784D01*
X97211123Y-92168877D01*
X96449742Y-91407496D01*
X96438972Y-91353350D01*
X95761124Y-90338878D01*
X90212193Y-84789947D01*
X89773616Y-84350604D01*
X88624728Y-83873544D01*
X87380730Y-83872458D01*
X86377000Y-84287191D01*
X86377000Y-56377000D01*
X119201471Y-56377000D01*
X118350604Y-57226384D01*
G36*
X111014700Y-100223900D02*
X111125227Y-100779557D01*
X111439981Y-101250619D01*
X115876781Y-105687419D01*
X116347844Y-106002173D01*
X116903500Y-106112700D01*
X117567862Y-106112700D01*
X116973281Y-106707281D01*
X116736132Y-107062198D01*
X116451012Y-107252710D01*
X116228894Y-107585133D01*
X115834791Y-107395291D01*
X115819026Y-107392642D01*
X115587000Y-107513783D01*
X115587000Y-108873000D01*
X115607000Y-108873000D01*
X115607000Y-109127000D01*
X115587000Y-109127000D01*
X115587000Y-109147000D01*
X115333000Y-109147000D01*
X115333000Y-109127000D01*
X114119076Y-109127000D01*
X113974816Y-109361913D01*
X114159193Y-109889010D01*
X106311256Y-109889010D01*
X105211123Y-108788877D01*
X104196651Y-108111029D01*
X103000000Y-107873000D01*
X97675246Y-107873000D01*
X97211123Y-107408877D01*
X96196651Y-106731029D01*
X95509713Y-106594388D01*
X96144565Y-106331424D01*
X96268275Y-106078998D01*
X104579538Y-106078998D01*
X105160936Y-107486089D01*
X106236548Y-108563581D01*
X107642623Y-109147434D01*
X109165098Y-109148762D01*
X110401026Y-108638087D01*
X113974816Y-108638087D01*
X114119076Y-108873000D01*
X115333000Y-108873000D01*
X115333000Y-107513783D01*
X115100974Y-107392642D01*
X115085209Y-107395291D01*
X114557964Y-107649268D01*
X114168046Y-108085680D01*
X113974816Y-108638087D01*
X110401026Y-108638087D01*
X110572189Y-108567364D01*
X111649681Y-107491752D01*
X112233534Y-106085677D01*
X112234862Y-104563202D01*
X111653464Y-103156111D01*
X110577852Y-102078619D01*
X109171777Y-101494766D01*
X107649302Y-101493438D01*
X106242211Y-102074836D01*
X105164719Y-103150448D01*
X104580866Y-104556523D01*
X104579538Y-106078998D01*
X96268275Y-106078998D01*
X96298244Y-106017849D01*
X95000000Y-104719605D01*
X93701756Y-106017849D01*
X93855435Y-106331424D01*
X94515955Y-106589283D01*
X93803349Y-106731029D01*
X92788877Y-107408877D01*
X92111029Y-108423349D01*
X91873000Y-109620000D01*
X92111029Y-110816651D01*
X92788877Y-111831123D01*
X94238876Y-113281122D01*
X94750533Y-113623000D01*
X86377000Y-113623000D01*
X86377000Y-104168108D01*
X92906934Y-104168108D01*
X92923942Y-104997398D01*
X93208576Y-105684565D01*
X93522151Y-105838244D01*
X94820395Y-104540000D01*
X95179605Y-104540000D01*
X96477849Y-105838244D01*
X96791424Y-105684565D01*
X97093066Y-104911892D01*
X97076058Y-104082602D01*
X96791424Y-103395435D01*
X96477849Y-103241756D01*
X95179605Y-104540000D01*
X94820395Y-104540000D01*
X93522151Y-103241756D01*
X93208576Y-103395435D01*
X92906934Y-104168108D01*
X86377000Y-104168108D01*
X86377000Y-103062151D01*
X93701756Y-103062151D01*
X95000000Y-104360395D01*
X96298244Y-103062151D01*
X96144565Y-102748576D01*
X95371892Y-102446934D01*
X94542602Y-102463942D01*
X93855435Y-102748576D01*
X93701756Y-103062151D01*
X86377000Y-103062151D01*
X86377000Y-100937849D01*
X93701756Y-100937849D01*
X93855435Y-101251424D01*
X94628108Y-101553066D01*
X95457398Y-101536058D01*
X96144565Y-101251424D01*
X96298244Y-100937849D01*
X95000000Y-99639605D01*
X93701756Y-100937849D01*
X86377000Y-100937849D01*
X86377000Y-99088108D01*
X92906934Y-99088108D01*
X92923942Y-99917398D01*
X93208576Y-100604565D01*
X93522151Y-100758244D01*
X94820395Y-99460000D01*
X95179605Y-99460000D01*
X96477849Y-100758244D01*
X96791424Y-100604565D01*
X97093066Y-99831892D01*
X97076058Y-99002602D01*
X96791424Y-98315435D01*
X96477849Y-98161756D01*
X95179605Y-99460000D01*
X94820395Y-99460000D01*
X93522151Y-98161756D01*
X93208576Y-98315435D01*
X92906934Y-99088108D01*
X86377000Y-99088108D01*
X86377000Y-89799246D01*
X90650260Y-94072506D01*
X90661030Y-94126652D01*
X91338878Y-95141124D01*
X92788877Y-96591123D01*
X93803349Y-97268971D01*
X94490287Y-97405612D01*
X93855435Y-97668576D01*
X93701756Y-97982151D01*
X95000000Y-99280395D01*
X96298244Y-97982151D01*
X96144565Y-97668576D01*
X95484045Y-97410717D01*
X96196651Y-97268971D01*
X97211123Y-96591123D01*
X97888971Y-95576651D01*
X97920700Y-95417138D01*
X99960281Y-97456719D01*
X100328604Y-97702825D01*
X100022559Y-98160854D01*
X99861610Y-98970000D01*
X100022559Y-99779146D01*
X100330491Y-100240000D01*
X100022559Y-100700854D01*
X99861610Y-101510000D01*
X100022559Y-102319146D01*
X100480903Y-103005107D01*
X101166864Y-103463451D01*
X101976010Y-103624400D01*
X102783990Y-103624400D01*
X103593136Y-103463451D01*
X104279097Y-103005107D01*
X104737441Y-102319146D01*
X104898390Y-101510000D01*
X104737441Y-100700854D01*
X104500035Y-100345551D01*
X104671357Y-100311473D01*
X105142419Y-99996719D01*
X105801719Y-99337419D01*
X106116473Y-98866357D01*
X106227000Y-98310700D01*
X106227000Y-98188238D01*
X106805019Y-97610219D01*
X106901783Y-97465401D01*
X107119773Y-97139156D01*
X107230300Y-96583500D01*
X107230300Y-96528738D01*
X107516219Y-96242819D01*
X107830973Y-95771756D01*
X107941500Y-95216100D01*
X107941500Y-89877900D01*
X107830973Y-89322244D01*
X107516219Y-88851181D01*
X106362738Y-87697700D01*
X106603800Y-87697700D01*
X107159457Y-87587173D01*
X107630519Y-87272419D01*
X111014700Y-83888238D01*
X111014700Y-100223900D01*
X111014700Y-100223900D01*
G37*
X111014700Y-100223900D02*
X111125227Y-100779557D01*
X111439981Y-101250619D01*
X115876781Y-105687419D01*
X116347844Y-106002173D01*
X116903500Y-106112700D01*
X117567862Y-106112700D01*
X116973281Y-106707281D01*
X116736132Y-107062198D01*
X116451012Y-107252710D01*
X116228894Y-107585133D01*
X115834791Y-107395291D01*
X115819026Y-107392642D01*
X115587000Y-107513783D01*
X115587000Y-108873000D01*
X115607000Y-108873000D01*
X115607000Y-109127000D01*
X115587000Y-109127000D01*
X115587000Y-109147000D01*
X115333000Y-109147000D01*
X115333000Y-109127000D01*
X114119076Y-109127000D01*
X113974816Y-109361913D01*
X114159193Y-109889010D01*
X106311256Y-109889010D01*
X105211123Y-108788877D01*
X104196651Y-108111029D01*
X103000000Y-107873000D01*
X97675246Y-107873000D01*
X97211123Y-107408877D01*
X96196651Y-106731029D01*
X95509713Y-106594388D01*
X96144565Y-106331424D01*
X96268275Y-106078998D01*
X104579538Y-106078998D01*
X105160936Y-107486089D01*
X106236548Y-108563581D01*
X107642623Y-109147434D01*
X109165098Y-109148762D01*
X110401026Y-108638087D01*
X113974816Y-108638087D01*
X114119076Y-108873000D01*
X115333000Y-108873000D01*
X115333000Y-107513783D01*
X115100974Y-107392642D01*
X115085209Y-107395291D01*
X114557964Y-107649268D01*
X114168046Y-108085680D01*
X113974816Y-108638087D01*
X110401026Y-108638087D01*
X110572189Y-108567364D01*
X111649681Y-107491752D01*
X112233534Y-106085677D01*
X112234862Y-104563202D01*
X111653464Y-103156111D01*
X110577852Y-102078619D01*
X109171777Y-101494766D01*
X107649302Y-101493438D01*
X106242211Y-102074836D01*
X105164719Y-103150448D01*
X104580866Y-104556523D01*
X104579538Y-106078998D01*
X96268275Y-106078998D01*
X96298244Y-106017849D01*
X95000000Y-104719605D01*
X93701756Y-106017849D01*
X93855435Y-106331424D01*
X94515955Y-106589283D01*
X93803349Y-106731029D01*
X92788877Y-107408877D01*
X92111029Y-108423349D01*
X91873000Y-109620000D01*
X92111029Y-110816651D01*
X92788877Y-111831123D01*
X94238876Y-113281122D01*
X94750533Y-113623000D01*
X86377000Y-113623000D01*
X86377000Y-104168108D01*
X92906934Y-104168108D01*
X92923942Y-104997398D01*
X93208576Y-105684565D01*
X93522151Y-105838244D01*
X94820395Y-104540000D01*
X95179605Y-104540000D01*
X96477849Y-105838244D01*
X96791424Y-105684565D01*
X97093066Y-104911892D01*
X97076058Y-104082602D01*
X96791424Y-103395435D01*
X96477849Y-103241756D01*
X95179605Y-104540000D01*
X94820395Y-104540000D01*
X93522151Y-103241756D01*
X93208576Y-103395435D01*
X92906934Y-104168108D01*
X86377000Y-104168108D01*
X86377000Y-103062151D01*
X93701756Y-103062151D01*
X95000000Y-104360395D01*
X96298244Y-103062151D01*
X96144565Y-102748576D01*
X95371892Y-102446934D01*
X94542602Y-102463942D01*
X93855435Y-102748576D01*
X93701756Y-103062151D01*
X86377000Y-103062151D01*
X86377000Y-100937849D01*
X93701756Y-100937849D01*
X93855435Y-101251424D01*
X94628108Y-101553066D01*
X95457398Y-101536058D01*
X96144565Y-101251424D01*
X96298244Y-100937849D01*
X95000000Y-99639605D01*
X93701756Y-100937849D01*
X86377000Y-100937849D01*
X86377000Y-99088108D01*
X92906934Y-99088108D01*
X92923942Y-99917398D01*
X93208576Y-100604565D01*
X93522151Y-100758244D01*
X94820395Y-99460000D01*
X95179605Y-99460000D01*
X96477849Y-100758244D01*
X96791424Y-100604565D01*
X97093066Y-99831892D01*
X97076058Y-99002602D01*
X96791424Y-98315435D01*
X96477849Y-98161756D01*
X95179605Y-99460000D01*
X94820395Y-99460000D01*
X93522151Y-98161756D01*
X93208576Y-98315435D01*
X92906934Y-99088108D01*
X86377000Y-99088108D01*
X86377000Y-89799246D01*
X90650260Y-94072506D01*
X90661030Y-94126652D01*
X91338878Y-95141124D01*
X92788877Y-96591123D01*
X93803349Y-97268971D01*
X94490287Y-97405612D01*
X93855435Y-97668576D01*
X93701756Y-97982151D01*
X95000000Y-99280395D01*
X96298244Y-97982151D01*
X96144565Y-97668576D01*
X95484045Y-97410717D01*
X96196651Y-97268971D01*
X97211123Y-96591123D01*
X97888971Y-95576651D01*
X97920700Y-95417138D01*
X99960281Y-97456719D01*
X100328604Y-97702825D01*
X100022559Y-98160854D01*
X99861610Y-98970000D01*
X100022559Y-99779146D01*
X100330491Y-100240000D01*
X100022559Y-100700854D01*
X99861610Y-101510000D01*
X100022559Y-102319146D01*
X100480903Y-103005107D01*
X101166864Y-103463451D01*
X101976010Y-103624400D01*
X102783990Y-103624400D01*
X103593136Y-103463451D01*
X104279097Y-103005107D01*
X104737441Y-102319146D01*
X104898390Y-101510000D01*
X104737441Y-100700854D01*
X104500035Y-100345551D01*
X104671357Y-100311473D01*
X105142419Y-99996719D01*
X105801719Y-99337419D01*
X106116473Y-98866357D01*
X106227000Y-98310700D01*
X106227000Y-98188238D01*
X106805019Y-97610219D01*
X106901783Y-97465401D01*
X107119773Y-97139156D01*
X107230300Y-96583500D01*
X107230300Y-96528738D01*
X107516219Y-96242819D01*
X107830973Y-95771756D01*
X107941500Y-95216100D01*
X107941500Y-89877900D01*
X107830973Y-89322244D01*
X107516219Y-88851181D01*
X106362738Y-87697700D01*
X106603800Y-87697700D01*
X107159457Y-87587173D01*
X107630519Y-87272419D01*
X111014700Y-83888238D01*
X111014700Y-100223900D01*
G36*
X138564620Y-71989416D02*
X138564620Y-71998842D01*
X138578727Y-71998842D01*
X138665433Y-72056777D01*
X138564620Y-72157590D01*
X138564620Y-72447729D01*
X138661293Y-72681118D01*
X138839921Y-72859747D01*
X139073310Y-72956420D01*
X139414250Y-72956420D01*
X139573000Y-72797670D01*
X139573000Y-72170737D01*
X139827000Y-72170737D01*
X139827000Y-72797670D01*
X139985750Y-72956420D01*
X140326690Y-72956420D01*
X140560079Y-72859747D01*
X140738707Y-72681118D01*
X140835380Y-72447729D01*
X140835380Y-72157590D01*
X140734567Y-72056777D01*
X140821273Y-71998842D01*
X140835380Y-71998842D01*
X140835380Y-71989416D01*
X141088688Y-71820160D01*
X142926623Y-71820160D01*
X142926623Y-72321420D01*
X143029614Y-72839190D01*
X143322907Y-73278133D01*
X143328000Y-73281536D01*
X143328000Y-73459882D01*
X142791722Y-73996160D01*
X141088688Y-73996160D01*
X140718150Y-73748574D01*
X140200380Y-73645583D01*
X139199620Y-73645583D01*
X138681850Y-73748574D01*
X138311312Y-73996160D01*
X136641840Y-73996160D01*
X136086183Y-74106687D01*
X135727094Y-74346623D01*
X134922260Y-74346623D01*
X134620000Y-74406746D01*
X134317740Y-74346623D01*
X133418580Y-74346623D01*
X132900810Y-74449614D01*
X132461867Y-74742907D01*
X132458464Y-74748000D01*
X130082095Y-74748000D01*
X130017290Y-74651012D01*
X129684867Y-74428894D01*
X129874709Y-74034791D01*
X129877358Y-74019026D01*
X129756217Y-73787000D01*
X128397000Y-73787000D01*
X128397000Y-73807000D01*
X128143000Y-73807000D01*
X128143000Y-73787000D01*
X126783783Y-73787000D01*
X126662642Y-74019026D01*
X126665291Y-74034791D01*
X126855133Y-74428894D01*
X126522710Y-74651012D01*
X126047847Y-75361694D01*
X125881098Y-76200000D01*
X126047847Y-77038306D01*
X126336296Y-77470000D01*
X126047847Y-77901694D01*
X125881098Y-78740000D01*
X126047847Y-79578306D01*
X126522710Y-80288988D01*
X127233392Y-80763851D01*
X128071698Y-80930600D01*
X128407162Y-80930600D01*
X129783281Y-82306719D01*
X130254344Y-82621473D01*
X130810000Y-82732000D01*
X132458464Y-82732000D01*
X132461867Y-82737093D01*
X132900810Y-83030386D01*
X133418580Y-83133377D01*
X134317740Y-83133377D01*
X134620000Y-83073254D01*
X134922260Y-83133377D01*
X135821420Y-83133377D01*
X136339190Y-83030386D01*
X136778133Y-82737093D01*
X136781536Y-82732000D01*
X137795000Y-82732000D01*
X138350657Y-82621473D01*
X138564620Y-82478507D01*
X138564620Y-82607729D01*
X138661293Y-82841118D01*
X138823174Y-83003000D01*
X137160000Y-83003000D01*
X136604344Y-83113527D01*
X136133281Y-83428281D01*
X135498281Y-84063281D01*
X135183527Y-84534343D01*
X135088782Y-85010657D01*
X135073000Y-85090000D01*
X135073000Y-85661251D01*
X134915584Y-85896840D01*
X134812593Y-86414610D01*
X134812593Y-86833710D01*
X134835581Y-86949280D01*
X134812593Y-87064850D01*
X134812593Y-87483950D01*
X134835581Y-87599520D01*
X134812593Y-87715090D01*
X134812593Y-88134190D01*
X134835581Y-88249760D01*
X134812593Y-88365330D01*
X134812593Y-88784430D01*
X134915584Y-89302200D01*
X135081319Y-89550240D01*
X134915584Y-89798280D01*
X134812593Y-90316050D01*
X134812593Y-90735150D01*
X134835581Y-90850720D01*
X134812593Y-90966290D01*
X134812593Y-91385390D01*
X134915584Y-91903160D01*
X135208877Y-92342103D01*
X135448920Y-92502495D01*
X135448920Y-98800920D01*
X135559447Y-99356577D01*
X135874201Y-99827639D01*
X139539421Y-103492859D01*
X140010484Y-103807613D01*
X140566140Y-103918140D01*
X142232355Y-103918140D01*
X142566780Y-104141596D01*
X143084550Y-104244587D01*
X143935450Y-104244587D01*
X144453220Y-104141596D01*
X144787645Y-103918140D01*
X149678000Y-103918140D01*
X149678000Y-104140000D01*
X149788527Y-104695657D01*
X150103281Y-105166719D01*
X150621441Y-105684879D01*
X151092504Y-105999633D01*
X151648160Y-106110160D01*
X153551312Y-106110160D01*
X153804620Y-106279416D01*
X153804620Y-106288842D01*
X153818727Y-106288842D01*
X153905433Y-106346777D01*
X153804620Y-106447590D01*
X153804620Y-106737729D01*
X153901293Y-106971118D01*
X154079921Y-107149747D01*
X154305053Y-107243000D01*
X141273000Y-107243000D01*
X141273000Y-113623000D01*
X123415615Y-113623000D01*
X124074733Y-112963882D01*
X124099377Y-112927000D01*
X129651272Y-112927000D01*
X129984112Y-113149396D01*
X130874421Y-113326490D01*
X130965579Y-113326490D01*
X131855888Y-113149396D01*
X132610656Y-112645077D01*
X132749270Y-112437627D01*
X133079645Y-112589627D01*
X133333000Y-112470807D01*
X133333000Y-111127000D01*
X133313000Y-111127000D01*
X133313000Y-110873000D01*
X133333000Y-110873000D01*
X133333000Y-109529193D01*
X133079645Y-109410373D01*
X132749270Y-109562373D01*
X132610656Y-109354923D01*
X131855888Y-108850604D01*
X130965579Y-108673510D01*
X130874421Y-108673510D01*
X129984112Y-108850604D01*
X129651272Y-109073000D01*
X124990610Y-109073000D01*
X124990610Y-109000000D01*
X124923945Y-108664855D01*
X125362595Y-108226205D01*
X125780316Y-107601041D01*
X125927001Y-106863610D01*
X125927000Y-106863605D01*
X125927000Y-102760411D01*
X129004918Y-102760411D01*
X129180200Y-103184626D01*
X129180200Y-103670100D01*
X129290727Y-104225757D01*
X129605481Y-104696819D01*
X134291016Y-109382354D01*
X134170730Y-109562373D01*
X133840355Y-109410373D01*
X133587000Y-109529193D01*
X133587000Y-110873000D01*
X133607000Y-110873000D01*
X133607000Y-111127000D01*
X133587000Y-111127000D01*
X133587000Y-112470807D01*
X133840355Y-112589627D01*
X134170730Y-112437627D01*
X134309344Y-112645077D01*
X135064112Y-113149396D01*
X135954421Y-113326490D01*
X136045579Y-113326490D01*
X136887373Y-113159046D01*
X137022740Y-113249496D01*
X137540510Y-113352487D01*
X139539490Y-113352487D01*
X140057260Y-113249496D01*
X140496203Y-112956203D01*
X140789496Y-112517260D01*
X140892487Y-111999490D01*
X140892487Y-110000510D01*
X140789496Y-109482740D01*
X140496203Y-109043797D01*
X140057260Y-108750504D01*
X139539490Y-108647513D01*
X137540510Y-108647513D01*
X137380671Y-108679307D01*
X137341473Y-108482244D01*
X137026719Y-108011181D01*
X135115148Y-106099610D01*
X142449550Y-106099610D01*
X142449550Y-106365619D01*
X142546223Y-106599008D01*
X142724851Y-106777637D01*
X142958240Y-106874310D01*
X143224250Y-106874310D01*
X143383000Y-106715560D01*
X143383000Y-105940860D01*
X143637000Y-105940860D01*
X143637000Y-106715560D01*
X143795750Y-106874310D01*
X144061760Y-106874310D01*
X144295149Y-106777637D01*
X144473777Y-106599008D01*
X144570450Y-106365619D01*
X144570450Y-106099610D01*
X144411700Y-105940860D01*
X143637000Y-105940860D01*
X143383000Y-105940860D01*
X142608300Y-105940860D01*
X142449550Y-106099610D01*
X135115148Y-106099610D01*
X134277639Y-105262101D01*
X142449550Y-105262101D01*
X142449550Y-105528110D01*
X142608300Y-105686860D01*
X143383000Y-105686860D01*
X143383000Y-104912160D01*
X143637000Y-104912160D01*
X143637000Y-105686860D01*
X144411700Y-105686860D01*
X144570450Y-105528110D01*
X144570450Y-105262101D01*
X144473777Y-105028712D01*
X144295149Y-104850083D01*
X144061760Y-104753410D01*
X143795750Y-104753410D01*
X143637000Y-104912160D01*
X143383000Y-104912160D01*
X143224250Y-104753410D01*
X142958240Y-104753410D01*
X142724851Y-104850083D01*
X142546223Y-105028712D01*
X142449550Y-105262101D01*
X134277639Y-105262101D01*
X132118045Y-103102507D01*
X132258917Y-102763250D01*
X132259482Y-102115989D01*
X132012308Y-101517782D01*
X131555025Y-101059701D01*
X130957250Y-100811483D01*
X130309989Y-100810918D01*
X129711782Y-101058092D01*
X129253701Y-101515375D01*
X129005483Y-102113150D01*
X129004918Y-102760411D01*
X125927000Y-102760411D01*
X125927000Y-79594400D01*
X125780316Y-78856969D01*
X125362595Y-78231805D01*
X120513590Y-73382800D01*
X124574300Y-73382800D01*
X125177792Y-73262758D01*
X125689407Y-72920907D01*
X125913314Y-72697000D01*
X126134710Y-72697000D01*
X126297287Y-72940313D01*
X126701369Y-73210313D01*
X126665291Y-73285209D01*
X126662642Y-73300974D01*
X126783783Y-73533000D01*
X128143000Y-73533000D01*
X128143000Y-73513000D01*
X128397000Y-73513000D01*
X128397000Y-73533000D01*
X129756217Y-73533000D01*
X129877358Y-73300974D01*
X129874709Y-73285209D01*
X129838631Y-73210313D01*
X130242713Y-72940313D01*
X130488812Y-72572000D01*
X132458464Y-72572000D01*
X132461867Y-72577093D01*
X132900810Y-72870386D01*
X133418580Y-72973377D01*
X134317740Y-72973377D01*
X134620000Y-72913254D01*
X134922260Y-72973377D01*
X135821420Y-72973377D01*
X136339190Y-72870386D01*
X136778133Y-72577093D01*
X136820858Y-72513150D01*
X137080657Y-72461473D01*
X137551719Y-72146719D01*
X137878278Y-71820160D01*
X138311312Y-71820160D01*
X138564620Y-71989416D01*
X138564620Y-71989416D01*
G37*
X138564620Y-71989416D02*
X138564620Y-71998842D01*
X138578727Y-71998842D01*
X138665433Y-72056777D01*
X138564620Y-72157590D01*
X138564620Y-72447729D01*
X138661293Y-72681118D01*
X138839921Y-72859747D01*
X139073310Y-72956420D01*
X139414250Y-72956420D01*
X139573000Y-72797670D01*
X139573000Y-72170737D01*
X139827000Y-72170737D01*
X139827000Y-72797670D01*
X139985750Y-72956420D01*
X140326690Y-72956420D01*
X140560079Y-72859747D01*
X140738707Y-72681118D01*
X140835380Y-72447729D01*
X140835380Y-72157590D01*
X140734567Y-72056777D01*
X140821273Y-71998842D01*
X140835380Y-71998842D01*
X140835380Y-71989416D01*
X141088688Y-71820160D01*
X142926623Y-71820160D01*
X142926623Y-72321420D01*
X143029614Y-72839190D01*
X143322907Y-73278133D01*
X143328000Y-73281536D01*
X143328000Y-73459882D01*
X142791722Y-73996160D01*
X141088688Y-73996160D01*
X140718150Y-73748574D01*
X140200380Y-73645583D01*
X139199620Y-73645583D01*
X138681850Y-73748574D01*
X138311312Y-73996160D01*
X136641840Y-73996160D01*
X136086183Y-74106687D01*
X135727094Y-74346623D01*
X134922260Y-74346623D01*
X134620000Y-74406746D01*
X134317740Y-74346623D01*
X133418580Y-74346623D01*
X132900810Y-74449614D01*
X132461867Y-74742907D01*
X132458464Y-74748000D01*
X130082095Y-74748000D01*
X130017290Y-74651012D01*
X129684867Y-74428894D01*
X129874709Y-74034791D01*
X129877358Y-74019026D01*
X129756217Y-73787000D01*
X128397000Y-73787000D01*
X128397000Y-73807000D01*
X128143000Y-73807000D01*
X128143000Y-73787000D01*
X126783783Y-73787000D01*
X126662642Y-74019026D01*
X126665291Y-74034791D01*
X126855133Y-74428894D01*
X126522710Y-74651012D01*
X126047847Y-75361694D01*
X125881098Y-76200000D01*
X126047847Y-77038306D01*
X126336296Y-77470000D01*
X126047847Y-77901694D01*
X125881098Y-78740000D01*
X126047847Y-79578306D01*
X126522710Y-80288988D01*
X127233392Y-80763851D01*
X128071698Y-80930600D01*
X128407162Y-80930600D01*
X129783281Y-82306719D01*
X130254344Y-82621473D01*
X130810000Y-82732000D01*
X132458464Y-82732000D01*
X132461867Y-82737093D01*
X132900810Y-83030386D01*
X133418580Y-83133377D01*
X134317740Y-83133377D01*
X134620000Y-83073254D01*
X134922260Y-83133377D01*
X135821420Y-83133377D01*
X136339190Y-83030386D01*
X136778133Y-82737093D01*
X136781536Y-82732000D01*
X137795000Y-82732000D01*
X138350657Y-82621473D01*
X138564620Y-82478507D01*
X138564620Y-82607729D01*
X138661293Y-82841118D01*
X138823174Y-83003000D01*
X137160000Y-83003000D01*
X136604344Y-83113527D01*
X136133281Y-83428281D01*
X135498281Y-84063281D01*
X135183527Y-84534343D01*
X135088782Y-85010657D01*
X135073000Y-85090000D01*
X135073000Y-85661251D01*
X134915584Y-85896840D01*
X134812593Y-86414610D01*
X134812593Y-86833710D01*
X134835581Y-86949280D01*
X134812593Y-87064850D01*
X134812593Y-87483950D01*
X134835581Y-87599520D01*
X134812593Y-87715090D01*
X134812593Y-88134190D01*
X134835581Y-88249760D01*
X134812593Y-88365330D01*
X134812593Y-88784430D01*
X134915584Y-89302200D01*
X135081319Y-89550240D01*
X134915584Y-89798280D01*
X134812593Y-90316050D01*
X134812593Y-90735150D01*
X134835581Y-90850720D01*
X134812593Y-90966290D01*
X134812593Y-91385390D01*
X134915584Y-91903160D01*
X135208877Y-92342103D01*
X135448920Y-92502495D01*
X135448920Y-98800920D01*
X135559447Y-99356577D01*
X135874201Y-99827639D01*
X139539421Y-103492859D01*
X140010484Y-103807613D01*
X140566140Y-103918140D01*
X142232355Y-103918140D01*
X142566780Y-104141596D01*
X143084550Y-104244587D01*
X143935450Y-104244587D01*
X144453220Y-104141596D01*
X144787645Y-103918140D01*
X149678000Y-103918140D01*
X149678000Y-104140000D01*
X149788527Y-104695657D01*
X150103281Y-105166719D01*
X150621441Y-105684879D01*
X151092504Y-105999633D01*
X151648160Y-106110160D01*
X153551312Y-106110160D01*
X153804620Y-106279416D01*
X153804620Y-106288842D01*
X153818727Y-106288842D01*
X153905433Y-106346777D01*
X153804620Y-106447590D01*
X153804620Y-106737729D01*
X153901293Y-106971118D01*
X154079921Y-107149747D01*
X154305053Y-107243000D01*
X141273000Y-107243000D01*
X141273000Y-113623000D01*
X123415615Y-113623000D01*
X124074733Y-112963882D01*
X124099377Y-112927000D01*
X129651272Y-112927000D01*
X129984112Y-113149396D01*
X130874421Y-113326490D01*
X130965579Y-113326490D01*
X131855888Y-113149396D01*
X132610656Y-112645077D01*
X132749270Y-112437627D01*
X133079645Y-112589627D01*
X133333000Y-112470807D01*
X133333000Y-111127000D01*
X133313000Y-111127000D01*
X133313000Y-110873000D01*
X133333000Y-110873000D01*
X133333000Y-109529193D01*
X133079645Y-109410373D01*
X132749270Y-109562373D01*
X132610656Y-109354923D01*
X131855888Y-108850604D01*
X130965579Y-108673510D01*
X130874421Y-108673510D01*
X129984112Y-108850604D01*
X129651272Y-109073000D01*
X124990610Y-109073000D01*
X124990610Y-109000000D01*
X124923945Y-108664855D01*
X125362595Y-108226205D01*
X125780316Y-107601041D01*
X125927001Y-106863610D01*
X125927000Y-106863605D01*
X125927000Y-102760411D01*
X129004918Y-102760411D01*
X129180200Y-103184626D01*
X129180200Y-103670100D01*
X129290727Y-104225757D01*
X129605481Y-104696819D01*
X134291016Y-109382354D01*
X134170730Y-109562373D01*
X133840355Y-109410373D01*
X133587000Y-109529193D01*
X133587000Y-110873000D01*
X133607000Y-110873000D01*
X133607000Y-111127000D01*
X133587000Y-111127000D01*
X133587000Y-112470807D01*
X133840355Y-112589627D01*
X134170730Y-112437627D01*
X134309344Y-112645077D01*
X135064112Y-113149396D01*
X135954421Y-113326490D01*
X136045579Y-113326490D01*
X136887373Y-113159046D01*
X137022740Y-113249496D01*
X137540510Y-113352487D01*
X139539490Y-113352487D01*
X140057260Y-113249496D01*
X140496203Y-112956203D01*
X140789496Y-112517260D01*
X140892487Y-111999490D01*
X140892487Y-110000510D01*
X140789496Y-109482740D01*
X140496203Y-109043797D01*
X140057260Y-108750504D01*
X139539490Y-108647513D01*
X137540510Y-108647513D01*
X137380671Y-108679307D01*
X137341473Y-108482244D01*
X137026719Y-108011181D01*
X135115148Y-106099610D01*
X142449550Y-106099610D01*
X142449550Y-106365619D01*
X142546223Y-106599008D01*
X142724851Y-106777637D01*
X142958240Y-106874310D01*
X143224250Y-106874310D01*
X143383000Y-106715560D01*
X143383000Y-105940860D01*
X143637000Y-105940860D01*
X143637000Y-106715560D01*
X143795750Y-106874310D01*
X144061760Y-106874310D01*
X144295149Y-106777637D01*
X144473777Y-106599008D01*
X144570450Y-106365619D01*
X144570450Y-106099610D01*
X144411700Y-105940860D01*
X143637000Y-105940860D01*
X143383000Y-105940860D01*
X142608300Y-105940860D01*
X142449550Y-106099610D01*
X135115148Y-106099610D01*
X134277639Y-105262101D01*
X142449550Y-105262101D01*
X142449550Y-105528110D01*
X142608300Y-105686860D01*
X143383000Y-105686860D01*
X143383000Y-104912160D01*
X143637000Y-104912160D01*
X143637000Y-105686860D01*
X144411700Y-105686860D01*
X144570450Y-105528110D01*
X144570450Y-105262101D01*
X144473777Y-105028712D01*
X144295149Y-104850083D01*
X144061760Y-104753410D01*
X143795750Y-104753410D01*
X143637000Y-104912160D01*
X143383000Y-104912160D01*
X143224250Y-104753410D01*
X142958240Y-104753410D01*
X142724851Y-104850083D01*
X142546223Y-105028712D01*
X142449550Y-105262101D01*
X134277639Y-105262101D01*
X132118045Y-103102507D01*
X132258917Y-102763250D01*
X132259482Y-102115989D01*
X132012308Y-101517782D01*
X131555025Y-101059701D01*
X130957250Y-100811483D01*
X130309989Y-100810918D01*
X129711782Y-101058092D01*
X129253701Y-101515375D01*
X129005483Y-102113150D01*
X129004918Y-102760411D01*
X125927000Y-102760411D01*
X125927000Y-79594400D01*
X125780316Y-78856969D01*
X125362595Y-78231805D01*
X120513590Y-73382800D01*
X124574300Y-73382800D01*
X125177792Y-73262758D01*
X125689407Y-72920907D01*
X125913314Y-72697000D01*
X126134710Y-72697000D01*
X126297287Y-72940313D01*
X126701369Y-73210313D01*
X126665291Y-73285209D01*
X126662642Y-73300974D01*
X126783783Y-73533000D01*
X128143000Y-73533000D01*
X128143000Y-73513000D01*
X128397000Y-73513000D01*
X128397000Y-73533000D01*
X129756217Y-73533000D01*
X129877358Y-73300974D01*
X129874709Y-73285209D01*
X129838631Y-73210313D01*
X130242713Y-72940313D01*
X130488812Y-72572000D01*
X132458464Y-72572000D01*
X132461867Y-72577093D01*
X132900810Y-72870386D01*
X133418580Y-72973377D01*
X134317740Y-72973377D01*
X134620000Y-72913254D01*
X134922260Y-72973377D01*
X135821420Y-72973377D01*
X136339190Y-72870386D01*
X136778133Y-72577093D01*
X136820858Y-72513150D01*
X137080657Y-72461473D01*
X137551719Y-72146719D01*
X137878278Y-71820160D01*
X138311312Y-71820160D01*
X138564620Y-71989416D01*
G36*
X173287300Y-97890682D02*
X171423074Y-99754908D01*
X171381420Y-99746623D01*
X170482260Y-99746623D01*
X170180000Y-99806746D01*
X169877740Y-99746623D01*
X168978580Y-99746623D01*
X168460810Y-99849614D01*
X168021867Y-100142907D01*
X168018464Y-100148000D01*
X165100000Y-100148000D01*
X164544344Y-100258527D01*
X164073281Y-100573281D01*
X163758527Y-101044344D01*
X163648000Y-101600000D01*
X163648000Y-103206160D01*
X162488196Y-103206160D01*
X162471426Y-103121850D01*
X162178133Y-102682907D01*
X161739190Y-102389614D01*
X161221420Y-102286623D01*
X160322260Y-102286623D01*
X160020000Y-102346746D01*
X159717740Y-102286623D01*
X158818580Y-102286623D01*
X158300810Y-102389614D01*
X157861867Y-102682907D01*
X157858464Y-102688000D01*
X155458160Y-102688000D01*
X154902504Y-102798527D01*
X154817114Y-102855583D01*
X154439620Y-102855583D01*
X153921850Y-102958574D01*
X153551312Y-103206160D01*
X152632344Y-103206160D01*
X152805456Y-102947080D01*
X152908447Y-102429310D01*
X152908447Y-101578410D01*
X152805456Y-101060640D01*
X152512163Y-100621697D01*
X152075609Y-100330000D01*
X152512163Y-100038303D01*
X152805456Y-99599360D01*
X152908447Y-99081590D01*
X152908447Y-98230690D01*
X152805456Y-97712920D01*
X152582000Y-97378495D01*
X152582000Y-97307839D01*
X152685418Y-97265108D01*
X152899651Y-97051249D01*
X153086623Y-97238221D01*
X153086623Y-97487740D01*
X153189614Y-98005510D01*
X153482907Y-98444453D01*
X153804620Y-98659416D01*
X153804620Y-98668842D01*
X153818727Y-98668842D01*
X153905433Y-98726777D01*
X153804620Y-98827590D01*
X153804620Y-99117729D01*
X153901293Y-99351118D01*
X154079921Y-99529747D01*
X154313310Y-99626420D01*
X154654250Y-99626420D01*
X154813000Y-99467670D01*
X154813000Y-98840737D01*
X155067000Y-98840737D01*
X155067000Y-99467670D01*
X155225750Y-99626420D01*
X155566690Y-99626420D01*
X155800079Y-99529747D01*
X155978707Y-99351118D01*
X156075380Y-99117729D01*
X156075380Y-98827590D01*
X155974567Y-98726777D01*
X156061273Y-98668842D01*
X156075380Y-98668842D01*
X156075380Y-98659416D01*
X156397093Y-98444453D01*
X156690386Y-98005510D01*
X156697052Y-97972000D01*
X157858464Y-97972000D01*
X157861867Y-97977093D01*
X158300810Y-98270386D01*
X158818580Y-98373377D01*
X159717740Y-98373377D01*
X160020000Y-98313254D01*
X160322260Y-98373377D01*
X161221420Y-98373377D01*
X161739190Y-98270386D01*
X162049563Y-98063001D01*
X162051441Y-98064879D01*
X162522504Y-98379633D01*
X163078160Y-98490160D01*
X163711312Y-98490160D01*
X163964620Y-98659416D01*
X163964620Y-98668842D01*
X163978727Y-98668842D01*
X164065433Y-98726777D01*
X163964620Y-98827590D01*
X163964620Y-99117729D01*
X164061293Y-99351118D01*
X164239921Y-99529747D01*
X164473310Y-99626420D01*
X164814250Y-99626420D01*
X164973000Y-99467670D01*
X164973000Y-98840737D01*
X165227000Y-98840737D01*
X165227000Y-99467670D01*
X165385750Y-99626420D01*
X165726690Y-99626420D01*
X165960079Y-99529747D01*
X166138707Y-99351118D01*
X166235380Y-99117729D01*
X166235380Y-98827590D01*
X166134567Y-98726777D01*
X166221273Y-98668842D01*
X166235380Y-98668842D01*
X166235380Y-98659416D01*
X166557093Y-98444453D01*
X166850386Y-98005510D01*
X166857052Y-97972000D01*
X168018464Y-97972000D01*
X168021867Y-97977093D01*
X168460810Y-98270386D01*
X168978580Y-98373377D01*
X169877740Y-98373377D01*
X170180000Y-98313254D01*
X170482260Y-98373377D01*
X171381420Y-98373377D01*
X171899190Y-98270386D01*
X172338133Y-97977093D01*
X172599536Y-97585876D01*
X172658139Y-97546719D01*
X173287300Y-96917558D01*
X173287300Y-97890682D01*
X173287300Y-97890682D01*
G37*
X173287300Y-97890682D02*
X171423074Y-99754908D01*
X171381420Y-99746623D01*
X170482260Y-99746623D01*
X170180000Y-99806746D01*
X169877740Y-99746623D01*
X168978580Y-99746623D01*
X168460810Y-99849614D01*
X168021867Y-100142907D01*
X168018464Y-100148000D01*
X165100000Y-100148000D01*
X164544344Y-100258527D01*
X164073281Y-100573281D01*
X163758527Y-101044344D01*
X163648000Y-101600000D01*
X163648000Y-103206160D01*
X162488196Y-103206160D01*
X162471426Y-103121850D01*
X162178133Y-102682907D01*
X161739190Y-102389614D01*
X161221420Y-102286623D01*
X160322260Y-102286623D01*
X160020000Y-102346746D01*
X159717740Y-102286623D01*
X158818580Y-102286623D01*
X158300810Y-102389614D01*
X157861867Y-102682907D01*
X157858464Y-102688000D01*
X155458160Y-102688000D01*
X154902504Y-102798527D01*
X154817114Y-102855583D01*
X154439620Y-102855583D01*
X153921850Y-102958574D01*
X153551312Y-103206160D01*
X152632344Y-103206160D01*
X152805456Y-102947080D01*
X152908447Y-102429310D01*
X152908447Y-101578410D01*
X152805456Y-101060640D01*
X152512163Y-100621697D01*
X152075609Y-100330000D01*
X152512163Y-100038303D01*
X152805456Y-99599360D01*
X152908447Y-99081590D01*
X152908447Y-98230690D01*
X152805456Y-97712920D01*
X152582000Y-97378495D01*
X152582000Y-97307839D01*
X152685418Y-97265108D01*
X152899651Y-97051249D01*
X153086623Y-97238221D01*
X153086623Y-97487740D01*
X153189614Y-98005510D01*
X153482907Y-98444453D01*
X153804620Y-98659416D01*
X153804620Y-98668842D01*
X153818727Y-98668842D01*
X153905433Y-98726777D01*
X153804620Y-98827590D01*
X153804620Y-99117729D01*
X153901293Y-99351118D01*
X154079921Y-99529747D01*
X154313310Y-99626420D01*
X154654250Y-99626420D01*
X154813000Y-99467670D01*
X154813000Y-98840737D01*
X155067000Y-98840737D01*
X155067000Y-99467670D01*
X155225750Y-99626420D01*
X155566690Y-99626420D01*
X155800079Y-99529747D01*
X155978707Y-99351118D01*
X156075380Y-99117729D01*
X156075380Y-98827590D01*
X155974567Y-98726777D01*
X156061273Y-98668842D01*
X156075380Y-98668842D01*
X156075380Y-98659416D01*
X156397093Y-98444453D01*
X156690386Y-98005510D01*
X156697052Y-97972000D01*
X157858464Y-97972000D01*
X157861867Y-97977093D01*
X158300810Y-98270386D01*
X158818580Y-98373377D01*
X159717740Y-98373377D01*
X160020000Y-98313254D01*
X160322260Y-98373377D01*
X161221420Y-98373377D01*
X161739190Y-98270386D01*
X162049563Y-98063001D01*
X162051441Y-98064879D01*
X162522504Y-98379633D01*
X163078160Y-98490160D01*
X163711312Y-98490160D01*
X163964620Y-98659416D01*
X163964620Y-98668842D01*
X163978727Y-98668842D01*
X164065433Y-98726777D01*
X163964620Y-98827590D01*
X163964620Y-99117729D01*
X164061293Y-99351118D01*
X164239921Y-99529747D01*
X164473310Y-99626420D01*
X164814250Y-99626420D01*
X164973000Y-99467670D01*
X164973000Y-98840737D01*
X165227000Y-98840737D01*
X165227000Y-99467670D01*
X165385750Y-99626420D01*
X165726690Y-99626420D01*
X165960079Y-99529747D01*
X166138707Y-99351118D01*
X166235380Y-99117729D01*
X166235380Y-98827590D01*
X166134567Y-98726777D01*
X166221273Y-98668842D01*
X166235380Y-98668842D01*
X166235380Y-98659416D01*
X166557093Y-98444453D01*
X166850386Y-98005510D01*
X166857052Y-97972000D01*
X168018464Y-97972000D01*
X168021867Y-97977093D01*
X168460810Y-98270386D01*
X168978580Y-98373377D01*
X169877740Y-98373377D01*
X170180000Y-98313254D01*
X170482260Y-98373377D01*
X171381420Y-98373377D01*
X171899190Y-98270386D01*
X172338133Y-97977093D01*
X172599536Y-97585876D01*
X172658139Y-97546719D01*
X173287300Y-96917558D01*
X173287300Y-97890682D01*
G36*
X138358527Y-93265657D02*
X138673281Y-93736719D01*
X139943281Y-95006719D01*
X140414343Y-95321473D01*
X140970000Y-95432000D01*
X143106140Y-95432000D01*
X143495322Y-95354587D01*
X143935450Y-95354587D01*
X144453220Y-95251596D01*
X144787645Y-95028140D01*
X150359110Y-95028140D01*
X150210479Y-95386083D01*
X150103281Y-95493281D01*
X149788527Y-95964343D01*
X149685459Y-96482503D01*
X149678000Y-96520000D01*
X149678000Y-97378495D01*
X149454544Y-97712920D01*
X149351553Y-98230690D01*
X149351553Y-99081590D01*
X149454544Y-99599360D01*
X149747837Y-100038303D01*
X150184391Y-100330000D01*
X149747837Y-100621697D01*
X149485614Y-101014140D01*
X144787645Y-101014140D01*
X144453220Y-100790684D01*
X143935450Y-100687693D01*
X143084550Y-100687693D01*
X142566780Y-100790684D01*
X142232355Y-101014140D01*
X141167578Y-101014140D01*
X138352920Y-98199482D01*
X138352920Y-97209610D01*
X142449550Y-97209610D01*
X142449550Y-97475619D01*
X142546223Y-97709008D01*
X142724851Y-97887637D01*
X142958240Y-97984310D01*
X143224250Y-97984310D01*
X143383000Y-97825560D01*
X143383000Y-97050860D01*
X143637000Y-97050860D01*
X143637000Y-97825560D01*
X143795750Y-97984310D01*
X144061760Y-97984310D01*
X144295149Y-97887637D01*
X144473777Y-97709008D01*
X144570450Y-97475619D01*
X144570450Y-97209610D01*
X144411700Y-97050860D01*
X143637000Y-97050860D01*
X143383000Y-97050860D01*
X142608300Y-97050860D01*
X142449550Y-97209610D01*
X138352920Y-97209610D01*
X138352920Y-96372101D01*
X142449550Y-96372101D01*
X142449550Y-96638110D01*
X142608300Y-96796860D01*
X143383000Y-96796860D01*
X143383000Y-96022160D01*
X143637000Y-96022160D01*
X143637000Y-96796860D01*
X144411700Y-96796860D01*
X144570450Y-96638110D01*
X144570450Y-96372101D01*
X144473777Y-96138712D01*
X144295149Y-95960083D01*
X144061760Y-95863410D01*
X143795750Y-95863410D01*
X143637000Y-96022160D01*
X143383000Y-96022160D01*
X143224250Y-95863410D01*
X142958240Y-95863410D01*
X142724851Y-95960083D01*
X142546223Y-96138712D01*
X142449550Y-96372101D01*
X138352920Y-96372101D01*
X138352920Y-93237469D01*
X138358527Y-93265657D01*
X138358527Y-93265657D01*
G37*
X138358527Y-93265657D02*
X138673281Y-93736719D01*
X139943281Y-95006719D01*
X140414343Y-95321473D01*
X140970000Y-95432000D01*
X143106140Y-95432000D01*
X143495322Y-95354587D01*
X143935450Y-95354587D01*
X144453220Y-95251596D01*
X144787645Y-95028140D01*
X150359110Y-95028140D01*
X150210479Y-95386083D01*
X150103281Y-95493281D01*
X149788527Y-95964343D01*
X149685459Y-96482503D01*
X149678000Y-96520000D01*
X149678000Y-97378495D01*
X149454544Y-97712920D01*
X149351553Y-98230690D01*
X149351553Y-99081590D01*
X149454544Y-99599360D01*
X149747837Y-100038303D01*
X150184391Y-100330000D01*
X149747837Y-100621697D01*
X149485614Y-101014140D01*
X144787645Y-101014140D01*
X144453220Y-100790684D01*
X143935450Y-100687693D01*
X143084550Y-100687693D01*
X142566780Y-100790684D01*
X142232355Y-101014140D01*
X141167578Y-101014140D01*
X138352920Y-98199482D01*
X138352920Y-97209610D01*
X142449550Y-97209610D01*
X142449550Y-97475619D01*
X142546223Y-97709008D01*
X142724851Y-97887637D01*
X142958240Y-97984310D01*
X143224250Y-97984310D01*
X143383000Y-97825560D01*
X143383000Y-97050860D01*
X143637000Y-97050860D01*
X143637000Y-97825560D01*
X143795750Y-97984310D01*
X144061760Y-97984310D01*
X144295149Y-97887637D01*
X144473777Y-97709008D01*
X144570450Y-97475619D01*
X144570450Y-97209610D01*
X144411700Y-97050860D01*
X143637000Y-97050860D01*
X143383000Y-97050860D01*
X142608300Y-97050860D01*
X142449550Y-97209610D01*
X138352920Y-97209610D01*
X138352920Y-96372101D01*
X142449550Y-96372101D01*
X142449550Y-96638110D01*
X142608300Y-96796860D01*
X143383000Y-96796860D01*
X143383000Y-96022160D01*
X143637000Y-96022160D01*
X143637000Y-96796860D01*
X144411700Y-96796860D01*
X144570450Y-96638110D01*
X144570450Y-96372101D01*
X144473777Y-96138712D01*
X144295149Y-95960083D01*
X144061760Y-95863410D01*
X143795750Y-95863410D01*
X143637000Y-96022160D01*
X143383000Y-96022160D01*
X143224250Y-95863410D01*
X142958240Y-95863410D01*
X142724851Y-95960083D01*
X142546223Y-96138712D01*
X142449550Y-96372101D01*
X138352920Y-96372101D01*
X138352920Y-93237469D01*
X138358527Y-93265657D01*
G36*
X149994620Y-85959416D02*
X149994620Y-85968842D01*
X150008727Y-85968842D01*
X150095433Y-86026777D01*
X149994620Y-86127590D01*
X149994620Y-86417729D01*
X150091293Y-86651118D01*
X150269921Y-86829747D01*
X150503310Y-86926420D01*
X150844250Y-86926420D01*
X151003000Y-86767670D01*
X151003000Y-86140737D01*
X151257000Y-86140737D01*
X151257000Y-86767670D01*
X151415750Y-86926420D01*
X151756690Y-86926420D01*
X151990079Y-86829747D01*
X152168707Y-86651118D01*
X152265380Y-86417729D01*
X152265380Y-86373818D01*
X152704562Y-86813000D01*
X152400000Y-86813000D01*
X151844343Y-86923527D01*
X151373281Y-87238281D01*
X150603836Y-88007726D01*
X150186780Y-88090684D01*
X149747837Y-88383977D01*
X149454544Y-88822920D01*
X149351553Y-89340690D01*
X149351553Y-90191590D01*
X149454544Y-90709360D01*
X149747837Y-91148303D01*
X150184391Y-91440000D01*
X149747837Y-91731697D01*
X149485614Y-92124140D01*
X144787645Y-92124140D01*
X144475931Y-91915859D01*
X144484416Y-91903160D01*
X144587407Y-91385390D01*
X144587407Y-90966290D01*
X144564419Y-90850720D01*
X144587407Y-90735150D01*
X144587407Y-90316050D01*
X144484416Y-89798280D01*
X144202685Y-89376640D01*
X145120360Y-89376640D01*
X145676017Y-89266113D01*
X146147079Y-88951359D01*
X149308278Y-85790160D01*
X149741312Y-85790160D01*
X149994620Y-85959416D01*
X149994620Y-85959416D01*
G37*
X149994620Y-85959416D02*
X149994620Y-85968842D01*
X150008727Y-85968842D01*
X150095433Y-86026777D01*
X149994620Y-86127590D01*
X149994620Y-86417729D01*
X150091293Y-86651118D01*
X150269921Y-86829747D01*
X150503310Y-86926420D01*
X150844250Y-86926420D01*
X151003000Y-86767670D01*
X151003000Y-86140737D01*
X151257000Y-86140737D01*
X151257000Y-86767670D01*
X151415750Y-86926420D01*
X151756690Y-86926420D01*
X151990079Y-86829747D01*
X152168707Y-86651118D01*
X152265380Y-86417729D01*
X152265380Y-86373818D01*
X152704562Y-86813000D01*
X152400000Y-86813000D01*
X151844343Y-86923527D01*
X151373281Y-87238281D01*
X150603836Y-88007726D01*
X150186780Y-88090684D01*
X149747837Y-88383977D01*
X149454544Y-88822920D01*
X149351553Y-89340690D01*
X149351553Y-90191590D01*
X149454544Y-90709360D01*
X149747837Y-91148303D01*
X150184391Y-91440000D01*
X149747837Y-91731697D01*
X149485614Y-92124140D01*
X144787645Y-92124140D01*
X144475931Y-91915859D01*
X144484416Y-91903160D01*
X144587407Y-91385390D01*
X144587407Y-90966290D01*
X144564419Y-90850720D01*
X144587407Y-90735150D01*
X144587407Y-90316050D01*
X144484416Y-89798280D01*
X144202685Y-89376640D01*
X145120360Y-89376640D01*
X145676017Y-89266113D01*
X146147079Y-88951359D01*
X149308278Y-85790160D01*
X149741312Y-85790160D01*
X149994620Y-85959416D01*
G36*
X153996780Y-71121596D02*
X154514550Y-71224587D01*
X155365450Y-71224587D01*
X155883220Y-71121596D01*
X156217645Y-70898140D01*
X156474702Y-70898140D01*
X156663000Y-71086438D01*
X156663000Y-73693562D01*
X155608562Y-74748000D01*
X154940000Y-74748000D01*
X154384344Y-74858527D01*
X153913281Y-75173281D01*
X150103281Y-78983281D01*
X149788527Y-79454343D01*
X149765286Y-79571183D01*
X149678000Y-80010000D01*
X149678000Y-82886160D01*
X148706840Y-82886160D01*
X148151184Y-82996687D01*
X147680121Y-83311441D01*
X144579750Y-86411812D01*
X144571765Y-86371673D01*
X145971719Y-84971719D01*
X146286473Y-84500657D01*
X146397000Y-83945000D01*
X146397000Y-80118324D01*
X146397175Y-80118499D01*
X146994950Y-80366717D01*
X147642211Y-80367282D01*
X148240418Y-80120108D01*
X148698499Y-79662825D01*
X148874521Y-79238917D01*
X150886719Y-77226719D01*
X150946855Y-77136719D01*
X151201473Y-76755656D01*
X151312000Y-76200000D01*
X151312000Y-73281536D01*
X151317093Y-73278133D01*
X151449742Y-73079610D01*
X153879550Y-73079610D01*
X153879550Y-73345619D01*
X153976223Y-73579008D01*
X154154851Y-73757637D01*
X154388240Y-73854310D01*
X154654250Y-73854310D01*
X154813000Y-73695560D01*
X154813000Y-72920860D01*
X155067000Y-72920860D01*
X155067000Y-73695560D01*
X155225750Y-73854310D01*
X155491760Y-73854310D01*
X155725149Y-73757637D01*
X155903777Y-73579008D01*
X156000450Y-73345619D01*
X156000450Y-73079610D01*
X155841700Y-72920860D01*
X155067000Y-72920860D01*
X154813000Y-72920860D01*
X154038300Y-72920860D01*
X153879550Y-73079610D01*
X151449742Y-73079610D01*
X151610386Y-72839190D01*
X151713377Y-72321420D01*
X151713377Y-72242101D01*
X153879550Y-72242101D01*
X153879550Y-72508110D01*
X154038300Y-72666860D01*
X154813000Y-72666860D01*
X154813000Y-71892160D01*
X155067000Y-71892160D01*
X155067000Y-72666860D01*
X155841700Y-72666860D01*
X156000450Y-72508110D01*
X156000450Y-72242101D01*
X155903777Y-72008712D01*
X155725149Y-71830083D01*
X155491760Y-71733410D01*
X155225750Y-71733410D01*
X155067000Y-71892160D01*
X154813000Y-71892160D01*
X154654250Y-71733410D01*
X154388240Y-71733410D01*
X154154851Y-71830083D01*
X153976223Y-72008712D01*
X153879550Y-72242101D01*
X151713377Y-72242101D01*
X151713377Y-71820160D01*
X151881840Y-71820160D01*
X152437497Y-71709633D01*
X152908559Y-71394879D01*
X153405298Y-70898140D01*
X153662355Y-70898140D01*
X153996780Y-71121596D01*
X153996780Y-71121596D01*
G37*
X153996780Y-71121596D02*
X154514550Y-71224587D01*
X155365450Y-71224587D01*
X155883220Y-71121596D01*
X156217645Y-70898140D01*
X156474702Y-70898140D01*
X156663000Y-71086438D01*
X156663000Y-73693562D01*
X155608562Y-74748000D01*
X154940000Y-74748000D01*
X154384344Y-74858527D01*
X153913281Y-75173281D01*
X150103281Y-78983281D01*
X149788527Y-79454343D01*
X149765286Y-79571183D01*
X149678000Y-80010000D01*
X149678000Y-82886160D01*
X148706840Y-82886160D01*
X148151184Y-82996687D01*
X147680121Y-83311441D01*
X144579750Y-86411812D01*
X144571765Y-86371673D01*
X145971719Y-84971719D01*
X146286473Y-84500657D01*
X146397000Y-83945000D01*
X146397000Y-80118324D01*
X146397175Y-80118499D01*
X146994950Y-80366717D01*
X147642211Y-80367282D01*
X148240418Y-80120108D01*
X148698499Y-79662825D01*
X148874521Y-79238917D01*
X150886719Y-77226719D01*
X150946855Y-77136719D01*
X151201473Y-76755656D01*
X151312000Y-76200000D01*
X151312000Y-73281536D01*
X151317093Y-73278133D01*
X151449742Y-73079610D01*
X153879550Y-73079610D01*
X153879550Y-73345619D01*
X153976223Y-73579008D01*
X154154851Y-73757637D01*
X154388240Y-73854310D01*
X154654250Y-73854310D01*
X154813000Y-73695560D01*
X154813000Y-72920860D01*
X155067000Y-72920860D01*
X155067000Y-73695560D01*
X155225750Y-73854310D01*
X155491760Y-73854310D01*
X155725149Y-73757637D01*
X155903777Y-73579008D01*
X156000450Y-73345619D01*
X156000450Y-73079610D01*
X155841700Y-72920860D01*
X155067000Y-72920860D01*
X154813000Y-72920860D01*
X154038300Y-72920860D01*
X153879550Y-73079610D01*
X151449742Y-73079610D01*
X151610386Y-72839190D01*
X151713377Y-72321420D01*
X151713377Y-72242101D01*
X153879550Y-72242101D01*
X153879550Y-72508110D01*
X154038300Y-72666860D01*
X154813000Y-72666860D01*
X154813000Y-71892160D01*
X155067000Y-71892160D01*
X155067000Y-72666860D01*
X155841700Y-72666860D01*
X156000450Y-72508110D01*
X156000450Y-72242101D01*
X155903777Y-72008712D01*
X155725149Y-71830083D01*
X155491760Y-71733410D01*
X155225750Y-71733410D01*
X155067000Y-71892160D01*
X154813000Y-71892160D01*
X154654250Y-71733410D01*
X154388240Y-71733410D01*
X154154851Y-71830083D01*
X153976223Y-72008712D01*
X153879550Y-72242101D01*
X151713377Y-72242101D01*
X151713377Y-71820160D01*
X151881840Y-71820160D01*
X152437497Y-71709633D01*
X152908559Y-71394879D01*
X153405298Y-70898140D01*
X153662355Y-70898140D01*
X153996780Y-71121596D01*
G36*
X138564620Y-77069416D02*
X138564620Y-77078842D01*
X138578727Y-77078842D01*
X138665433Y-77136777D01*
X138564620Y-77237590D01*
X138564620Y-77527729D01*
X138661293Y-77761118D01*
X138839921Y-77939747D01*
X139073310Y-78036420D01*
X139414250Y-78036420D01*
X139573000Y-77877670D01*
X139573000Y-77250737D01*
X139827000Y-77250737D01*
X139827000Y-77877670D01*
X139985750Y-78036420D01*
X140326690Y-78036420D01*
X140560079Y-77939747D01*
X140738707Y-77761118D01*
X140835380Y-77527729D01*
X140835380Y-77237590D01*
X140734567Y-77136777D01*
X140821273Y-77078842D01*
X140835380Y-77078842D01*
X140835380Y-77069416D01*
X141088688Y-76900160D01*
X142791722Y-76900160D01*
X143004674Y-77113112D01*
X142552789Y-77112718D01*
X141954582Y-77359892D01*
X141496501Y-77817175D01*
X141320479Y-78241083D01*
X140727045Y-78834517D01*
X140718150Y-78828574D01*
X140200380Y-78725583D01*
X139199620Y-78725583D01*
X138681850Y-78828574D01*
X138242907Y-79121867D01*
X138231541Y-79138877D01*
X137991183Y-79186687D01*
X137520121Y-79501441D01*
X137193562Y-79828000D01*
X136781536Y-79828000D01*
X136778133Y-79822907D01*
X136339190Y-79529614D01*
X135821420Y-79426623D01*
X134922260Y-79426623D01*
X134620000Y-79486746D01*
X134317740Y-79426623D01*
X133418580Y-79426623D01*
X132900810Y-79529614D01*
X132461867Y-79822907D01*
X132458464Y-79828000D01*
X131411438Y-79828000D01*
X130603245Y-79019807D01*
X130658902Y-78740000D01*
X130492153Y-77901694D01*
X130325313Y-77652000D01*
X132458464Y-77652000D01*
X132461867Y-77657093D01*
X132900810Y-77950386D01*
X133418580Y-78053377D01*
X134317740Y-78053377D01*
X134620000Y-77993254D01*
X134922260Y-78053377D01*
X135821420Y-78053377D01*
X136339190Y-77950386D01*
X136778133Y-77657093D01*
X137071426Y-77218150D01*
X137107713Y-77035725D01*
X137243278Y-76900160D01*
X138311312Y-76900160D01*
X138564620Y-77069416D01*
X138564620Y-77069416D01*
G37*
X138564620Y-77069416D02*
X138564620Y-77078842D01*
X138578727Y-77078842D01*
X138665433Y-77136777D01*
X138564620Y-77237590D01*
X138564620Y-77527729D01*
X138661293Y-77761118D01*
X138839921Y-77939747D01*
X139073310Y-78036420D01*
X139414250Y-78036420D01*
X139573000Y-77877670D01*
X139573000Y-77250737D01*
X139827000Y-77250737D01*
X139827000Y-77877670D01*
X139985750Y-78036420D01*
X140326690Y-78036420D01*
X140560079Y-77939747D01*
X140738707Y-77761118D01*
X140835380Y-77527729D01*
X140835380Y-77237590D01*
X140734567Y-77136777D01*
X140821273Y-77078842D01*
X140835380Y-77078842D01*
X140835380Y-77069416D01*
X141088688Y-76900160D01*
X142791722Y-76900160D01*
X143004674Y-77113112D01*
X142552789Y-77112718D01*
X141954582Y-77359892D01*
X141496501Y-77817175D01*
X141320479Y-78241083D01*
X140727045Y-78834517D01*
X140718150Y-78828574D01*
X140200380Y-78725583D01*
X139199620Y-78725583D01*
X138681850Y-78828574D01*
X138242907Y-79121867D01*
X138231541Y-79138877D01*
X137991183Y-79186687D01*
X137520121Y-79501441D01*
X137193562Y-79828000D01*
X136781536Y-79828000D01*
X136778133Y-79822907D01*
X136339190Y-79529614D01*
X135821420Y-79426623D01*
X134922260Y-79426623D01*
X134620000Y-79486746D01*
X134317740Y-79426623D01*
X133418580Y-79426623D01*
X132900810Y-79529614D01*
X132461867Y-79822907D01*
X132458464Y-79828000D01*
X131411438Y-79828000D01*
X130603245Y-79019807D01*
X130658902Y-78740000D01*
X130492153Y-77901694D01*
X130325313Y-77652000D01*
X132458464Y-77652000D01*
X132461867Y-77657093D01*
X132900810Y-77950386D01*
X133418580Y-78053377D01*
X134317740Y-78053377D01*
X134620000Y-77993254D01*
X134922260Y-78053377D01*
X135821420Y-78053377D01*
X136339190Y-77950386D01*
X136778133Y-77657093D01*
X137071426Y-77218150D01*
X137107713Y-77035725D01*
X137243278Y-76900160D01*
X138311312Y-76900160D01*
X138564620Y-77069416D01*
M02*
