M48
;DRILL file {KiCad (2017-06-02 revision ac9a64a)-master} date Sun Jun 11 20:53:35 2017
;FORMAT={-:-/ absolute / inch / decimal}
FMAT,2
INCH,TZ
T1C0.016
T2C0.032
T3C0.035
T4C0.039
T5C0.040
T6C0.043
T7C0.047
T8C0.071
T9C0.126
%
G90
G05
M72
T1
X3.87Y-2.624
X3.899Y-2.7015
X3.936Y-2.7805
X4.461Y-2.9675
X4.5055Y-3.0085
X4.5405Y-3.052
X4.7445Y-4.1205
X4.7875Y-3.8545
X5.143Y-4.033
X5.4Y-3.25
X5.4Y-4.
X5.55Y-3.9
X5.6Y-2.9
X5.6Y-3.05
X5.625Y-3.1
X5.7874Y-3.4646
X5.8Y-3.1
X5.8661Y-3.4252
X5.975Y-3.775
X6.Y-2.9
X6.075Y-3.675
X6.1Y-3.95
T2
X4.0307Y-2.5965
X4.0307Y-2.6965
X4.0307Y-2.7965
X4.0307Y-2.8965
X4.0307Y-2.9965
X4.0307Y-3.0965
X4.0307Y-3.1965
X4.0307Y-3.2965
X4.0307Y-3.3965
X4.0307Y-3.4965
X4.0307Y-3.5965
X4.0307Y-3.6965
X4.0307Y-3.7965
X4.0307Y-3.8965
X4.0307Y-3.9965
X4.6307Y-2.5965
X4.6307Y-2.6965
X4.6307Y-2.7965
X4.6307Y-2.8965
X4.6307Y-2.9965
X4.6307Y-3.0965
X4.6307Y-3.1965
X4.6307Y-3.2965
X4.6307Y-3.3965
X4.6307Y-3.4965
X4.6307Y-3.5965
X4.6307Y-3.6965
X4.6307Y-3.7965
X4.6307Y-3.8965
X4.6307Y-3.9965
T3
X6.5205Y-3.089
X6.5205Y-3.189
T4
X3.4646Y-3.4252
X3.6902Y-2.3984
X3.6902Y-2.4984
X3.6902Y-2.5984
X3.6902Y-2.6984
X3.6902Y-2.7984
X3.7902Y-2.3984
X3.7902Y-2.4984
X3.7902Y-2.5984
X3.7902Y-2.6984
X3.7902Y-2.7984
T5
X5.05Y-2.8
X5.05Y-2.9
X5.05Y-3.
X5.05Y-3.1
X4.5457Y-4.2913
X4.6457Y-4.2913
X4.7457Y-4.2913
T6
X5.3693Y-2.3228
X5.4693Y-2.3228
X5.5693Y-2.3228
X5.6693Y-2.3228
X5.7693Y-2.3228
X5.8693Y-2.3228
X5.1543Y-4.3701
X5.2543Y-4.3701
X5.3543Y-4.3701
X5.4543Y-4.3701
X4.95Y-2.3228
X5.05Y-2.3228
T7
X4.7638Y-2.3228
T8
X3.7402Y-3.7157
X3.7402Y-3.9157
X3.7402Y-4.1157
X3.7402Y-4.3157
T9
X4.268Y-4.1465
X3.6875Y-3.2225
X4.3307Y-2.4803
X6.6929Y-4.3307
X6.6929Y-2.3622
T0
M30
