G04 #@! TF.GenerationSoftware,KiCad,Pcbnew,(2017-06-02 revision ac9a64a)-master*
G04 #@! TF.CreationDate,2017-06-11T20:54:29+02:00*
G04 #@! TF.ProjectId,torchctrl,746F7263686374726C2E6B696361645F,rev?*
G04 #@! TF.FileFunction,Soldermask,Bot*
G04 #@! TF.FilePolarity,Negative*
%FSLAX46Y46*%
G04 Gerber Fmt 4.6, Leading zero omitted, Abs format (unit mm)*
G04 Created by KiCad (PCBNEW (2017-06-02 revision ac9a64a)-master) date Sun Jun 11 20:54:29 2017*
%MOMM*%
%LPD*%
G01*
G04 APERTURE LIST*
%ADD10C,0.100000*%
%ADD11C,5.000000*%
%ADD12O,1.998980X1.998980*%
%ADD13R,1.998980X1.998980*%
%ADD14R,2.032000X1.727200*%
%ADD15O,2.032000X1.727200*%
%ADD16R,2.286000X1.574800*%
%ADD17O,2.286000X1.574800*%
%ADD18O,2.000000X1.500000*%
%ADD19R,2.000000X1.500000*%
%ADD20C,1.500000*%
%ADD21C,2.100000*%
%ADD22C,2.900000*%
%ADD23R,1.727200X2.032000*%
%ADD24O,1.727200X2.032000*%
G04 APERTURE END LIST*
D10*
D11*
X110000000Y-63000000D03*
X93662500Y-81851500D03*
X108407200Y-105321100D03*
X170000000Y-110000000D03*
D12*
X128270000Y-59000000D03*
D13*
X125730000Y-59000000D03*
D14*
X128270000Y-71120000D03*
D15*
X128270000Y-73660000D03*
X128270000Y-76200000D03*
X128270000Y-78740000D03*
D16*
X102380000Y-65950000D03*
D17*
X102380000Y-68490000D03*
X102380000Y-71030000D03*
X102380000Y-73570000D03*
X102380000Y-76110000D03*
X102380000Y-78650000D03*
X102380000Y-81190000D03*
X102380000Y-83730000D03*
X102380000Y-86270000D03*
X102380000Y-88810000D03*
X102380000Y-91350000D03*
X102380000Y-93890000D03*
X102380000Y-96430000D03*
X102380000Y-98970000D03*
X102380000Y-101510000D03*
X117620000Y-101510000D03*
X117620000Y-98970000D03*
X117620000Y-96430000D03*
X117620000Y-93890000D03*
X117620000Y-91350000D03*
X117620000Y-88810000D03*
X117620000Y-86270000D03*
X117620000Y-83730000D03*
X117620000Y-81190000D03*
X117620000Y-78650000D03*
X117620000Y-76110000D03*
X117620000Y-73570000D03*
X117620000Y-71030000D03*
X117620000Y-68490000D03*
X117620000Y-65950000D03*
D18*
X96520000Y-60920000D03*
X93480000Y-60920000D03*
X93480000Y-63460000D03*
X96520000Y-63460000D03*
D19*
X96520000Y-71080000D03*
D18*
X93480000Y-71080000D03*
X96520000Y-68540000D03*
X93480000Y-68540000D03*
X96520000Y-66000000D03*
X93480000Y-66000000D03*
D20*
X165620000Y-81000000D03*
X165620000Y-78460000D03*
D21*
X170700000Y-75920000D03*
X170700000Y-86080000D03*
D12*
X144000000Y-59000000D03*
D13*
X136380000Y-59000000D03*
D12*
X138920000Y-59000000D03*
X141460000Y-59000000D03*
X146540000Y-59000000D03*
X149080000Y-59000000D03*
X130920000Y-111000000D03*
D13*
X138540000Y-111000000D03*
D12*
X136000000Y-111000000D03*
X133460000Y-111000000D03*
D22*
X95000000Y-94380000D03*
X95000000Y-99460000D03*
X95000000Y-104540000D03*
X95000000Y-109620000D03*
D23*
X120540000Y-109000000D03*
D24*
X118000000Y-109000000D03*
X115460000Y-109000000D03*
D11*
X170000000Y-60000000D03*
M02*
