%FSLAX45Y45*%
G04 Gerber Fmt 4.5, Leading zero omitted, Abs format (unit mm)*
G04 Created by KiCad (PCBNEW (2017-06-02 revision ac9a64a)-master) date Sun Jun 11 20:53:38 2017*
%MOMM*%
%LPD*%
G01*
G04 APERTURE LIST*
%ADD10C,0.127000*%
%ADD11C,0.100000*%
%ADD12C,0.200000*%
%ADD13C,0.300000*%
G04 APERTURE END LIST*
D10*
D11*
X8500000Y-11500000D02*
X8500000Y-5500000D01*
X18000000Y-11500000D02*
X8500000Y-11500000D01*
X18000000Y-5500000D02*
X18000000Y-11500000D01*
X8500000Y-5500000D02*
X18000000Y-5500000D01*
D12*
X16965000Y-7487000D02*
X17175000Y-7697000D01*
X17175000Y-7487000D02*
X16965000Y-7697000D01*
X16965000Y-8503000D02*
X17175000Y-8713000D01*
X17175000Y-8503000D02*
X16965000Y-8713000D01*
D13*
X8781428Y-11970714D02*
X8781428Y-11670714D01*
X8852857Y-11670714D01*
X8895714Y-11685000D01*
X8924286Y-11713571D01*
X8938571Y-11742143D01*
X8952857Y-11799286D01*
X8952857Y-11842143D01*
X8938571Y-11899286D01*
X8924286Y-11927857D01*
X8895714Y-11956429D01*
X8852857Y-11970714D01*
X8781428Y-11970714D01*
X9081428Y-11970714D02*
X9081428Y-11770714D01*
X9081428Y-11827857D02*
X9095714Y-11799286D01*
X9110000Y-11785000D01*
X9138571Y-11770714D01*
X9167143Y-11770714D01*
X9267143Y-11970714D02*
X9267143Y-11770714D01*
X9267143Y-11670714D02*
X9252857Y-11685000D01*
X9267143Y-11699286D01*
X9281428Y-11685000D01*
X9267143Y-11670714D01*
X9267143Y-11699286D01*
X9452857Y-11970714D02*
X9424286Y-11956429D01*
X9410000Y-11927857D01*
X9410000Y-11670714D01*
X9610000Y-11970714D02*
X9581428Y-11956429D01*
X9567143Y-11927857D01*
X9567143Y-11670714D01*
X9952857Y-11970714D02*
X9952857Y-11670714D01*
X10052857Y-11885000D01*
X10152857Y-11670714D01*
X10152857Y-11970714D01*
X10424286Y-11970714D02*
X10424286Y-11813571D01*
X10410000Y-11785000D01*
X10381428Y-11770714D01*
X10324286Y-11770714D01*
X10295714Y-11785000D01*
X10424286Y-11956429D02*
X10395714Y-11970714D01*
X10324286Y-11970714D01*
X10295714Y-11956429D01*
X10281428Y-11927857D01*
X10281428Y-11899286D01*
X10295714Y-11870714D01*
X10324286Y-11856429D01*
X10395714Y-11856429D01*
X10424286Y-11842143D01*
X10567143Y-11770714D02*
X10567143Y-12070714D01*
X10567143Y-11785000D02*
X10595714Y-11770714D01*
X10652857Y-11770714D01*
X10681428Y-11785000D01*
X10695714Y-11799286D01*
X10710000Y-11827857D01*
X10710000Y-11913571D01*
X10695714Y-11942143D01*
X10681428Y-11956429D01*
X10652857Y-11970714D01*
X10595714Y-11970714D01*
X10567143Y-11956429D01*
X10838571Y-11942143D02*
X10852857Y-11956429D01*
X10838571Y-11970714D01*
X10824286Y-11956429D01*
X10838571Y-11942143D01*
X10838571Y-11970714D01*
X10838571Y-11785000D02*
X10852857Y-11799286D01*
X10838571Y-11813571D01*
X10824286Y-11799286D01*
X10838571Y-11785000D01*
X10838571Y-11813571D01*
X8285000Y-12360000D02*
X8495000Y-12570000D01*
X8495000Y-12360000D02*
X8285000Y-12570000D01*
X8767143Y-12329286D02*
X8781428Y-12315000D01*
X8810000Y-12300714D01*
X8881428Y-12300714D01*
X8910000Y-12315000D01*
X8924286Y-12329286D01*
X8938571Y-12357857D01*
X8938571Y-12386429D01*
X8924286Y-12429286D01*
X8752857Y-12600714D01*
X8938571Y-12600714D01*
X9067143Y-12572143D02*
X9081428Y-12586429D01*
X9067143Y-12600714D01*
X9052857Y-12586429D01*
X9067143Y-12572143D01*
X9067143Y-12600714D01*
X9367143Y-12600714D02*
X9195714Y-12600714D01*
X9281428Y-12600714D02*
X9281428Y-12300714D01*
X9252857Y-12343571D01*
X9224286Y-12372143D01*
X9195714Y-12386429D01*
X9552857Y-12300714D02*
X9581428Y-12300714D01*
X9610000Y-12315000D01*
X9624286Y-12329286D01*
X9638571Y-12357857D01*
X9652857Y-12415000D01*
X9652857Y-12486429D01*
X9638571Y-12543571D01*
X9624286Y-12572143D01*
X9610000Y-12586429D01*
X9581428Y-12600714D01*
X9552857Y-12600714D01*
X9524286Y-12586429D01*
X9510000Y-12572143D01*
X9495714Y-12543571D01*
X9481428Y-12486429D01*
X9481428Y-12415000D01*
X9495714Y-12357857D01*
X9510000Y-12329286D01*
X9524286Y-12315000D01*
X9552857Y-12300714D01*
X9781428Y-12600714D02*
X9781428Y-12400714D01*
X9781428Y-12429286D02*
X9795714Y-12415000D01*
X9824286Y-12400714D01*
X9867143Y-12400714D01*
X9895714Y-12415000D01*
X9910000Y-12443571D01*
X9910000Y-12600714D01*
X9910000Y-12443571D02*
X9924286Y-12415000D01*
X9952857Y-12400714D01*
X9995714Y-12400714D01*
X10024286Y-12415000D01*
X10038571Y-12443571D01*
X10038571Y-12600714D01*
X10181428Y-12600714D02*
X10181428Y-12400714D01*
X10181428Y-12429286D02*
X10195714Y-12415000D01*
X10224286Y-12400714D01*
X10267143Y-12400714D01*
X10295714Y-12415000D01*
X10310000Y-12443571D01*
X10310000Y-12600714D01*
X10310000Y-12443571D02*
X10324286Y-12415000D01*
X10352857Y-12400714D01*
X10395714Y-12400714D01*
X10424286Y-12415000D01*
X10438571Y-12443571D01*
X10438571Y-12600714D01*
X11024286Y-12286429D02*
X10767143Y-12672143D01*
X11410000Y-12300714D02*
X11438571Y-12300714D01*
X11467143Y-12315000D01*
X11481428Y-12329286D01*
X11495714Y-12357857D01*
X11510000Y-12415000D01*
X11510000Y-12486429D01*
X11495714Y-12543571D01*
X11481428Y-12572143D01*
X11467143Y-12586429D01*
X11438571Y-12600714D01*
X11410000Y-12600714D01*
X11381428Y-12586429D01*
X11367143Y-12572143D01*
X11352857Y-12543571D01*
X11338571Y-12486429D01*
X11338571Y-12415000D01*
X11352857Y-12357857D01*
X11367143Y-12329286D01*
X11381428Y-12315000D01*
X11410000Y-12300714D01*
X11638571Y-12572143D02*
X11652857Y-12586429D01*
X11638571Y-12600714D01*
X11624286Y-12586429D01*
X11638571Y-12572143D01*
X11638571Y-12600714D01*
X11838571Y-12300714D02*
X11867143Y-12300714D01*
X11895714Y-12315000D01*
X11910000Y-12329286D01*
X11924286Y-12357857D01*
X11938571Y-12415000D01*
X11938571Y-12486429D01*
X11924286Y-12543571D01*
X11910000Y-12572143D01*
X11895714Y-12586429D01*
X11867143Y-12600714D01*
X11838571Y-12600714D01*
X11810000Y-12586429D01*
X11795714Y-12572143D01*
X11781428Y-12543571D01*
X11767143Y-12486429D01*
X11767143Y-12415000D01*
X11781428Y-12357857D01*
X11795714Y-12329286D01*
X11810000Y-12315000D01*
X11838571Y-12300714D01*
X12110000Y-12429286D02*
X12081428Y-12415000D01*
X12067143Y-12400714D01*
X12052857Y-12372143D01*
X12052857Y-12357857D01*
X12067143Y-12329286D01*
X12081428Y-12315000D01*
X12110000Y-12300714D01*
X12167143Y-12300714D01*
X12195714Y-12315000D01*
X12210000Y-12329286D01*
X12224286Y-12357857D01*
X12224286Y-12372143D01*
X12210000Y-12400714D01*
X12195714Y-12415000D01*
X12167143Y-12429286D01*
X12110000Y-12429286D01*
X12081428Y-12443571D01*
X12067143Y-12457857D01*
X12052857Y-12486429D01*
X12052857Y-12543571D01*
X12067143Y-12572143D01*
X12081428Y-12586429D01*
X12110000Y-12600714D01*
X12167143Y-12600714D01*
X12195714Y-12586429D01*
X12210000Y-12572143D01*
X12224286Y-12543571D01*
X12224286Y-12486429D01*
X12210000Y-12457857D01*
X12195714Y-12443571D01*
X12167143Y-12429286D01*
X12324286Y-12300714D02*
X12510000Y-12300714D01*
X12410000Y-12415000D01*
X12452857Y-12415000D01*
X12481428Y-12429286D01*
X12495714Y-12443571D01*
X12510000Y-12472143D01*
X12510000Y-12543571D01*
X12495714Y-12572143D01*
X12481428Y-12586429D01*
X12452857Y-12600714D01*
X12367143Y-12600714D01*
X12338571Y-12586429D01*
X12324286Y-12572143D01*
X12624286Y-12300714D02*
X12624286Y-12357857D01*
X12738571Y-12300714D02*
X12738571Y-12357857D01*
X13181428Y-12715000D02*
X13167143Y-12700714D01*
X13138571Y-12657857D01*
X13124286Y-12629286D01*
X13110000Y-12586429D01*
X13095714Y-12515000D01*
X13095714Y-12457857D01*
X13110000Y-12386429D01*
X13124286Y-12343571D01*
X13138571Y-12315000D01*
X13167143Y-12272143D01*
X13181428Y-12257857D01*
X13281428Y-12329286D02*
X13295714Y-12315000D01*
X13324286Y-12300714D01*
X13395714Y-12300714D01*
X13424286Y-12315000D01*
X13438571Y-12329286D01*
X13452857Y-12357857D01*
X13452857Y-12386429D01*
X13438571Y-12429286D01*
X13267143Y-12600714D01*
X13452857Y-12600714D01*
X13810000Y-12600714D02*
X13810000Y-12300714D01*
X13938571Y-12600714D02*
X13938571Y-12443571D01*
X13924286Y-12415000D01*
X13895714Y-12400714D01*
X13852857Y-12400714D01*
X13824286Y-12415000D01*
X13810000Y-12429286D01*
X14124286Y-12600714D02*
X14095714Y-12586429D01*
X14081428Y-12572143D01*
X14067143Y-12543571D01*
X14067143Y-12457857D01*
X14081428Y-12429286D01*
X14095714Y-12415000D01*
X14124286Y-12400714D01*
X14167143Y-12400714D01*
X14195714Y-12415000D01*
X14210000Y-12429286D01*
X14224286Y-12457857D01*
X14224286Y-12543571D01*
X14210000Y-12572143D01*
X14195714Y-12586429D01*
X14167143Y-12600714D01*
X14124286Y-12600714D01*
X14395714Y-12600714D02*
X14367143Y-12586429D01*
X14352857Y-12557857D01*
X14352857Y-12300714D01*
X14624286Y-12586429D02*
X14595714Y-12600714D01*
X14538571Y-12600714D01*
X14510000Y-12586429D01*
X14495714Y-12557857D01*
X14495714Y-12443571D01*
X14510000Y-12415000D01*
X14538571Y-12400714D01*
X14595714Y-12400714D01*
X14624286Y-12415000D01*
X14638571Y-12443571D01*
X14638571Y-12472143D01*
X14495714Y-12500714D01*
X14752857Y-12586429D02*
X14781428Y-12600714D01*
X14838571Y-12600714D01*
X14867143Y-12586429D01*
X14881428Y-12557857D01*
X14881428Y-12543571D01*
X14867143Y-12515000D01*
X14838571Y-12500714D01*
X14795714Y-12500714D01*
X14767143Y-12486429D01*
X14752857Y-12457857D01*
X14752857Y-12443571D01*
X14767143Y-12415000D01*
X14795714Y-12400714D01*
X14838571Y-12400714D01*
X14867143Y-12415000D01*
X14981428Y-12715000D02*
X14995714Y-12700714D01*
X15024286Y-12657857D01*
X15038571Y-12629286D01*
X15052857Y-12586429D01*
X15067143Y-12515000D01*
X15067143Y-12457857D01*
X15052857Y-12386429D01*
X15038571Y-12343571D01*
X15024286Y-12315000D01*
X14995714Y-12272143D01*
X14981428Y-12257857D01*
X15524286Y-12715000D02*
X15510000Y-12700714D01*
X15481428Y-12657857D01*
X15467143Y-12629286D01*
X15452857Y-12586429D01*
X15438571Y-12515000D01*
X15438571Y-12457857D01*
X15452857Y-12386429D01*
X15467143Y-12343571D01*
X15481428Y-12315000D01*
X15510000Y-12272143D01*
X15524286Y-12257857D01*
X15638571Y-12400714D02*
X15638571Y-12600714D01*
X15638571Y-12429286D02*
X15652857Y-12415000D01*
X15681428Y-12400714D01*
X15724286Y-12400714D01*
X15752857Y-12415000D01*
X15767143Y-12443571D01*
X15767143Y-12600714D01*
X15952857Y-12600714D02*
X15924286Y-12586429D01*
X15910000Y-12572143D01*
X15895714Y-12543571D01*
X15895714Y-12457857D01*
X15910000Y-12429286D01*
X15924286Y-12415000D01*
X15952857Y-12400714D01*
X15995714Y-12400714D01*
X16024286Y-12415000D01*
X16038571Y-12429286D01*
X16052857Y-12457857D01*
X16052857Y-12543571D01*
X16038571Y-12572143D01*
X16024286Y-12586429D01*
X15995714Y-12600714D01*
X15952857Y-12600714D01*
X16138571Y-12400714D02*
X16252857Y-12400714D01*
X16181428Y-12300714D02*
X16181428Y-12557857D01*
X16195714Y-12586429D01*
X16224286Y-12600714D01*
X16252857Y-12600714D01*
X16581428Y-12400714D02*
X16581428Y-12700714D01*
X16581428Y-12415000D02*
X16610000Y-12400714D01*
X16667143Y-12400714D01*
X16695714Y-12415000D01*
X16710000Y-12429286D01*
X16724286Y-12457857D01*
X16724286Y-12543571D01*
X16710000Y-12572143D01*
X16695714Y-12586429D01*
X16667143Y-12600714D01*
X16610000Y-12600714D01*
X16581428Y-12586429D01*
X16895714Y-12600714D02*
X16867143Y-12586429D01*
X16852857Y-12557857D01*
X16852857Y-12300714D01*
X17138571Y-12600714D02*
X17138571Y-12443571D01*
X17124286Y-12415000D01*
X17095714Y-12400714D01*
X17038571Y-12400714D01*
X17010000Y-12415000D01*
X17138571Y-12586429D02*
X17110000Y-12600714D01*
X17038571Y-12600714D01*
X17010000Y-12586429D01*
X16995714Y-12557857D01*
X16995714Y-12529286D01*
X17010000Y-12500714D01*
X17038571Y-12486429D01*
X17110000Y-12486429D01*
X17138571Y-12472143D01*
X17238571Y-12400714D02*
X17352857Y-12400714D01*
X17281428Y-12300714D02*
X17281428Y-12557857D01*
X17295714Y-12586429D01*
X17324286Y-12600714D01*
X17352857Y-12600714D01*
X17567143Y-12586429D02*
X17538571Y-12600714D01*
X17481428Y-12600714D01*
X17452857Y-12586429D01*
X17438571Y-12557857D01*
X17438571Y-12443571D01*
X17452857Y-12415000D01*
X17481428Y-12400714D01*
X17538571Y-12400714D01*
X17567143Y-12415000D01*
X17581428Y-12443571D01*
X17581428Y-12472143D01*
X17438571Y-12500714D01*
X17838571Y-12600714D02*
X17838571Y-12300714D01*
X17838571Y-12586429D02*
X17810000Y-12600714D01*
X17752857Y-12600714D01*
X17724286Y-12586429D01*
X17710000Y-12572143D01*
X17695714Y-12543571D01*
X17695714Y-12457857D01*
X17710000Y-12429286D01*
X17724286Y-12415000D01*
X17752857Y-12400714D01*
X17810000Y-12400714D01*
X17838571Y-12415000D01*
X17952857Y-12715000D02*
X17967143Y-12700714D01*
X17995714Y-12657857D01*
X18010000Y-12629286D01*
X18024286Y-12586429D01*
X18038571Y-12515000D01*
X18038571Y-12457857D01*
X18024286Y-12386429D01*
X18010000Y-12343571D01*
X17995714Y-12315000D01*
X17967143Y-12272143D01*
X17952857Y-12257857D01*
M02*
