<?xml version="1.0" encoding="UTF-8"?>
<!-- Generator: Adobe Illustrator 13.0.0, SVG Export Plug-In . SVG Version: 6.00 Build 14948)  -->
<!DOCTYPE svg PUBLIC "-//W3C//DTD SVG 1.1//EN" "http://www.w3.org/Graphics/SVG/1.1/DTD/svg11.dtd">
<svg version="1.1" id="Layer_1" xmlns="http://www.w3.org/2000/svg" xmlns:xlink="http://www.w3.org/1999/xlink" x="0px" y="0px" width="2118px" height="1258px" viewBox="109.101 126.5 2118 1258" enable-background="new 109.101 126.5 2118 1258" xml:space="preserve">
<path d="M913,142c36.996,0,74.004,0,111,0c0,1,0,2,0,3c7.861,2.761,86.214,77.416,89,86c0,18.332,1.302,70.333-1,74  c-3.348,10.502-22.996,27.332-31,35c-8.577,0.134-45.105,0.849-47-3c0-24.331,0-48.669,0-73c-1.573-2.445-0.561-5.931-2-9  c-2.378-5.071-27.741-30.316-34-31c-5.559-3.521-57.667-0.667-60-1c-6.63,1.415-30.538,24.055-33,30c-1.78,4.299-0.788,9.815-2,13  c-11.013,4.571-30.744-1.26-43,3c-5.442,1.892-25.315,22.287-27,28c0,9.333,0,18.667,0,28c8.152,5.196,16.496,12.978,23,20  c5.006-0.03,9.257,1.149,13,2c11.329,2.575,21.205-0.045,30,2c5.516,1.283,10.977-0.358,13,4c0,5.333,0,10.667,0,16  c5.781,6.141,14.119,21.28,21,25c4.367,2.36,70.222,2.68,76-1c10.104-3.651,12.313-16.977,24-19c6.734,6.356,54.428,41.178,55,50  c-0.804,1.021-0.355,0.274-1,2c-16.324,8.22-26.039,25.433-40,36c-5.796,4.387-11.995,8.814-17,14  c-30.997,0.333-128.061,2.942-142,0c-14.613-25.417-32.642-49.416-49-74c-6.628-9.96-17.524-20.586-21-33  c0-22.664-0.971-131.507,2-136c4.614-6.979,63.167-66.833,66.5-70.5C893.956,156.861,901.5,146.773,913,142z"/>
<path d="M227,147c27.172,2.83,63.331,1.001,97,1c9.999,0,20.001,0,30,0c1.239-0.257,5.211-1.797,8-1  c11.432,3.266,61.357,61.182,70,70c4.333,4,8.667,8,13,12c2.921,3.873,8.519,8.457,10,13c0,9.666,0,19.334,0,29  c0.001,12.773,2.949,39.044-1,49c-1.625,4.098-6.527,8.419-9,12c-3.048,4.413-3.465,8.998-9,11c-4.18,3.286-31.696,1.533-39,0  c-5.971-10.486-14.833-17.594-18-31c-2.467-10.44,3.763-33.424-1-41c-2.001-6.211-33.271-39.73-45-43c-14.665,0-75.451-1.197-82,3  c-7.025,2.455-34.318,32.032-38,42c-3.281,8.882,0.667,66.334,1,74c4.982,14.37,39.54,50.221,45,52c7.299,2.378,72,0.85,87-1  c3.854-5.89,29.91-37.284,31-40c2.912-7.258-1.013-18.368,0-24c1.754-0.631,0.971-0.193,2-1c1.754,0.631,0.971,0.193,2,1  c4.865,3.277,4.685,7.12,8,12c2.667,2.333,5.333,4.667,8,7c14.635,0.43,30.09-0.59,44-1c2.594-4.263,6.703-11.35,13-12  c0,0.667,0,1.333,0,2c2.001,3.176,0.131,30.172,0,38c-10.348,7.433-71.904,87.933-80,93c-6.942,4.345-114.815-0.777-153-1  c-4.029-6.092-83.368-89.772-87-98c0-8.666-1.922-125.967,0-129C136.428,238.183,218.438,153.902,227,147z"/>
<path d="M598,155c23.998,0,48.002,0,72,0c10.221,0,24.538-2.046,33,1c8.578,3.087,15.055,12.829,22,18  c15.811,11.772,29.424,26.276,45,38c7.068,5.32,17.892,13.121,22,21c3.962,7.597,1,26.145,1,36c0,33.663,0,67.337,0,101  c-2.56,9.049-11.066,15.973-16,23c-14.436,20.56-28.018,41.167-43,61c-5.634,7.458-10.492,4.563-22,7  c-10.987,2.328-26.774-1.651-39,1c-10.268,2.227-24.893,2-38,2c-20.755,0-40.796,2.62-59-1c-5.333,0.333-10.667,0.667-16,1  c-7.51-2.414-12.531-10.254-17-16c-0.909-1.169-2.991-0.969-4-2c-3.653-3.732-6.314-8.314-10-12c-7.072-7.072-23.44-18.884-27-28  c-0.665-1.703-1.629-29.033-1-31c3.883-12.135,17.847-16.784,27-24c4,1.333,8,2.667,12,4c6.358,1.568,13.828-1.514,19,1  c2.333,2.333,4.667,4.667,7,7c10.221,7.601,23.585,22.873,34,28c10.216,5.029,30.609,0.012,42,0c8.374-0.009,25.948,2.71,32-1  c11.507-3.95,24.831-25.3,32-35c2.709-3.666,8.448-7.406,10-12c0-11.332,0-22.667,0-34c0-13.332,0-26.668,0-40  c-1.552-4.678-6.791-7.787-10-11c-6.559-6.564-17.864-23.725-26-27c-5,0-10,0-15,0c-5.695-3.641-22.979-1-31-1  c-7.666,0-15.334,0-23,0c-9.012,2.573-14.359,11.011-21,16c-11.033,8.288-20.445,15.489-30,25c-0.217,13.217,0.884,34.217-2,47  c-2.193,9.721,1.39,19.702-1,26c-11.98,5.404-21.671-2.996-36,1c-12.929,3.606-20.71,16.385-29,25c0.032,6.362-0.827,32.389,1,38  c2.067,6.351,8.792,10.576,13,15c11.421,12.005,22.299,24.299,34,36c6,5.666,12,11.334,18,17c6.425,10.411-0.356,40.712,2,53  c1.725,0.599,3.152,0.891,6,1c3.192,1.627,16.414,0,23,0c17.998,0,36.002,0,54,0c7.381,0,18.343-1.485,24,1  c7.096,3.118,71.359,71.886,79,82c4.124,5.458,8.149,11.265,13,16c0,26.664,0,53.336,0,80c-3.12,10.993-13.797,21.442-21,29  c-12.332,0-24.668,0-37,0c-5.021-7.818-14.161-15.758-18-24c-6.189-13.287,2.563-36.732-2-52c-1.601-5.356-7.001-7.203-10-11  c-6.396-8.1-27.181-33.831-38-35c-3.959-2.545-75.741-4.185-85,2c-8.055,2.823-36.628,35.504-40,46c0,7,0.667,55.668,1,73  c4.104,16.042,37.565,53.001,44,57c9.229,5.734,73.002,2,90,2c9.242-3.059,34.821-63.514,36-70c1.333,0,2.667,0,4,0  c3.173,5.124,8.359,16.374,14,19c5.095,4.058,44.73,2.36,49-1c3.521-3.469,6.47-7.516,10-11c1.754,0.631,0.971,0.193,2,1  c1.337,1.992,1.104,6.507,1,10c-4.357,7.171,2.419,23.869-2,31c-3.171,9.164-76.757,98.142-87,101c-8.666-0.333-143.723,1.706-152-4  c-7.658-2.771-88.258-96.235-91-103c0-11.332,0-22.668,0-34c-2.972-4.686-2.461-98.114,0-102c2.165-6.56,7.645-9.645,12-14  c8.323-8.324,36.316-34.657,39-45c0-110.989,0-222.011,0-333c4.271-9.916,27.648-25.279,37-32c15.093-10.846,28.969-23.784,44-35  c6.313-4.709,12.078-11.936,19-16C582.684,155.25,593.113,158.016,598,155z"/>
<path d="M1224,155c28.693,0.352,57.239,1,86,1c12.395,0,32.802-3.221,43,1c10.578,4.378,23.033,25.584,30,35  c9.469,12.796,21.25,23.967,31,37c2.244,2.999,6.408,5.273,8,9c4.195,9.818,1,29.976,1,42c0,32.33,0,64.67,0,97  c0,21.331,0,42.669,0,64c0,10.515,1.367,23.703-1,30c-11.859,5.31-61.395,2.913-74,0c-4.693-11.07-3.186-46.268-2-59  c-0.666-45.995-1.334-92.004-2-138c-3.014-10.284-13.993-20.943-21-28c-14.943-15.052-61.201-13.813-67-10  c-7.952,2.644-25.737,25.212-28,31c-3.759,9.614-1,126.336-1,153c0,15.661,3.168,39.999-2,52c-19.913,2.359-51.238,3.831-71,0  c-0.333-1-0.667-2-1-3c-3.067-4.907-1-18.987-1-26c0-21.664,0-43.335,0-65c0.333-32.33,0.667-64.67,1-97c0-14.042-1.903-42.537,2-53  c5.044-13.522,19.882-21.261,28-32c11.175-14.783,22.829-27.32,36-40C1221.532,155.926,1222.716,155.88,1224,155z"/>
<path d="M971,272c16.998,0.333,34.002,0.667,51,1c0.961,1.766,1.257,1.681,2,4c1.515,2.681,0.003,10.579,0,16  c-0.008,14.481,2.119,33.723,0,45c-1,0.333-2,0.667-3,1c-7.438,4.628-23.132-1.448-31,0c-10.929,2.012-26.387,1-39,1  c-17.665,0.333-35.335,0.667-53,1c-10.405-2.351-25.588-2.905-38-3c-3.653-4.782-10.338-9.285-16-12c-0.791-5.905-3.493-22.604,0-28  c1.883-5.183,19.641-20.266,25-22c6,0,12,0,18,0c13.315-2.859,31.496-2.998,46-3C941.21,272.999,965.92,275.124,971,272z"/>
<path fill="#FFFFFF" d="M1069,286c-3.619,3.3-9.11,3.875-11,9c-2.35,2.953-2.146,8.487-2,14c5.799,4.225,8.863,8.776,19,9  c2.667-2.667,5.333-5.333,8-8c2.813-3.432,2.038-10.367,1-15C1078.985,291.656,1076.444,287.163,1069,286z"/>
<path fill="#FFFFFF" d="M410,290c-0.771,0.682-2.231,1.312-3,2c-4.08,3.677-9.306,8.035-10,15c4.438,5.889,5.054,14.519,15,15  c4.351,2.99,12.443,0.007,16-1c3.224-5.534,7.532-9.888,8-18c-3.751-3.533-8.107-8.781-11-13C420,290,415,290,410,290z"/>
<path fill="#FFFFFF" d="M875,293c-3.161,3.904-9.289,7.527-13,11c-0.081,4.845,0.276,9.475,1,13c5.663,3.723,9.548,7.737,19,8  c4.093-3.906,8.926-7.163,13-11c0-3,0-6,0-9c-4.17-3.879-9.021-7.899-13-12C879.667,293,877.333,293,875,293z"/>
<path fill="#FFFFFF" d="M530,370c-3.619,3.826-8.158,7.41-12,11c-0.467,5.076-1.819,10.931,1,15c1.038,3.081,0.967,2.918,4,4  c3.779,2.98,10.494,3.981,17,4c3.191-3.293,7.305-5.158,9-10c3.874-4.747,1.313-13.881,0-19  C543.558,372.325,538.364,370.193,530,370z"/>
<path d="M195,523c29.664,0.667,141.673,0.422,160,4c10.678,18.083,22.545,35.826,34,54c2.649,4.204,8.356,9.145,10,14  c2.201,6.504-0.044,19.817-1,25c-1,0.333-2,0.667-3,1c-3.286,2.099-11.952,1-17,1c-11.934,0-45.11,4.118-51,0  c-7.761-2.851-16.834-20.194-22-27c-1.964-2.588-5.684-3.734-8-6c-21.665,0-43.335,0-65,0c-7.377,9.61-17.914,17.668-26,27  c2.292,9.58,10.951,15.827,16,23c13.485,19.158,26.354,38.016,40,57c5.671,7.89,22.081,21.367,23,32c-6.497,2.151-17.795,1-26,1  c-19.665,0-39.335,0-59,0c-1.021-0.804-0.274-0.355-2-1c-3.326-6.536-8.993-10.479-13-16c-13.628-18.778-26.299-37.28-40-56  c-3.957-5.407-11-10.946-14-17c-2.026-4.087-2.139-42.075,0-46C135.497,584.75,180.3,538.567,195,523z"/>
<path d="M1186,525c28.355,0.362,57.692,0,88,0c14.213,0,31.49-1.395,44,1c0.961,1.766,1.257,1.681,2,4c2.52,4.024,1,15.065,1,21  c0,18.332,0,36.668,0,55c-3.998,2.504-69.446-0.946-87,4c-13.159,3.708-48.884,52.535-52,60c-2.326,5.573,0.697,10.621,1,17  c-2.091,1.122-1.832,1.435-5,2c-3.389-3.758-12.143-14.898-16-17c-4.747-2.586-40.174-1.226-42,0c-9.03,3.275-10.18,15.432-20,17  c-4.303-12.955-1.073-50.427-1-67c0.333,0,0.667,0,1,0C1103.456,611.833,1161.318,545.532,1186,525z"/>
<path d="M1569,525c2.822,0.514,10.461-0.454,14,1c4.273,1.755,7.275,7.393,10,11c2.666,2.333,5.334,4.667,8,7  c7.498,9.956,15.34,20.131,24,29c6.488,6.644,19.352,15.395,20,27c-15.189,10.117-27.275,25.89-42,37  c-5.588,4.217-6.012,9.561-16,10c-5.666-5.666-11.334-11.334-17-17c-8.256-8.27-16.002-17.521-24-26  c-17.998-0.333-36.002-0.667-54-1c-10.063-0.003-19.082-2.505-27,1c-3.332,3.333-6.666,6.667-10,10  c-9.625,9.623-19.172,19.607-29,29c0,16.332,0,32.668,0,49c-2.66,7.89-11.609,15.196-16,22c-8.264,12.805-9.375,10.664-27,11  c-4.064,0.078-7.697,2.076-11,0c-8.736-2.959-25.65-29.253-28-39c0.334-18.665,0.666-37.335,1-56c-2.666-13.007,9.232-19.377,15-27  c15.266-20.174,33.209-39.211,51-57c6.186-6.185,13.068-17.106,22-20c33.996,0,68.004,0,102,0  C1543.814,526,1562.58,528.921,1569,525z"/>
<path d="M792,526c14.126,0.014,29.575,1.001,45,1c9.636-0.001,18.396-1.448,26,0c5.047,9.887-0.934,213.463,3,224  c4.323,11.58,20.619,27.168,29,36c14.407,0.115,48.774,4.626,59-1c8.283-4.557,28.855-31.35,32-41c0-11.999-1.713-176.057,3-197  c2.081-9.247-4.547-16.387,4-20c4.682-3.572,12.506-1.012,20-1c16.913,0.028,39.382-2.618,53,0c0.333,1,0.667,2,1,3  c3,4.83,1,28.151,1,36c0,31.664,0,174.337,0,214c-3.307,12.472-58.813,83.834-70,91c-7.788,4.989-128.049,6.938-141,2  c-10.135-3.863-60.839-63.393-66-78c-1.873-5.301-4.435-45.364-3-52c1.206-5.577,0-68.089,0-88c0-41.996,0-84.004,0-126  C789.46,528.146,790.867,527.188,792,526z"/>
<path d="M1760,528c27.33,0,54.67,0,82,0c10.145,0,26.906-2.563,35,1c11.34,4.992,19.965,19.957,29,28  c20.945,18.644,39.777,38.771,60,58c0,18.665,0,37.335,0,56c0.002,8.172,2.164,17.102-1,22c-2.988,9.364-24.555,28.87-32,36  c-15.861,0.011-31.09-0.731-46-1c-6.24-10.347-3.113-61.998-3-80c-1.73-2.688-1.26-7.345-3-10c-7.586-11.579-21.352-20.188-31-30  c-19.02-0.032-61.982-3.923-73,4c-8.332,8.333-16.668,16.667-25,25c-4.754,7.868,2.648,15.448-9,17c-7.285,4.179-28.826-3.652-38,2  c-6.434,2.015-26.139,21.626-28,28c-2.492,8.53-0.449,22.624,0,29c7.422,4.737,17.355,18.667,25,21c11.338,3.46,51.363-0.646,55,8  c2.971,5.053,0.225,15.173,3,20c3.666,3.667,7.334,7.334,11,11c3.201,3.38,5.881,9.788,10,12c6.111,3.281,34.383,1.003,46,1  c6.715-0.001,26.969,0.573,31-2c8.871-2.8,16.256-13.602,22-20c1.666,0,3.334,0,5,0c7.705,7.995,16.998,14.278,26,21  c3.666,3.667,7.334,7.334,11,11c6.402,4.77,17.871,9.33,19,19c-14.701,9.735-27.801,24.262-41,36c-5.666,5.666-11.334,11.334-17,17  c-6.645,3.303-21.348,0.891-30,1c-19.342,0.244-42.115,0.568-63,1c-12.348,0.256-23.852,0.969-36,1c-5.084,0.014-13.664,1.063-17-1  c-9.807-3.68-23.609-32.439-30-42c-10.801-16.158-21.947-32.464-33-49c-3.605-5.395-9.621-11.5-12-18c0-14.665,0-29.335,0-44  c-0.002-32.956-1.188-66.207,0-97C1694.664,589.336,1727.335,558.664,1760,528z"/>
<path d="M1820,658c17.666,0.333,35.336,0.667,53,1c0.334,1,0.668,2,1,3c2.193,3.491,1,12.715,1,18c0,15.332,0,30.668,0,46  c-1.459,0.854-2.867,1.813-4,3c-56.754,0.126-112.248-0.606-167-3c-3.629-5.343-12.129-11.052-17-16c0-7.999,0-16.001,0-24  c8.42-6.422,15.158-19.463,26-23c6.666,0,13.334,0,20,0c16.318-3.529,35.693-4.083,54-4C1794.232,659.033,1814.269,661.561,1820,658  z"/>
<path d="M250,659c21.998,0.667,44.002,1.333,66,2c10.86,0.003,25.438-1.625,32,3c6.512,4.589,10.348,15.37,15,22  c8.38,11.943,17.391,23.731,26,36c12.171,17.344,21,18.285,21,49c0,5.518,1.291,15.31-1,19c-3.109,9.737-52.07,66.857-71,86  c-24.331,0-141.104,3.539-150-2c-8.396-3.055-64.833-78.646-67-84c0-10.999,0-22.001,0-33c1-0.667,2-1.333,3-2  c4.475-3.403,11.658-1.012,19-1c15.998,0.333,32.001,0.667,48,1c11.896,15.754,26.881,30.313,41,44c14.038,0.119,59.651,3.129,69-1  c7.538-3.329,18.458-19.788,25-26c0-1.667,0-3.333,0-5c-9.49-9.045-15.196-22.27-23-33c-11.118-15.289-24.577-29.59-36-45  C261.744,681.909,246.706,670.17,250,659z"/>
<path fill="#FFFFFF" d="M1921,673c-3.672,2.967-8.262,4.078-11,8c-3.047,3.753-2.123,12.925-1,18c5.83,2.78,8.908,6.666,17,7  c0-0.333,0-0.667,0-1c5.17-1.678,7.539-5.668,11-9c0.502-5.027,1.744-9.301-1-13C1934.226,677.92,1927.115,673.741,1921,673z"/>
<path fill="#FFFFFF" d="M304,675c-5.58,5.466-13.537,7.293-14,18c4.865,3.167,10.035,8.764,14,13c14.167,0.194,15.269-6.341,22-13  c0-1.667,0-3.333,0-5c-1.923-1.833-2.339-3.787-4-6c-2.237-2.979-6.341-4.41-9-7C310,675,307,675,304,675z"/>
<path fill="#FFFFFF" d="M1381,676c-5.289,5.372-11.932,7.189-12,18c2.854,2.837,3.748,6.441,8,8c3.797,3.132,9.783,3.155,17,3  c4.02-5.226,8.734-7.736,9-17c-3.822-3.545-8.404-7.208-12-11C1387.667,676.667,1384.333,676.333,1381,676z"/>
<path d="M1124,679c10.666,0,21.334,0,32,0c4.543,1.495,6.131,5.771,9,9c6.171,6.943,15.235,13.943,18,24c0,31.33,0,62.67,0,94  c-0.001,94.617-1,192.597-1,291c0,38.33,0,76.67,0,115c0,12.111,3.591,33.733-4,37c-3.998,2.529-15.085,1-21,1  c-18.214,0-40.602,2.271-57-1c0-0.666,0-1.334,0-2c-3.604-5.834-1-22.875-1-31c0-26.997,0-54.003,0-81  c0-100.271,0.997-206.487,1-302c-0.333-30.33-0.667-60.67-1-91c0-7.717-1.947-30.231,1-35  C1103.781,695.896,1116.074,686.563,1124,679z"/>
<path fill="#FFFFFF" d="M1723,679c-4.361,3.453-11.5,4.73-14,10c-2.611,2.883-2.176,9.34-2,15c4.066,2.813,13.475,12.783,21,8  c9.42-2.659,12.529-7.896,12-21c-0.805-1.021-0.354-0.274-1-2C1733.658,685.519,1730.187,680.785,1723,679z"/>
<path fill="#FFFFFF" d="M712,680c-3.252,4.735-8.766,10.07-13,14c0.101,11.122,7.377,15.373,13,21c7.318,0.184,14.248-0.054,19-2  c3.213-6.355,7.679-9.583,8-19c-3.684-3.585-5.894-8.861-10-12C725.623,679.333,718.153,679.844,712,680z"/>
<path fill="#FFFFFF" d="M1135,691c-5.949,4.711-16.165,12.724-17,22c5.267,4.916,10.813,9.933,16,15c6.239,0.096,13.21-0.031,18-1  c3.975-6.221,9.473-10.271,10-20c-5.101-4.782-10.012-10.064-15-15C1143,691.667,1139,691.333,1135,691z"/>
<path d="M1347,709c10.305,4.556,7.631,21.458,22,23c5.939,3.868,35.406,0.355,41-1c4.117-6.748,8.674-14.362,14-20  c1.754,0.631,0.971,0.193,2,1c4.137,6.893-0.883,22.37,2,30c3.285,8.693,34.762,41.096,46,45c7.17,2.491,66.668,0,73,0  c10.389-3.419,13.803-16.088,26-18c2.982,4.445,7.234,6.414,11,10c10,9.999,20.002,20.001,30,30c4.574,4.573,12.473,8.665,14,16  c0.746,1.216,0.137,0.992,0,4c-13.664,13.665-27.334,27.335-41,41c-34.631,2.415-146.553,3.713-155,0  c-9.207-4.048-73.414-83.729-87-97C1344.816,754.785,1340.242,721.383,1347,709z"/>
<path d="M557,918c45.84,1.113,98.102-0.996,145,1c4,4,8,8,12,12c8.898,11.788,18.22,23.002,28,34c5.987,6.732,17.724,13.165,19,24  c-5,5-10,10-15,15c-6.909,5.205-13.938,9.976-20,16c-5.571,5.535-10.902,14.294-21,15c-9.333-9.332-18.667-18.668-28-28  c-2.985-3.943-6.716-10.67-11-13c-5.993-3.26-29.101-0.94-38-1c-10.056-0.067-30.602-3.574-40,0c-9.266,3.524-20.663,20.012-28,27  c-3.499,3.332-8.801,5.467-11,10c0,15.332,0,30.668,0,46c-1.779,6.953-18.041,30.807-24,33c-5.133,3.982-21.544,1.188-31,1  c-6.377-9.287-20.127-23.043-24-34c-2.588-7.322,0-35.246,0-47c0-6,0-12,0-18c3.979-12.219,21.705-25.68,30-35  C518.962,954.695,534.402,935.977,557,918z"/>
<path d="M213,922c50.329,0,100.671,0,151,0c6.317,8.092,16.777,13.746,23,22c11.689,15.505,24.572,29.313,36,45  c5.386,7.394,16.723,14.242,18,25c2.158,3.825,0,19.615,0,27c0,15.665,0,31.335,0,47c-3.431,10.34-21.49,20.439-29,28  c-58.109,0.319-109.785-1-168-1c-16.665,0-33.335,0-50,0c-6.756,0-16.894,1.467-22-1c-8.917-4.309-16.142-14.273-23-21  c-0.161-7.59-0.907-18.763,2-23c2.572-7.011,9.083-9.226,15-13c2.945-1.879,5.549-5.579,9-7c10.458-4.306,31.328-1,44-1  c29.664,0,59.336,0,89,0c12.033,0,50.494,2.904,57-2c2.192-1.652,1.824-4.17,2-8c-8.184-5.521-14.075-16.089-20-24  c-5.637-7.525-13.561-14.153-20-21c-22.998,0-46.002,0-69,0c-8.119,11.02-19.771,20.041-28,31c-3.226,4.297-5.608,10.979-11,13  c-9.751,7.137-31.107-2.398-44,2c-10.98,3.746-23.924,18.338-32,26c-0.351,5.701-4.153,23.521,0,30c2.303,6.492,22.27,23.833,29,26  c4.333,0,8.667,0,13,0c12.065,0.007,26.576-0.916,37,1c0.489,2.566,0.795,11.159,2,14c2.106,4.967,28.748,33.52,34,35  c13.332,0,26.668,0,40,0c10.234,0,27.268,2.745,33-1c9.894-3.776,16.102-20.764,24-23c3.465-0.98,69.635,36.619,72,43  c0.803,1.18,0.773,1.682,1,4c-11.748,10.723-21.357,24.172-31,37c-7.666,7.666-15.334,15.334-23,23c-24.291-0.523-147.001-2-160-2  c-13.866-6.824-54.697-59.77-60-67c-5.233-7.135-8.87-14.688-14-22c-3.325-4.738-7.948-8.717-10-15c-3.337-10.217,0.467-33.049,0-47  c-0.236-7.046-1.532-17.092,0-24c0-17.331,0-34.668,0-52c3.992-12.218,15.925-23.17,23-33c10.94-15.201,22.37-29.933,33-45  c4.91-6.96,9.156-17.128,16-22C204.993,923.869,209.848,924.077,213,922z"/>
<path d="M1302,925c45.328,0,90.671,0,136,0c9.217,3.048,78.668,81.668,86,89c4.975,7.566,2,28.684,2,40c0,13.332,0,26.668,0,40  c-1.674,5.068-14.539,24.035-19,26c-11.332,0-22.668,0-34,0c0-0.333,0-0.666,0-1c-8.262-3.026-18.693-22.086-21-32  c-2.652-11.398,4.566-30.938-1-40c-1.9-5.424-32.943-39.344-42-42c-7.998,0-65.488,0.629-83,2c-8.203,12.184-32.507,31.703-36,45  c-2.143,8.156-0.361,66.313,2,72c4.932,11.879,35.096,46.967,42,50c9.769,4.292,69.001,1,83,1c6.125-2.035,30.563-34.294,33-41  c2.863-7.881-2.016-17.83,1-25c1.754,0.631,0.971,0.193,2,1c8.145,3.023,7.27,13.827,15,17c5.754,5.038,35.621,1.177,45,1  c1.979-4.168,5.783-10.077,10-12c0-0.333,0-0.666,0-1c0.334,0.334,0.668,0.667,1,1c2.662,2.337,4.398,33.484,1,40  c-3.631,6.962-72.596,90.954-82,94c-9.666-0.333-133.603,2.999-144-4c-6.988-2.656-82.107-88.86-85-96c0-8.332-5.119-95.018-1-114  c1.063-4.902-1.189-11.54,1-15C1216.697,1013.394,1280.204,943.625,1302,925z"/>
<path d="M850,927c31.664,0,63.336,0,95,0c11.423,0,30.76-3.054,40,1c7.046,3.091,19.149,18.579,24,25  c10.332,10.332,20.668,20.668,31,31c9.445,12.508,20.659,25.291,32,36c0,25.331,0,50.669,0,76c-3.02,9.311-12.658,19.321-19,26  c-5.218,0.298-30.344,1.985-35-1c-6.788-2.592-18.042-21.754-20-30c0-13.665,0-27.335,0-41c-1.671-5.059-33.069-39.517-44-43  c-14.665,0-75.54-1.673-84,4c-4.914,3.295-30.571,31.346-34,42c0,8.999-1.466,65.933,2,74c5.425,12.627,34.734,46.146,40,49  c3.73,2.021,72.891,1.861,88,0c6.769-10.225,28.761-36.345,30-40c-0.333-7.332-0.667-14.668-1-22c2.091-1.121,1.832-1.436,5-2  c1.094,1.497,3.016,1.693,4,3c2.201,2.92,1.932,6.968,4,10c2.055,3.014,6.382,4.48,9,7c9.746,0.191,34.216,1.737,40-2  c6.7-2.613,5.984-10.327,14-12c0,0.666,0,1.334,0,2c4.339,6.824-1.801,22.906,0,33c1.653,9.266-14.784,21.059-20,28  c-19.087,25.404-38.906,48.734-61,71c-46.471,2.956-94.952-1.893-145-2c-5.642-8.625-81.794-90.096-85-98  c-0.333-17.665-4.018-100.986-1-114c1.45-6.252-2.121-10.637,0-15C762.666,1019.334,830.296,941.569,850,927z"/>
<path d="M1644,931c42.996,0,86.004,0,129,0c7.807,2.559,13.818,11.392,20,16c14.672,10.938,27.465,24.157,42,35  c10.334,7.709,18.945,17.426,29,25c4.664,3.514,12.748,7.416,15,13c0,5.666,0,11.334,0,17c-6.215,10.157,2.568,39.991,0,52  c0,70.993,0,142.007,0,213c0.002,11.254,3.191,30.976-1,40c-2.313,4.979-8.775,9.537-12,14c-4.51,6.246-7.02,12.057-17,10  c-6.17-1.271-15.49,1.846-20-1c-11.236-3.548-19.195-15.536-27-23c0.053-20.759-1.994-37.033-2-57c-0.002-8.289-2.666-17.793,0-24  c2.445-5.689,9.771-9.795,14-14c9.541-9.49,18.582-19.379,28-29c6.688-6.832,17.85-14.127,21-24c2.055-6.438-0.84-40.244-2-42  c-1.902-5.375-21.244-21.393-27-23c-9.52-2.658-23.455,0.563-32-1c-0.961-1.766-1.256-1.681-2-4c-2.525-4.209-0.873-14.912-1-21  c-0.246-11.845,0.918-47.533-4-55c-6.711-10.191-23.912-21.916-33-31c-3.996-3.995-8.221-11.123-14-13  c-27.33,0.666-54.67,1.334-82,2c-11.053,3.849-35.088,32.721-44,42c1.666,24.998,3.334,50.002,5,75  c4.734,12.557,17.514,23.411,25,34c5.172,7.314,8.377,20.358,20,21c4.178,2.162,24.666,0,34,0c16.068,0,36.906,2.712,50-2  c6.307-2.27,10.064-9.292,15-13c7.633-5.734,14.391-11.348,22-17c2.492-1.85,4.807-5.907,8-7c6.975-2.385,27.254-0.416,34,0  c2.992,4.442,8.271,7.234,12,11c2.324,2.348,3.684,5.64,6,8c0,10.666,0,21.334,0,32c-1.576,4.792-6.828,7.666-10,11  c-9.979,10.491-20.521,24.343-32,33c-5.498,4.146-11.299,8.07-16,13c-24.998-0.333-50.002-0.666-75-1c-15.273,0-34.523,1.902-48-1  c-12.537-2.7-42.068,4.561-51-1c-7.613-2.836-24.484-30.166-30-38c-10.166-14.443-21.48-28.327-32-43c-1.877-2.619-5.629-4.791-7-8  c-3.004-7.034,0-27.494,0-38c0-25.331,0-50.669,0-76c0-10.872-3.285-22.811,0-32c3.43-9.597,17.242-17.189,25-23  c12.83-9.609,24.209-22.42,37-32C1623.935,946.56,1635.394,939.817,1644,931z"/>
<path d="M1975,948c6.832,2.415,4,19.232,4,28c0,28.664,0,57.336,0,86c-2.908,4.486-1,27.493-1,35c0,8.332,0,16.668,0,25  c3.771,13.215,17.465,24.551,25,35c4.729,6.555,7.934,17.994,18,19c18.666,0,37.336,0,56,0c5.045,0,13.719,1.102,17-1  c14.748-5.068,30.867-33.082,46-35c4.873-3.133,27.967-1.785,34-1c3.016,4.629,12.771,14.889,17,19c0.086,10.688,3.176,23.518,0,32  c-1.201,3.208-5.113,5.465-7,8c-7.279,9.783-15.445,18.51-24,27c-2.332,1.666-4.666,3.334-7,5c-4.498,5.16-11.139,14.77-18,17  c-54.66-0.666-109.338-1.334-164-2c-15.91-21.219-31.447-42.87-47-65c-4.633-6.593-16.451-17.823-19-25c0-26.664,0-53.336,0-80  c0-15.665,0-31.335,0-47c0-5.523-1.285-15.302,1-19c2.951-8.876,13.117-14.803,20-20c9.902-7.479,18.025-18.543,28-26  C1961.056,957.725,1968.794,954.043,1975,948z"/>
<path d="M2215,1016c0,81.325,0,162.675,0,244c-1,0-2,0-3,0c-15.324,24.515-39.635,43.012-57,66c-2.666,2.333-5.334,4.667-8,7  c-5.273,6.989-19.752,29.068-27,32c-31.996,0-64.002,0-96,0c-1.566,1.243-0.51,0.643-2,0c-3.816-1.256-3.914-2.028-4-7  c10.455-6.979,16.551-18.936,24-29c12.475-16.855,28.518-31.986,41-49c4.541-6.188,8.613-16.868,15-21c3.58-2.316,26.281-4.403,33-3  c1.186,0.248,5.271,1.874,8,1c6.654-2.131,11.432-10.396,16-15c9.787-9.857,41.123-36.105,45-48c2.816-8.641-0.646-34.86-1-43  c-10.629-6.869-17.166-20.012-30-22c-10.129-1.569-30.322,3.903-34-4c-3.617-5.834-1-37.443-1-47c-0.332-29.997-0.666-60.003-1-90  c0-13.047-1.914-28.834,0-39c1.516-0.535,1.693-0.675,4-1c7.041,9.149,17.705,17.004,27,24c9.129,6.871,16.691,15.97,26,23  C2197.882,1000.954,2203.871,1013.842,2215,1016z"/>
<path fill="#FFFFFF" d="M398,1056c-1.073,0.752-0.946,0.602-3,1c-4.493,6.64-10.849,7.636-11,19c5.546,5.42,8.207,12.73,19,13  c4.723-5.963,11.203-7.749,12-18C409.262,1065.004,406.41,1059.623,398,1056z"/>
<path fill="#FFFFFF" d="M506,1063c-4.497,4.369-8.63,8.504-13,13c2.406,11.87,9.84,15.534,25,15c3.832-5.172,8.325-7.32,9-16  c-4.767-4.671-6.889-10.527-16-11C509.705,1063.123,508.533,1063.105,506,1063z"/>
<path fill="#FFFFFF" d="M180,1064c-1.073,0.752-0.946,0.602-3,1c-5.058,7.331-11.927,6.951-12,20c4.084,4.211,8.013,8.76,12,13  c2,0,4,0,6,0c4.063-4.342,8.678-8.914,13-13c0-2.666,0-5.334,0-8C191.059,1071.789,188.292,1065.989,180,1064z"/>
<path fill="#FFFFFF" d="M1483,1066c-1.072,0.752-0.945,0.602-3,1c-4.133,6.08-9.848,7.67-10,18c4.707,5.154,5.453,12.51,15,13  c3.027,2.084,9.795,0.733,13,0c4.23-6.311,8.861-9.059,9-20c-3.332-4-6.666-8-10-12C1492.333,1066,1487.666,1066,1483,1066z"/>
<path fill="#FFFFFF" d="M1031,1068c-0.86,0.648-3.145,1.338-4,2c-4.704,1.619-10.192,8.409-11,14c-1.094,5.816,6.932,12.861,11,17  c5.333,0,10.667,0,16,0c2.852-4.04,13.551-12.651,9-20c-1.968-6.009-7.087-8.936-11-13C1037.667,1068,1034.333,1068,1031,1068z"/>
<path d="M550,1098c-0.133,9.747-2.675,17.688,0,27c2.586,9.005,12.028,15.028,18,21c7.667,7.667,15.421,19.689,26,24  c10.068,4.104,37.962,1,51,1c6.333,0,12.667,0,19,0c10.818-3.082,14.575-15.916,26-18c17.264,18.359,36.631,35.74,55,53  c-3.05,12.658-22.333,26.338-31,35c-3.774,3.771-7.26,9.346-13,11c-27.997,0-56.003,0-84,0c-19.665,0-39.335,0-59,0  c-10.862-3.082-23.042-24.011-31-32c-13.268-13.319-25.529-26.795-37-42c-5.48-7.264-16.98-12.635-20-22  c0.333-6.666,0.667-13.334,1-20c-2.243-10.693-2.087-30.27,0-41c1,0,2,0,3,0c4.117,8.551,9.821,15.535,16,22  c13.868,1,29.242,0.884,42,0c1.048-1.713,12.311-18.688,13-19C546.667,1098,548.333,1098,550,1098z"/>
<path fill="#FFFFFF" d="M1811,1154c-1.383,1.105-2.873,1.494-5,2c-0.332,0.334-0.666,0.667-1,1c-0.666,5.666-1.334,11.334-2,17  c5.715,5.541,9.09,12.566,20,13c4.766-3.152,9.855-2.053,12-8c1.572-2.393,1.83-8.631,2-12c-4.244-4.927-8.547-8.443-13-13  C1819.667,1154,1815.333,1154,1811,1154z"/>
<path fill="#FFFFFF" d="M2152,1154c-1.438,1.05-3.922,1.559-6,2c0,0.666,0,1.334,0,2c-2.18,3.063-2.537,10.563-3,15  c5.684,5.744,8.236,13.199,19,14c1.008-0.692,4-1.287,5-2c5.137-1.457,7.07-4.172,7-11c1.436-1.954,1.4-7.046,0-9  c-1.977-5.724-7.201-7.189-11-11C2159.333,1154,2155.666,1154,2152,1154z"/>
<path d="M1735,1298c16.646-0.111,37.127-1.898,52,1c0.961,1.766,1.258,1.681,2,4c4.979,8.091-1.133,31.39,2,42  c2.924,9.9,16.068,10.752,17,23c-13.609,8.305-47.49,4-68,4c-55.42,0-113.215,0.564-167,1c-1.303-2.418-1.801-2.834-2-7  c5.02-4.219,6.461-11.198,10-17c6.545-10.723,13.48-22.389,20-33c3.48-5.666,4.303-12.612,11-15c5.168-3.84,19.492-2,28-2  c22.664,0,45.336,0,68,0C1715.269,1299,1729.865,1301.16,1735,1298z"/>
<path fill="#FFFFFF" d="M1836,1317c-7.195,4.637-15.42,7.026-16,18c4.193,4.082,7.203,10.66,14,12c4.756,3.236,15.148,0.077,19-1  c2.314-6.313,6.693-5.668,7-15c-4.273-3.36-6.729-10.979-12-13C1843.835,1316.404,1840.466,1317.795,1836,1317z"/>
</svg>